<?xml version="1.0" standalone="no"?>
<!DOCTYPE svg PUBLIC "-//W3C//DTD SVG 20010904//EN"
 "http://www.w3.org/TR/2001/REC-SVG-20010904/DTD/svg10.dtd">
<svg version="1.0" xmlns="http://www.w3.org/2000/svg"
 width="3840.000000pt" height="2160.000000pt" viewBox="0 0 3840.000000 2160.000000"
 preserveAspectRatio="xMidYMid meet">

<g transform="translate(0.000000,2160.000000) scale(0.100000,-0.100000)"
fill="#6e1f1b" stroke="none">
<path d="M19125 17388 c-102 -36 -175 -138 -177 -247 0 -34 -2 -61 -3 -61 -1
0 -248 -58 -548 -129 l-547 -129 -29 29 c-51 50 -121 35 -151 -34 l-19 -42
-1008 -238 c-554 -131 -1013 -237 -1018 -237 -6 0 -18 13 -28 29 -19 32 -89
71 -128 71 -42 0 -111 -42 -131 -80 -18 -33 -19 -58 -6 -147 2 -18 -66 -79
-382 -343 -212 -177 -398 -328 -415 -337 -16 -8 -46 -32 -65 -54 -19 -22 -377
-324 -795 -673 l-759 -634 -31 23 c-114 86 -247 83 -349 -6 -70 -62 -91 -108
-91 -204 0 -106 33 -169 119 -231 l30 -22 -450 -1098 -449 -1098 -133 -107
c-127 -101 -135 -106 -168 -99 -68 16 -136 -17 -170 -82 -47 -89 27 -210 129
-212 l45 -1 20 -63 20 -62 -236 -580 c-233 -569 -238 -579 -274 -600 -21 -12
-38 -25 -38 -31 0 -5 -11 -9 -24 -9 -55 0 -126 -81 -126 -144 0 -16 9 -49 21
-73 23 -48 77 -83 126 -83 l28 0 553 -2312 c305 -1272 556 -2320 558 -2330 3
-12 -5 -19 -30 -28 -47 -15 -92 -69 -101 -119 -9 -54 26 -127 72 -154 37 -21
110 -25 143 -7 12 6 23 10 24 8 2 -2 328 -393 724 -870 l721 -867 -6 -53 c-5
-52 -4 -56 27 -81 37 -31 61 -34 101 -10 27 16 32 16 57 3 15 -9 449 -254 965
-545 l938 -530 161 -134 160 -134 -9 -36 c-14 -63 -8 -153 15 -197 54 -105
132 -154 247 -154 115 0 194 49 247 154 11 22 22 42 23 44 4 4 2606 -508 2617
-514 4 -3 8 -11 8 -18 0 -7 9 -25 21 -40 16 -20 29 -26 60 -26 55 0 76 14 90
58 l11 37 913 259 912 258 40 -43 c36 -38 46 -43 95 -47 89 -7 154 42 165 127
l5 38 781 157 780 157 29 -28 c21 -20 38 -27 64 -26 49 1 77 31 84 89 l5 46
878 630 877 630 33 -20 c98 -61 217 -14 234 92 8 51 -4 100 -32 130 -15 16
-22 33 -18 43 4 9 159 219 346 467 187 248 459 609 604 802 l265 352 38 -5
c34 -5 43 -1 70 25 36 37 39 77 9 116 l-21 27 311 772 c170 425 333 829 362
900 l51 127 42 0 c83 0 156 70 156 150 0 47 -37 109 -78 131 -19 9 -36 19 -38
21 -3 4 247 2016 261 2095 4 24 12 34 31 39 31 8 64 49 64 80 0 49 -26 80 -80
97 -12 4 -38 169 -129 837 l-113 832 31 30 c56 55 65 136 21 198 -26 37 -53
52 -104 59 l-40 6 -682 1345 c-584 1151 -682 1350 -677 1377 3 17 2 40 -1 51
-7 22 -49 42 -84 39 -17 -2 -192 163 -767 722 l-744 724 14 28 c19 36 19 102
0 139 -44 86 -164 106 -235 40 l-32 -30 -932 455 c-876 428 -931 456 -939 484
-8 32 -41 61 -68 61 -9 0 -28 -9 -42 -20 l-26 -21 -303 66 c-289 63 -306 68
-358 104 -30 22 -56 47 -56 58 -1 10 -2 29 -3 42 -1 12 -16 38 -35 57 -45 45
-108 48 -155 8 -31 -26 -54 -84 -44 -110 3 -8 1 -14 -3 -14 -5 0 -357 75 -781
167 l-773 168 0 46 c0 150 -120 270 -269 268 -37 0 -79 -5 -96 -11z m-157
-366 c5 -16 23 -44 40 -63 l30 -34 -65 -72 -64 -72 -457 5 c-251 4 -479 9
-506 13 -45 6 -4 17 460 127 280 67 519 122 531 123 15 1 24 -7 31 -27z m1247
-122 c358 -77 655 -143 660 -145 6 -2 -107 -1 -250 2 l-260 6 -425 144 c-234
79 -414 141 -400 139 14 -3 318 -68 675 -146z m-320 -10 l390 -129 -255 5
c-293 6 -235 -12 -457 141 -112 77 -122 85 -110 103 6 11 19 18 27 15 8 -3
191 -63 405 -135z m-343 -1 c51 -35 111 -75 132 -91 l39 -28 -100 0 -100 0
-61 77 c-57 73 -60 79 -45 96 21 22 22 21 135 -54z m-123 -45 c29 -36 51 -68
48 -70 -2 -2 -103 -1 -224 3 l-220 8 29 52 29 52 37 -16 c50 -21 154 -14 207
14 22 11 40 21 41 22 0 0 24 -29 53 -65z m-399 -8 c-25 -45 -37 -56 -57 -56
-24 0 -22 3 27 60 29 34 55 59 57 56 3 -3 -9 -30 -27 -60z m-152 -81 c2 -2
-295 -324 -367 -398 l-37 -38 -305 222 c-167 122 -306 223 -308 226 -5 4 1012
-8 1017 -12z m90 -27 c-8 -13 -70 -119 -138 -237 -77 -131 -132 -216 -145
-221 -11 -4 -42 -11 -70 -14 -45 -6 -53 -4 -82 21 l-32 28 207 222 c190 205
210 223 241 223 32 0 33 -1 19 -22z m645 -114 c60 -75 106 -138 103 -141 -6
-7 -968 -194 -972 -190 -2 1 58 107 132 235 l136 232 246 0 247 0 108 -136z
m304 27 c79 -53 143 -99 143 -102 0 -10 -301 -62 -309 -53 -23 25 -201 252
-201 255 0 3 51 3 112 0 l113 -3 142 -97z m-1763 -121 c163 -118 296 -219 296
-223 0 -4 -17 -26 -37 -48 l-38 -40 -535 -103 c-294 -57 -537 -103 -539 -101
-1 2 91 157 205 344 l208 341 38 0 c25 0 46 8 65 25 15 13 31 23 35 22 4 -1
140 -99 302 -217z m2352 169 l129 -43 -240 -47 c-132 -26 -253 -48 -268 -48
-20 -1 -69 26 -163 90 -74 50 -134 94 -134 97 0 3 123 3 273 0 l274 -5 129
-44z m-2936 32 c-8 -5 -376 -160 -818 -345 l-803 -337 -162 75 -162 75 -3 40
-3 39 113 26 c62 15 500 118 973 230 473 113 865 205 870 205 6 0 3 -3 -5 -8z
m116 -5 c3 -8 -92 -173 -211 -368 l-217 -355 -427 -82 -427 -83 -199 92 c-110
50 -204 95 -208 99 -5 5 67 40 160 79 754 319 1500 631 1511 631 7 1 15 -5 18
-13z m3277 6 c33 -6 17 -11 -116 -36 l-153 -29 -105 36 -104 35 220 1 c121 0
237 -3 258 -7z m337 -17 c8 -9 8 -15 2 -15 -18 0 -42 12 -42 21 0 14 26 10 40
-6z m-198 -22 l30 -18 -7 -70 c-4 -38 -8 -72 -10 -73 -6 -6 -205 62 -205 70 0
14 125 108 143 108 11 0 32 -8 49 -17z m-142 -7 c0 -2 -20 -20 -45 -40 l-45
-37 -55 17 c-30 10 -52 20 -49 23 11 12 194 47 194 37z m417 -31 c15 -5 491
-351 518 -376 13 -13 -81 15 -274 79 l-293 98 -44 109 c-24 60 -44 112 -44
116 0 6 101 -13 137 -26z m-124 -78 c22 -54 38 -100 35 -102 -5 -5 -129 34
-140 44 -11 10 11 144 25 153 27 17 42 -1 80 -95z m-490 37 c43 -14 77 -27 75
-29 -2 -2 -82 -67 -177 -144 -175 -140 -175 -141 -200 -124 -97 62 -311 209
-311 214 0 3 416 89 530 108 3 1 40 -11 83 -25z m965 -32 c258 -57 263 -59
282 -89 10 -17 23 -32 29 -34 12 -4 -6 -207 -20 -223 -4 -4 -134 84 -289 198
-155 113 -278 206 -274 206 5 -1 127 -27 272 -58z m-618 -102 c0 -17 -58 -523
-63 -548 -1 -7 -118 66 -270 169 -219 148 -266 184 -255 194 7 7 89 74 181
148 l169 135 119 -40 c93 -31 119 -44 119 -58z m-897 -29 c56 -37 135 -91 175
-119 l73 -50 -153 -124 c-84 -69 -158 -127 -164 -131 -8 -4 -80 78 -189 214
-97 121 -175 222 -173 223 9 6 267 54 296 55 25 1 57 -15 135 -68z m1094 -25
c12 -12 377 -925 371 -930 -2 -3 -589 391 -603 405 -4 5 47 476 60 556 l6 31
77 -25 c42 -14 82 -31 89 -37z m1716 -386 c477 -233 865 -425 863 -427 -3 -3
-1816 593 -1834 603 -2 1 2 51 8 110 11 98 15 111 38 131 17 14 31 19 41 14 9
-4 406 -198 884 -431z m-3094 190 c100 -123 181 -227 180 -230 0 -3 -95 -81
-210 -174 -197 -158 -213 -168 -244 -163 -48 8 -104 -10 -138 -44 -18 -19 -33
-27 -41 -21 -6 5 -186 136 -401 292 -214 156 -392 285 -395 287 -8 7 34 75 50
81 19 8 1002 200 1012 198 4 0 88 -102 187 -226z m1740 85 c174 -58 324 -110
334 -117 15 -12 13 -43 -33 -436 -27 -233 -50 -425 -52 -427 -2 -2 -46 25 -98
61 l-94 64 -192 480 c-106 264 -190 480 -187 480 2 0 147 -47 322 -105z
m-3160 -44 c27 -21 26 -21 -48 -36 l-33 -7 23 31 c27 36 27 36 58 12z m2260
-196 c144 -98 265 -184 268 -190 2 -7 -15 -183 -39 -390 l-43 -378 -39 -14
c-22 -7 -40 -12 -41 -11 -6 8 -664 829 -692 864 l-33 41 162 132 c90 72 170
129 178 128 9 -2 134 -84 279 -182z m-2089 168 c0 -5 -7 -17 -15 -27 -14 -19
-15 -19 -36 0 l-21 19 24 6 c33 10 48 10 48 2z m-78 -39 c33 -23 36 -29 26
-48 -39 -73 -553 -954 -563 -965 -11 -11 -37 -12 -147 -4 -130 10 -136 11
-238 59 -58 27 -106 54 -107 59 -1 6 183 208 408 451 l410 441 77 15 c42 9 81
16 86 17 6 0 27 -11 48 -25z m-284 -43 c-65 -77 -782 -841 -790 -841 -4 0
-121 52 -259 116 -173 81 -248 121 -245 130 3 8 60 104 127 214 109 178 126
200 153 206 162 31 1032 202 1034 203 2 0 -7 -12 -20 -28z m-2489 -87 l84 -38
-63 -28 c-106 -48 -97 -50 -188 53 -60 69 -79 96 -71 105 8 10 26 6 82 -20 40
-18 110 -50 156 -72z m6785 -318 c300 -220 545 -401 543 -402 -1 -1 -229 -41
-508 -89 l-505 -88 -97 64 c-80 53 -97 68 -97 90 0 14 20 200 45 415 25 214
45 397 45 407 0 12 4 16 14 10 7 -4 259 -188 560 -407z m445 98 c920 -304 932
-309 929 -333 -3 -25 -5 -26 -396 -94 l-393 -68 -532 390 c-570 417 -581 425
-556 418 9 -3 435 -144 948 -313z m-3876 -74 l295 -215 -5 -37 c-4 -26 1 -49
15 -76 l20 -38 -605 -128 -604 -128 -105 9 -104 8 286 492 286 492 112 -82
c62 -45 246 -179 409 -297z m-3791 346 c16 -12 13 -25 -37 -177 -33 -101 -61
-169 -72 -176 -35 -23 -641 -273 -662 -273 -12 0 -21 3 -20 8 1 11 749 632
762 632 7 0 20 -6 29 -14z m198 -25 c14 -16 49 -56 77 -89 l53 -59 -171 -72
c-94 -40 -182 -76 -194 -81 -22 -8 -21 -2 29 148 l52 156 43 3 c23 1 50 7 59
13 24 13 24 13 52 -19z m553 -172 c109 -51 194 -95 190 -99 -9 -8 -394 -84
-397 -78 -1 2 -39 45 -85 96 -46 51 -82 95 -80 97 5 4 159 72 169 74 3 1 94
-40 203 -90z m4348 -400 l360 -450 -22 -55 -23 -55 -61 6 c-80 7 -853 65 -876
65 -13 0 -32 38 -83 168 -36 92 -66 171 -66 175 0 5 11 25 25 45 42 62 32 155
-23 199 -13 11 -12 15 9 32 13 10 107 87 209 169 102 83 186 151 187 151 2 1
165 -202 364 -450z m-3261 435 c0 -18 -237 -393 -247 -391 -22 4 -531 242
-527 246 4 4 738 149 762 150 6 1 12 -2 12 -5z m-1406 -125 c43 -49 76 -92 74
-95 -7 -6 -612 -123 -617 -119 -1 2 7 33 18 68 l22 65 202 85 c111 47 207 86
212 86 6 -1 45 -41 89 -90z m5797 -341 l86 -59 62 -156 c34 -86 60 -157 59
-158 -2 -2 -163 -30 -358 -64 -245 -43 -356 -58 -359 -50 -8 26 -65 79 -97 91
-34 12 -35 14 -30 53 3 22 22 182 41 355 20 173 38 325 41 338 4 21 21 12 237
-134 128 -87 271 -184 318 -216z m-4937 180 c157 -73 286 -136 286 -139 0 -4
-37 -67 -82 -139 l-81 -132 -56 6 c-31 3 -128 10 -216 16 -88 6 -170 13 -182
16 -33 7 -398 418 -375 423 37 8 398 79 409 80 6 1 140 -58 297 -131z m-1415
5 c-11 -32 -23 -61 -27 -64 -8 -8 -442 -92 -448 -87 -3 4 474 207 488 208 4 0
-2 -26 -13 -57z m841 -168 c98 -110 177 -201 175 -203 -1 -1 -242 16 -535 38
-293 22 -536 40 -541 40 -6 0 47 182 58 199 4 6 635 129 652 128 7 -1 93 -92
191 -202z m-880 57 c0 -4 -13 -46 -28 -92 l-29 -85 -59 3 c-314 18 -454 39
-454 70 0 8 502 109 548 111 12 1 22 -3 22 -7z m2075 -182 c110 -51 201 -93
203 -95 1 -1 -13 -18 -30 -38 l-33 -36 -298 23 c-164 13 -299 25 -302 27 -2 2
19 40 46 84 28 44 63 101 79 127 l30 48 52 -24 c29 -13 143 -65 253 -116z
m6702 55 c11 -24 5 -31 -160 -177 -95 -83 -186 -165 -204 -181 l-32 -30 -168
123 c-92 68 -177 131 -187 141 -18 17 -18 18 15 24 77 14 705 123 714 124 6 0
15 -10 22 -24z m-2096 -147 c3 -4 1 -41 -3 -81 -16 -128 -38 -119 -100 39 -26
66 -50 127 -54 138 -5 13 16 3 72 -34 43 -30 82 -57 85 -62z m-6981 33 c127
-45 195 -74 194 -83 -3 -37 -197 -609 -204 -601 -9 9 -280 617 -280 628 0 4
11 20 25 37 14 17 25 42 25 59 0 24 4 29 23 29 13 0 110 -31 217 -69z m9176
25 c7 -4 -84 -590 -91 -588 -22 7 -374 268 -372 275 2 5 90 86 197 181 l195
172 35 -20 c19 -11 36 -20 36 -20z m-9028 18 l83 -7 -7 -31 c-3 -17 -10 -35
-15 -40 -4 -5 -68 13 -151 43 l-143 51 75 -5 c41 -2 112 -8 158 -11z m4489 4
c18 -7 33 -16 33 -22 0 -5 -37 -71 -81 -147 l-82 -138 -46 5 c-25 3 -255 20
-510 39 -256 20 -466 36 -467 38 -4 3 1081 235 1105 236 8 1 30 -4 48 -11z
m5425 -716 c720 -700 744 -725 740 -757 -3 -24 2 -38 19 -54 l23 -21 -22 -398
c-13 -218 -25 -419 -28 -447 l-6 -50 -70 2 -71 2 -669 1212 c-368 666 -672
1219 -675 1227 -4 8 -1 13 5 11 6 -2 345 -329 754 -727z m-10486 627 c15 -7
24 -20 21 -29 -2 -8 -80 -309 -173 -668 l-169 -654 -381 7 c-210 4 -480 10
-600 14 l-218 6 -8 44 c-4 24 -16 58 -27 77 l-20 33 756 632 757 631 18 -40
c10 -21 30 -45 44 -53z m5164 64 c0 -25 -49 -285 -54 -291 -3 -2 -36 0 -75 4
l-71 9 79 135 c44 74 84 141 91 148 16 17 30 15 30 -5z m5195 -1179 c363 -658
666 -1209 674 -1225 13 -26 13 -31 0 -45 -14 -13 -68 21 -513 322 l-497 336 3
314 3 314 42 38 c24 20 47 49 53 64 29 82 -52 169 -142 151 -23 -4 -59 18
-232 143 -151 110 -205 154 -205 169 0 11 19 150 42 310 l42 290 30 6 c17 4
32 7 35 8 3 0 302 -538 665 -1195z m-9070 1147 l520 -40 45 -48 c25 -27 91
-102 148 -166 l104 -116 -23 -41 c-21 -37 -26 -40 -64 -40 -31 0 -49 -6 -66
-24 l-24 -24 -629 224 c-347 123 -632 226 -634 229 -3 3 0 23 7 45 11 38 13
40 54 40 23 0 276 -18 562 -39z m4020 -261 c4 -13 -6 -15 -75 -9 -44 3 -83 8
-86 12 -6 5 30 240 42 277 4 12 93 -197 119 -280z m3578 126 l197 -145 -212
-187 c-117 -103 -221 -194 -230 -202 -15 -13 -34 -10 -167 23 l-150 37 -328
221 c-234 158 -322 223 -308 226 57 11 972 169 985 170 9 1 104 -64 213 -143z
m-6783 73 c96 -6 176 -13 178 -14 5 -4 -147 -253 -158 -260 -6 -4 -82 78 -240
259 l-34 38 39 -5 c22 -4 119 -12 215 -18z m1015 -18 c75 -36 77 -38 40 -35
-22 2 -70 6 -108 10 l-67 6 21 29 c11 16 23 29 27 29 4 0 43 -18 87 -39z
m4407 -22 c40 -27 69 -49 66 -49 -4 0 -41 -7 -84 -15 -43 -8 -80 -13 -82 -10
-9 9 10 135 19 129 6 -3 42 -28 81 -55z m-7269 -290 l149 -336 -108 -333 -108
-332 -238 4 c-130 2 -239 6 -242 8 -4 4 324 1280 339 1318 3 8 16 12 32 10 25
-3 37 -26 176 -339z m1040 91 l627 -223 0 -32 c0 -31 -4 -34 -611 -371 -336
-186 -618 -339 -626 -339 -9 0 -57 96 -133 269 l-120 268 108 329 c59 181 112
328 117 326 6 -2 292 -104 638 -227z m1327 200 c140 -11 263 -20 274 -20 21 0
13 -9 -150 -183 l-92 -99 -203 -43 -204 -43 -52 56 c-29 32 -52 60 -53 64 0 5
39 71 86 148 76 124 88 140 112 140 15 0 142 -9 282 -20z m536 -40 c99 -9 122
-15 200 -52 49 -22 82 -43 74 -45 -76 -18 -715 -151 -718 -149 -1 2 50 60 114
130 l118 126 50 0 c28 0 101 -5 162 -10z m370 -33 c9 -9 -20 -47 -36 -47 -8 1
-40 14 -70 31 l-55 30 78 -4 c42 -2 80 -7 83 -10z m119 -6 l40 -7 -40 -7 c-22
-3 -55 -9 -73 -13 -33 -7 -33 -6 -21 15 15 22 30 24 94 12z m4284 -196 c160
-109 289 -200 287 -202 -2 -2 -167 37 -366 87 -363 91 -367 92 -438 151 -11 9
-12 26 -7 68 4 31 9 58 11 60 6 7 188 39 205 36 9 -1 147 -91 308 -200z
m-3564 144 c297 -22 541 -42 543 -43 2 -2 -258 -452 -274 -474 -1 -2 -248 110
-548 249 -300 139 -544 254 -542 256 7 7 221 51 251 52 16 1 272 -17 570 -40z
m3014 -6 c0 -25 -1 -25 -8 -8 -5 11 -7 23 -4 28 8 14 13 7 12 -20z m-29 -29
c11 -25 20 -52 20 -60 0 -8 -19 -33 -42 -56 l-41 -41 -311 22 c-342 24 -369
28 -363 44 2 8 505 104 710 136 4 0 17 -20 27 -45z m-4082 -361 l-214 -368
-74 -6 c-77 -6 -129 -23 -180 -59 l-28 -20 -171 192 c-94 105 -171 195 -171
199 0 3 54 64 120 135 l119 129 403 86 c222 47 405 84 407 83 2 -2 -93 -169
-211 -371z m1110 -38 c127 -59 232 -111 232 -116 0 -5 -21 -42 -46 -83 -45
-75 -45 -76 -112 -96 -37 -11 -294 -91 -572 -178 l-505 -159 -19 51 c-23 63
-65 125 -107 160 -37 32 -122 76 -144 76 -8 0 -15 5 -15 12 0 6 95 174 211
373 l210 363 317 -148 c174 -80 422 -195 550 -255z m718 370 c6 -15 -74 -477
-84 -486 -4 -3 -47 -18 -96 -33 l-89 -27 -84 37 c-64 29 -82 41 -78 53 4 9 67
120 141 246 l136 230 74 -3 c50 -3 77 -8 80 -17z m226 -14 c8 -7 128 -316 128
-329 0 -10 -391 -134 -398 -127 -4 4 58 380 75 453 6 24 7 24 97 17 50 -4 94
-10 98 -14z m3975 -128 c104 -75 194 -141 201 -148 10 -9 8 -39 -9 -156 -11
-79 -22 -145 -23 -147 -7 -7 -797 194 -795 203 2 11 420 383 431 384 5 1 92
-60 195 -136z m-3422 94 c231 -18 416 -35 410 -39 -22 -13 -787 -249 -798
-245 -6 2 -39 74 -73 160 l-62 157 52 -1 c28 0 240 -15 471 -32z m-3704 -104
c23 -26 39 -48 33 -50 -5 -1 -28 -6 -51 -12 -39 -8 -43 -7 -59 17 -16 24 -16
27 1 59 10 18 21 33 25 33 4 0 27 -21 51 -47z m4784 22 c176 -14 326 -25 333
-25 6 0 12 -6 12 -14 0 -8 11 -27 24 -43 l24 -29 -65 -569 c-36 -314 -66 -571
-68 -573 -4 -4 -118 -22 -122 -19 -1 2 -128 273 -282 602 l-279 599 34 38 c19
21 34 43 34 48 0 13 -16 14 355 -15z m-630 -14 c8 -16 31 -39 50 -51 30 -19
35 -27 31 -49 -3 -14 -28 -233 -56 -486 -29 -253 -55 -468 -58 -477 -6 -15
-45 0 -288 113 l-282 131 -115 297 c-63 163 -114 297 -113 298 5 5 791 251
803 252 7 1 19 -12 28 -28z m1577 -91 l403 -100 107 -73 c59 -39 104 -75 100
-78 -241 -218 -797 -698 -802 -692 -7 9 -270 912 -270 929 0 6 9 19 20 29 11
10 22 33 26 51 3 19 8 34 10 34 2 0 185 -45 406 -100z m-5310 65 c-44 -55
-183 -196 -191 -193 -13 5 -131 141 -126 146 5 6 292 69 318 71 17 1 17 0 -1
-24z m4199 -650 l279 -600 -22 -15 c-29 -19 -59 -49 -78 -78 l-15 -23 -260
121 c-143 67 -263 125 -268 129 -4 4 2 236 13 516 11 280 20 520 20 533 0 19
4 23 25 20 23 -3 51 -57 306 -603z m-4483 513 c40 -45 72 -84 72 -87 -1 -3
-21 -28 -45 -54 l-45 -48 -113 82 c-111 79 -114 82 -96 100 10 10 21 29 25 43
4 19 15 26 52 34 26 5 54 10 63 11 9 0 48 -36 87 -81z m5102 59 c0 -2 63 -219
140 -482 132 -453 139 -481 122 -496 -9 -9 -75 -67 -146 -129 -109 -97 -130
-112 -145 -102 -9 7 -43 26 -77 42 l-61 29 33 283 c18 156 47 412 65 571 29
259 34 287 51 287 10 0 18 -1 18 -3z m-995 -523 c-9 -253 -18 -469 -21 -482
-4 -22 -5 -22 -37 -6 -17 9 -34 18 -36 20 -2 2 20 212 50 468 29 256 55 464
57 462 1 -2 -4 -210 -13 -462z m-4460 447 c3 -5 19 -12 35 -16 25 -6 29 -10
24 -33 -3 -15 -24 -137 -48 -271 l-42 -244 -110 -120 -109 -119 -460 6 c-253
4 -473 10 -489 13 -22 4 -33 15 -48 50 -13 29 -16 49 -10 55 15 15 1226 687
1239 688 6 0 14 -4 18 -9z m7785 -142 c139 -102 179 -136 174 -148 -4 -9 -12
-31 -18 -48 -6 -18 -18 -33 -26 -33 -22 1 -360 87 -367 94 -4 3 -1 50 6 104
21 166 23 173 37 168 7 -3 94 -64 194 -137z m-7581 33 c57 -42 102 -81 101
-87 -3 -14 -292 -326 -297 -321 -2 2 14 108 36 235 23 128 41 236 41 241 0 18
13 10 119 -68z m6329 54 c52 -14 96 -27 99 -30 6 -6 -37 -45 -50 -46 -8 0
-147 91 -147 96 0 5 -7 7 98 -20z m-2911 -278 c61 -156 109 -284 108 -286 -5
-6 -658 304 -662 315 -3 6 0 36 7 66 l11 54 207 66 c114 36 210 66 213 66 3 1
55 -126 116 -281z m-2993 42 c93 -105 161 -189 156 -194 -9 -9 -419 282 -420
297 0 15 83 98 91 90 4 -4 82 -91 173 -193z m6471 94 c215 -53 394 -100 399
-105 7 -6 -40 -405 -49 -417 -3 -3 -814 544 -830 560 -13 12 54 69 75 63 8 -2
191 -48 405 -101z m-8517 -216 c61 -138 109 -255 106 -259 -2 -4 -48 -31 -101
-60 l-95 -52 -110 5 c-60 3 -112 8 -115 11 -6 7 188 607 197 607 3 0 56 -113
118 -252z m4178 210 l69 -31 -104 -34 c-57 -19 -106 -32 -108 -29 -6 6 61 126
71 126 2 0 34 -14 72 -32z m4282 -277 l402 -272 -6 -57 c-4 -31 -11 -65 -18
-74 -11 -16 -791 -626 -811 -634 -11 -5 -682 90 -689 97 -12 12 -155 524 -149
530 5 4 190 167 412 363 l403 356 27 -19 c14 -10 207 -140 429 -290z m-3994
242 c-3 -27 -8 -51 -11 -55 -4 -8 -113 42 -113 52 0 5 76 34 128 49 2 1 0 -20
-4 -46z m-2496 -126 c106 -77 195 -143 197 -147 3 -4 -10 -35 -27 -69 -27 -53
-33 -75 -36 -153 l-5 -91 -361 7 c-198 4 -362 9 -364 11 -2 2 5 53 16 114 l19
110 173 185 c102 110 177 183 184 179 6 -3 98 -69 204 -146z m2396 74 c68 -31
84 -43 80 -58 -2 -10 -29 -157 -59 -327 -30 -170 -57 -311 -60 -314 -6 -6
-624 78 -642 87 -7 4 45 102 150 281 l162 275 140 47 c77 25 141 47 142 47 2
1 41 -17 87 -38z m4794 -68 c219 -54 224 -58 175 -126 -16 -23 -105 -101 -198
-174 l-169 -132 -29 17 c-16 9 -33 22 -38 28 -5 7 1 80 16 190 31 227 34 244
43 244 4 0 94 -21 200 -47z m-4332 -146 l339 -157 92 -237 c51 -130 91 -238
90 -239 -4 -5 -980 135 -985 141 -3 3 13 115 37 248 68 382 73 408 81 405 4
-2 160 -74 346 -161z m-876 137 c0 -6 -299 -517 -308 -525 -4 -4 -187 19 -406
50 l-399 56 0 40 0 40 544 172 c536 169 569 179 569 167z m5491 -124 c21 0 5
-80 -57 -286 -37 -121 -69 -225 -73 -232 -9 -16 -206 117 -205 138 1 8 51 86
112 173 106 152 172 222 200 212 8 -3 18 -5 23 -5z m-282 -246 c-46 -66 -84
-120 -85 -122 -1 -2 -21 9 -43 24 -23 15 -38 31 -34 35 20 20 238 187 241 184
2 -1 -34 -56 -79 -121z m-7803 15 c-8 -45 -17 -84 -20 -86 -2 -2 -34 -3 -70
-1 l-67 3 82 88 c45 48 84 86 86 83 3 -2 -2 -41 -11 -87z m8090 -386 c-8 -8
-117 70 -113 81 3 6 29 90 58 187 l54 177 3 -221 c1 -121 0 -222 -2 -224z
m-3972 303 c147 -68 269 -125 271 -127 4 -5 -24 -251 -29 -257 -8 -7 -322 42
-332 52 -14 14 -189 456 -180 456 2 0 124 -56 270 -124z m-5331 67 l15 -38
-44 -3 c-24 -2 -65 -2 -91 0 l-48 3 65 37 c36 20 70 37 76 37 7 1 19 -16 27
-36z m-1489 -43 c252 -5 461 -12 464 -15 4 -4 -22 -113 -99 -407 -6 -24 -16
-38 -26 -38 -8 0 -32 -9 -53 -21 l-37 -21 -493 200 c-271 111 -494 203 -497
205 -2 3 1 25 7 49 7 23 14 48 15 53 2 7 48 10 131 8 71 -2 335 -8 588 -13z
m10262 -9 l24 -19 -26 -21 c-37 -29 -40 -27 -36 19 2 22 6 40 9 40 3 0 16 -9
29 -19z m-9287 -16 c2 -2 -7 -39 -20 -81 l-24 -77 -265 -147 c-145 -81 -270
-146 -276 -143 -9 3 -8 21 6 71 10 37 37 141 61 231 l42 164 236 -7 c130 -4
237 -9 240 -11z m226 -4 c-14 -14 -227 -132 -231 -128 -2 2 6 33 18 70 l22 67
100 0 c62 0 96 -4 91 -9z m322 -13 c8 -10 180 -394 200 -445 4 -10 -86 -13
-432 -13 -360 0 -436 2 -432 13 3 8 24 72 46 144 23 72 48 137 57 144 9 8 78
48 153 90 l136 77 131 1 c95 1 134 -3 141 -11z m791 -7 l164 -6 -207 -223
-208 -222 -154 2 -154 3 -100 224 c-54 123 -99 227 -99 232 0 9 434 3 758 -10z
m2287 -42 c198 -28 361 -52 363 -54 2 -2 -38 -75 -90 -163 l-93 -160 -45 0
c-25 0 -66 -4 -92 -7 l-47 -7 -229 166 -229 166 21 60 c20 58 22 60 51 55 16
-3 192 -28 390 -56z m5795 -15 c0 -10 -215 -313 -219 -308 -5 4 29 262 38 286
3 9 26 32 51 51 l45 34 43 -29 c23 -16 42 -31 42 -34z m-7720 34 c0 -25 -67
-409 -73 -414 -1 -2 -115 -6 -252 -10 l-250 -7 50 54 c28 30 122 132 210 227
l160 172 77 0 c74 0 78 -1 78 -22z m592 5 l187 -6 24 -49 24 -49 -31 -23 c-17
-13 -116 -85 -220 -160 l-188 -136 -214 0 c-154 0 -214 3 -214 11 0 7 16 101
35 210 19 110 35 201 35 204 0 7 340 6 562 -2z m9631 -1548 c504 -994 581
-1152 568 -1162 -8 -7 -18 -13 -22 -13 -7 0 -1367 1522 -1382 1547 -4 7 -1 26
8 42 22 43 19 115 -7 159 l-21 38 27 454 c19 319 30 457 39 462 8 5 42 -52
109 -185 53 -106 360 -709 681 -1342z m-13165 1293 c273 -110 500 -204 503
-207 4 -3 9 -23 12 -44 l6 -38 -137 -109 -136 -110 -26 24 c-14 13 -182 166
-375 340 -308 279 -376 346 -350 346 3 0 230 -91 503 -202z m10798 131 c57
-39 106 -74 108 -78 4 -5 -179 -620 -187 -627 -4 -5 -328 44 -334 50 -3 3 5
83 18 177 l23 172 131 189 c71 103 131 188 133 188 2 0 50 -32 108 -71z
m-1951 -207 c38 -128 66 -234 64 -236 -2 -1 -85 9 -184 23 l-180 27 -7 58 c-4
32 -17 74 -28 93 -11 19 -20 38 -20 43 0 5 62 63 137 130 94 83 139 117 144
108 4 -7 37 -118 74 -246z m-3239 203 c174 -24 319 -47 322 -49 4 -5 -77 -487
-84 -494 -1 -2 -172 38 -379 88 l-376 93 -14 34 c-15 36 -14 38 167 341 11 17
26 32 33 32 8 0 157 -20 331 -45z m4818 -117 c-13 -88 -25 -166 -27 -173 -4
-9 -210 -308 -226 -327 -5 -5 -465 55 -493 65 -7 2 752 596 763 597 3 0 -5
-73 -17 -162z m-10589 -183 c182 -164 343 -310 358 -325 l29 -27 -228 -182
c-125 -100 -228 -180 -230 -178 -7 6 -374 972 -374 983 0 6 17 23 38 37 35 24
38 24 57 8 11 -10 169 -152 350 -316z m4772 165 l201 -147 -186 -6 c-103 -4
-224 -7 -269 -7 l-81 0 -30 90 -30 89 53 30 c29 17 68 48 86 70 19 21 38 37
44 33 5 -3 101 -72 212 -152z m2823 145 l30 -16 0 -102 c0 -56 -4 -107 -8
-114 -5 -8 -22 -10 -50 -6 -39 5 -42 8 -42 35 0 59 23 218 32 218 5 0 22 -7
38 -15z m-3595 -59 c30 -25 81 -54 114 -67 l61 -22 -6 -41 c-4 -22 -9 -57 -13
-76 l-7 -35 -304 -3 c-167 -1 -302 0 -299 2 8 8 393 286 396 286 2 0 28 -20
58 -44z m4173 -210 c1 -2 0 -15 -3 -28 l-6 -24 -254 36 c-140 19 -257 39 -260
42 -4 4 -4 54 0 111 l7 104 256 -119 c141 -65 258 -120 260 -122z m-6874 91
l-46 -137 -152 0 c-84 0 -174 -3 -200 -6 -26 -4 -46 -3 -46 3 0 8 481 283 487
279 2 -2 -18 -64 -43 -139z m-1866 118 c4 -4 61 -1165 62 -1257 l0 -56 -511
-407 c-280 -224 -511 -406 -513 -404 -2 3 604 1488 869 2128 4 10 16 12 47 7
23 -4 44 -9 46 -11z m105 -22 c8 -21 94 -246 192 -501 l177 -463 -24 -18
c-204 -163 -353 -279 -356 -277 -6 6 -63 1268 -58 1282 3 8 16 14 30 14 18 0
27 -9 39 -37z m7115 -52 c266 -38 484 -70 486 -72 6 -10 206 -530 206 -539 0
-5 -11 -20 -25 -34 -17 -17 -25 -36 -25 -61 0 -21 -5 -35 -12 -35 -17 1 -1238
307 -1243 312 -4 3 65 410 80 476 4 15 13 22 28 22 12 -1 239 -31 505 -69z
m4513 -11 l59 -41 0 -290 c0 -272 -1 -290 -17 -285 -10 2 -78 13 -152 22 -73
10 -135 23 -137 29 -3 6 23 101 56 211 34 109 75 243 91 297 16 53 32 97 35
97 3 0 32 -18 65 -40z m-6788 -68 c15 -43 27 -81 27 -85 0 -4 -51 -7 -114 -7
l-115 0 6 38 c3 20 9 55 12 77 l6 40 65 6 c36 3 70 6 75 7 6 1 22 -33 38 -76z
m3104 -45 c6 -7 -44 -487 -52 -495 -1 -2 -14 0 -28 3 -23 6 -35 29 -103 203
-42 109 -87 224 -100 256 -13 33 -24 65 -24 71 0 8 43 5 150 -10 82 -12 153
-25 157 -28z m4464 -415 c235 -159 286 -197 282 -213 -3 -10 -13 -19 -22 -19
-9 1 -225 31 -481 68 l-465 68 -3 282 -2 281 202 -137 c112 -75 332 -224 489
-330z m-4357 408 l28 0 -6 -227 c-9 -305 -7 -295 -62 -321 -58 -29 -61 -28
-78 12 -12 30 -11 60 15 277 16 134 29 250 29 258 0 9 7 11 23 7 12 -3 35 -6
51 -6z m307 -45 c134 -19 249 -37 255 -39 6 -3 14 -28 16 -58 3 -29 7 -59 9
-66 3 -9 -89 -62 -266 -153 -148 -76 -274 -139 -278 -139 -5 0 -6 53 -3 118 3
64 9 174 12 245 3 70 7 127 9 127 1 0 112 -16 246 -35z m-3751 -25 c0 -5 -18
-130 -40 -277 -29 -198 -44 -271 -56 -280 -8 -6 -200 -111 -426 -234 l-411
-222 -141 57 c-78 32 -148 61 -156 66 -11 7 -6 50 29 252 23 133 44 250 47
259 3 10 116 97 252 195 l247 179 255 5 c140 3 288 7 328 8 42 1 72 -2 72 -8z
m326 -147 l53 -153 -42 -24 c-117 -67 -380 -206 -383 -203 -4 4 59 443 72 510
l6 28 120 -3 120 -3 54 -152z m563 143 c10 -12 -1 -21 -61 -54 -40 -22 -149
-81 -243 -132 -93 -51 -173 -94 -176 -96 -4 -2 -29 64 -57 146 l-51 150 288 0
c236 0 291 -3 300 -14z m-2816 -109 l48 -109 -78 -84 c-43 -47 -105 -114 -138
-149 l-60 -63 -385 157 c-211 87 -385 162 -387 167 -2 5 10 48 25 94 l29 85
419 5 c230 3 432 6 449 5 28 0 32 -6 78 -108z m245 104 c-1 -4 -42 -50 -90
-101 l-88 -92 -35 78 c-20 43 -38 88 -41 101 l-6 23 132 0 c72 0 130 -4 128
-9z m562 -3 c1 -33 -54 -324 -63 -336 -11 -14 -435 -322 -453 -329 -6 -2 -53
90 -111 220 l-100 224 30 34 c17 19 65 71 109 117 l79 82 254 0 c197 0 255 -3
255 -12z m419 8 c-29 -29 -435 -312 -437 -305 -3 8 25 183 44 282 l6 27 195 0
c108 0 194 -2 192 -4z m-2204 -18 c-29 -94 -48 -154 -52 -160 -2 -4 -70 20
-151 54 -81 33 -153 62 -159 65 -7 3 -13 16 -13 29 l0 24 190 0 c147 0 188 -3
185 -12z m9295 -153 c-11 -76 -22 -141 -25 -143 -7 -7 -140 12 -140 20 0 9
179 268 182 264 2 -2 -6 -65 -17 -141z m-5467 94 c9 -17 31 -36 47 -42 24 -9
30 -17 30 -42 0 -49 -110 -1439 -116 -1454 -3 -9 -8 -11 -13 -5 -5 5 -79 214
-166 464 -86 250 -188 543 -225 651 l-68 196 241 131 c133 72 244 132 247 132
3 0 13 -14 23 -31z m555 -73 c205 -52 375 -96 377 -98 6 -6 -184 -1077 -195
-1105 -11 -26 -228 -140 -240 -126 -14 17 -331 1389 -325 1406 4 9 8 17 9 17
0 0 169 -43 374 -94z m3311 31 l154 -22 67 -230 67 -230 -31 -6 c-36 -6 -68
-22 -90 -44 -14 -14 -29 -14 -123 -4 -60 6 -110 13 -113 14 -3 2 -63 89 -134
193 l-128 189 41 54 c22 30 41 57 41 61 0 4 4 18 10 32 9 24 13 26 47 20 21
-3 107 -15 192 -27z m-7959 -55 c58 -36 122 -76 142 -88 l37 -23 -36 -108
c-20 -60 -39 -112 -43 -116 -5 -6 -189 294 -237 386 -7 13 8 28 20 20 7 -4 59
-36 117 -71z m-240 53 c29 -15 30 -18 30 -84 0 -37 3 -150 7 -252 l6 -183
-170 154 c-94 85 -172 158 -172 162 -1 6 258 216 267 218 2 0 16 -7 32 -15z
m338 -47 c56 -23 102 -47 102 -53 -1 -39 -19 -34 -131 36 -124 78 -123 78 29
17z m4150 10 c88 -358 313 -1331 309 -1341 -2 -6 -82 -52 -176 -101 l-172 -88
-24 22 c-13 12 -40 28 -62 35 -36 13 -38 15 -35 52 32 472 116 1449 125 1455
20 13 24 9 35 -34z m-4284 -191 l126 -213 -42 -127 c-24 -70 -45 -127 -48
-127 -3 1 -42 36 -87 78 l-83 77 -9 260 c-5 143 -7 263 -4 268 2 4 8 5 13 2 4
-3 65 -101 134 -218z m8521 153 c160 -22 294 -42 298 -43 16 -5 -473 -378
-490 -375 -15 3 -37 67 -132 402 l-20 68 27 -5 c15 -3 158 -24 317 -47z
m-1224 -23 c24 -23 54 -49 67 -57 l23 -15 -49 -138 c-27 -76 -52 -140 -54
-142 -2 -3 -128 9 -279 25 -151 16 -284 30 -297 30 -19 0 -23 5 -20 27 3 25
28 40 278 170 151 78 278 142 281 142 4 1 26 -18 50 -42z m-6637 -163 c201
-82 366 -151 366 -154 0 -3 -28 -36 -62 -74 l-63 -68 -325 201 c-179 111 -325
205 -324 211 1 5 2 17 3 26 1 11 7 15 20 11 11 -3 184 -72 385 -153z m8488 95
l227 -32 -29 -41 c-205 -298 -552 -791 -556 -789 -3 0 -88 77 -189 170 l-184
168 0 51 c-1 38 -8 61 -27 89 -24 35 -24 38 -7 50 10 7 122 95 248 194 201
158 234 180 260 177 17 -2 132 -19 257 -37z m-7707 -189 c54 -121 96 -222 93
-225 -6 -7 -434 167 -439 178 -4 8 231 267 242 267 4 0 51 -99 104 -220z
m4273 69 c337 -83 612 -155 610 -160 -2 -5 -38 -37 -80 -72 -64 -51 -186 -118
-708 -386 -347 -178 -633 -322 -635 -320 -5 6 188 1089 195 1089 3 0 281 -68
618 -151z m2057 -56 c113 -168 115 -173 88 -172 -54 1 -532 55 -538 60 -3 4
17 66 43 140 l49 134 69 -3 c51 -2 79 3 109 17 30 14 43 16 51 7 7 -6 64 -89
129 -183z m-7209 -35 c173 -106 314 -196 314 -199 0 -9 -381 -419 -389 -419
-5 1 -61 94 -284 476 l-49 83 42 125 c23 70 44 126 47 126 4 0 147 -87 319
-192z m3044 140 c6 -18 108 -311 226 -651 l214 -618 -36 -35 c-20 -19 -40 -34
-44 -34 -11 0 -914 370 -921 377 -5 6 81 624 103 742 3 12 418 249 440 250 3
1 11 -14 18 -31z m5928 16 c23 -5 32 -12 32 -26 0 -31 -181 -1322 -186 -1327
-3 -3 -30 20 -62 51 -31 30 -156 147 -277 259 -121 112 -220 208 -220 214 0 6
131 199 290 428 l290 418 50 -6 c28 -3 65 -8 83 -11z m-9881 -166 c98 -88 180
-163 183 -165 3 -3 10 -158 15 -346 l10 -341 -42 -134 c-23 -74 -44 -136 -47
-140 -3 -3 -90 -24 -193 -47 l-188 -42 -11 21 c-6 12 -93 237 -194 500 -121
318 -180 484 -174 492 12 17 447 364 456 364 4 0 88 -73 185 -162z m10125 130
c131 -19 157 -25 153 -38 -166 -554 -420 -1378 -427 -1385 -5 -6 -25 8 -53 35
l-44 45 94 675 c52 371 95 678 95 683 0 11 10 10 182 -15z m-7778 -135 c-13
-71 -31 -177 -41 -237 -9 -59 -22 -110 -28 -112 -17 -7 -350 133 -350 147 0
10 427 329 440 329 1 0 -8 -57 -21 -127z m8154 81 l132 -18 0 -581 0 -581
-239 -237 c-131 -130 -242 -237 -247 -237 -5 0 -69 58 -142 128 l-132 127 217
713 218 714 30 -5 c17 -3 90 -13 163 -23z m647 -94 c496 -71 475 -67 475 -88
0 -15 -385 -404 -832 -842 l-128 -125 0 564 0 563 33 -6 c17 -3 221 -33 452
-66z m-4145 30 c0 -5 -10 -10 -22 -10 -19 0 -20 2 -8 10 19 13 30 13 30 0z
m-2 -44 c2 -3 1 -69 -3 -147 l-8 -143 -63 124 c-35 69 -63 128 -63 131 -1 3 9
16 20 28 19 20 28 22 67 17 25 -3 47 -8 50 -10z m347 -32 c149 -15 271 -28
272 -29 2 -1 -42 -125 -96 -276 l-99 -274 -113 -42 c-63 -24 -115 -43 -116
-43 -2 0 -42 78 -89 173 l-87 172 2 145 c2 187 6 211 35 205 11 -2 143 -16
291 -31z m-5716 -64 c116 -47 211 -87 211 -90 0 -5 -215 -162 -230 -168 -4 -2
-82 43 -173 99 l-166 102 66 74 c37 40 70 72 74 71 4 -2 102 -41 218 -88z
m5095 61 c6 -8 -56 -51 -72 -51 -6 0 58 59 65 60 1 0 4 -4 7 -9z m-3264 -23
c0 -21 -102 -703 -105 -707 -2 -1 -162 61 -355 140 l-352 143 34 17 c18 10
197 108 398 218 201 110 368 200 373 200 4 1 7 -5 7 -11z m-2806 -276 c138
-233 155 -265 144 -282 -7 -11 -16 -19 -20 -18 -9 4 -343 304 -359 324 -9 11
-4 38 27 134 20 66 41 117 45 113 4 -5 78 -126 163 -271z m6261 126 l73 -153
-9 -204 c-5 -113 -12 -208 -16 -212 -5 -4 -400 -150 -878 -326 l-871 -319 -32
35 c-18 19 -29 38 -25 41 108 93 1330 1125 1358 1147 60 47 247 138 289 141
l37 2 74 -152z m1044 112 c156 -17 288 -33 293 -36 5 -3 29 -36 53 -72 44 -66
45 -67 22 -75 -270 -101 -861 -316 -864 -313 -3 3 172 500 183 517 7 12 -9 13
313 -21z m3691 -55 c12 -23 82 -65 108 -65 7 0 12 -15 12 -37 0 -21 16 -406
36 -856 21 -464 33 -822 28 -826 -8 -7 -969 -72 -1045 -71 -22 0 -25 4 -26 35
-1 46 -25 82 -68 102 l-35 17 0 384 0 385 483 478 c265 263 485 478 488 478 3
1 12 -10 19 -24z m-3182 0 c1 -1 0 -20 -4 -42 -5 -33 -11 -42 -38 -51 -18 -7
-37 -12 -42 -12 -6 0 -30 28 -53 61 l-44 62 89 -8 c49 -4 90 -8 92 -10z
m-8130 -128 l34 -35 -69 -213 -68 -214 -6 90 c-4 50 -10 179 -13 288 l-6 199
48 -40 c26 -22 62 -56 80 -75z m1085 3 c86 -52 156 -97 156 -100 0 -8 -596
-434 -605 -433 -11 1 -126 193 -122 204 8 20 394 428 404 426 6 -1 81 -45 167
-97z m11112 -665 c362 -407 672 -755 689 -773 28 -30 29 -34 17 -55 -8 -12
-17 -35 -21 -52 l-6 -30 -464 -31 c-361 -23 -467 -28 -475 -18 -5 6 -109 388
-230 849 -212 808 -219 838 -200 851 10 8 22 11 26 7 3 -5 302 -341 664 -748z
m-13019 242 c102 -268 185 -489 183 -491 -5 -4 -723 -165 -726 -162 -5 5 -41
841 -37 848 14 23 379 307 386 300 4 -4 91 -227 194 -495z m2386 486 c8 -10
54 -104 101 -210 66 -151 82 -195 73 -206 -9 -12 -47 8 -223 117 -117 72 -213
134 -213 138 0 7 230 177 241 178 3 0 13 -8 21 -17z m10124 -866 c119 -455
215 -829 213 -831 -6 -7 -359 -29 -365 -24 -3 3 -20 352 -39 774 -18 423 -36
810 -39 859 -3 58 -1 83 4 70 5 -11 107 -392 226 -848z m-9921 788 c87 -35
160 -67 163 -70 6 -5 -15 -155 -25 -181 -3 -8 -19 -14 -40 -14 -19 0 -48 -7
-64 -16 -17 -8 -33 -14 -35 -11 -6 6 -163 357 -159 357 1 0 73 -29 160 -65z
m4300 36 c-30 -28 -1250 -1060 -1252 -1058 -1 1 17 107 40 234 l41 232 580
300 c320 164 585 299 591 300 6 1 6 -2 0 -8z m2075 -30 c9 -23 9 -38 0 -65 -6
-20 -13 -36 -15 -36 -7 0 -65 88 -65 98 0 9 39 28 61 31 4 1 12 -12 19 -28z
m-72 -71 c23 -32 42 -65 42 -71 0 -7 -116 -365 -257 -796 l-257 -783 -46 0
-45 0 -258 515 c-141 283 -257 522 -257 530 0 8 25 84 57 170 42 117 62 159
77 166 38 17 881 327 892 328 5 1 29 -26 52 -59z m532 -113 l181 -168 -57 -82
c-162 -232 -187 -266 -195 -262 -4 3 -91 129 -194 281 -170 250 -186 278 -181
307 11 55 19 61 54 43 56 -29 134 -14 176 33 11 12 23 20 27 19 5 -2 90 -79
189 -171z m-8356 -31 l177 -160 -54 -55 c-29 -31 -108 -115 -175 -187 l-121
-130 -78 -17 c-43 -9 -81 -17 -84 -17 -3 0 -9 51 -13 113 l-7 112 83 253 c45
139 85 251 89 250 4 -2 86 -75 183 -162z m1857 73 c68 -28 127 -54 131 -57 6
-6 -199 -123 -227 -129 -5 -1 -25 11 -44 27 l-34 29 12 63 c21 112 22 118 30
118 5 0 64 -23 132 -51z m-607 -104 c114 -70 205 -129 203 -131 -2 -2 -224
-54 -493 -114 -487 -110 -489 -110 -514 -92 -14 11 -25 24 -25 30 0 17 588
441 606 438 9 -2 110 -61 223 -131z m5319 -175 c-4 -4 -33 -17 -63 -28 -30
-11 -63 -23 -72 -27 -16 -6 -18 0 -18 52 0 33 3 115 7 183 l6 123 74 -148 c41
-81 71 -151 66 -155z m1516 -32 c99 -147 181 -271 181 -277 0 -6 -156 -233
-346 -506 l-346 -495 -83 0 c-46 0 -90 2 -98 6 -15 5 -26 -32 358 1138 75 230
140 414 145 410 4 -5 89 -129 189 -276z m-5684 90 c193 -78 354 -145 358 -149
8 -6 -18 -218 -28 -228 -3 -3 -90 14 -193 36 -103 23 -325 72 -493 108 l-307
68 20 33 c14 24 19 48 17 86 l-3 53 119 66 c66 37 129 67 140 68 11 1 178 -63
370 -141z m-4050 -523 l8 -191 -592 -133 c-325 -73 -595 -131 -600 -129 -4 2
16 62 46 133 l54 130 527 419 527 418 11 -228 c7 -126 15 -315 19 -419z m1931
480 l29 -50 -47 40 c-38 33 -44 43 -36 59 12 21 16 17 54 -49z m6498 -81 c-24
-70 -48 -133 -52 -140 -5 -9 -24 19 -57 86 -27 55 -46 102 -43 105 7 7 178 74
190 75 4 0 -13 -57 -38 -126z m2096 -179 c118 -109 226 -208 239 -220 l23 -23
-41 -298 c-56 -401 -47 -364 -85 -364 -17 -1 -49 -7 -71 -15 -31 -11 -42 -12
-51 -2 -6 7 -140 202 -298 435 l-287 423 57 82 c32 45 89 126 127 181 l69 98
52 -49 c28 -28 148 -139 266 -248z m-8602 204 c37 -34 73 -67 80 -74 11 -10
-1 -23 -65 -68 -77 -54 -85 -57 -237 -92 -87 -20 -160 -34 -162 -33 -5 6 297
328 307 328 5 0 40 -28 77 -61z m1206 19 c5 -29 18 -52 45 -79 27 -27 50 -40
79 -45 23 -4 42 -11 42 -16 0 -5 48 -275 106 -599 60 -331 103 -594 98 -599
-5 -5 -22 -10 -37 -12 -25 -3 -104 66 -673 582 -361 327 -639 587 -632 589 11
4 940 217 959 220 4 1 9 -18 13 -41z m5225 -237 c2 -31 -304 -861 -316 -861
-17 0 -16 37 5 587 10 247 21 436 27 442 6 5 46 23 90 39 l80 29 57 -111 c31
-61 57 -117 57 -125z m-323 42 c-3 -65 -11 -244 -16 -398 -5 -154 -13 -330
-16 -391 l-6 -111 -38 -12 c-23 -7 -51 -26 -68 -47 l-29 -35 -776 232 c-428
128 -777 236 -777 239 0 6 1701 636 1724 639 4 1 5 -52 2 -116z m-3125 -74
c244 -100 450 -183 456 -186 10 -4 9 -46 -1 -60 -2 -2 -840 180 -932 202 -21
5 -21 6 -7 102 17 113 19 123 31 123 5 0 209 -81 453 -181z m-1038 52 c274
-60 501 -112 504 -115 7 -7 -109 -796 -117 -796 -6 0 -883 998 -888 1012 -2 4
-2 8 0 8 2 0 227 -49 501 -109z m-82 -420 c247 -283 446 -518 442 -521 -13
-12 -684 -173 -691 -166 -3 4 -52 264 -108 579 -57 314 -105 585 -108 600 -4
18 -2 27 5 25 5 -2 212 -235 460 -517z m-1741 472 c0 -10 -90 -36 -98 -28 -2
1 16 17 39 34 42 30 58 29 59 -6z m4181 -219 c-23 -125 -44 -231 -48 -235 -5
-4 -17 -9 -27 -11 -17 -3 -24 17 -62 177 -24 99 -43 186 -44 192 0 15 213 125
218 113 2 -4 -15 -110 -37 -236z m-4951 116 c0 -77 -1 -80 -25 -86 -14 -4 -28
-4 -30 -2 -4 4 47 168 52 168 2 0 3 -36 3 -80z m1484 -510 l645 -585 -267 -66
c-238 -59 -268 -64 -278 -50 -6 9 -172 288 -369 621 -196 333 -366 620 -378
639 -11 19 -15 32 -10 30 6 -2 302 -267 657 -589z m-312 -58 c207 -350 380
-645 383 -654 5 -11 2 -18 -5 -18 -12 0 -1490 497 -1496 503 -1 1 -5 83 -9
182 l-6 180 278 200 c272 196 280 200 363 222 47 12 92 22 100 22 10 1 151
-230 392 -637z m-655 571 c-4 -3 -112 -82 -239 -174 l-233 -168 -3 39 c-4 47
0 52 101 160 l79 84 141 32 c157 36 163 37 154 27z m4272 -193 c24 -105 41
-193 38 -197 -6 -5 -415 110 -422 119 -1 2 -5 23 -9 48 l-6 45 167 86 c93 48
173 87 178 88 6 0 30 -85 54 -189z m2809 -815 c-3 -2 -712 31 -714 34 -1 0 -4
15 -8 32 -3 17 -21 46 -40 65 l-35 35 145 402 c79 221 147 409 150 417 3 9
107 -187 255 -484 138 -274 249 -499 247 -501z m1361 526 l288 -424 -34 -45
c-18 -24 -39 -64 -45 -88 l-12 -44 -111 6 c-60 3 -323 16 -583 28 -260 11
-472 25 -473 29 -1 13 665 966 674 964 4 -1 138 -193 296 -426z m-8854 339
l-70 -71 -3 52 c-2 28 -1 53 2 56 5 5 103 30 126 32 8 1 -17 -31 -55 -69z
m3513 -33 c260 -57 475 -106 478 -110 4 -3 -73 -91 -171 -194 -98 -103 -188
-198 -200 -211 -17 -18 -86 -38 -365 -107 -189 -46 -345 -83 -347 -81 -2 2 96
683 112 774 3 17 9 32 13 32 5 0 220 -46 480 -103z m-3614 47 c3 -9 6 -38 6
-66 0 -48 -2 -52 -87 -144 -48 -51 -88 -92 -89 -91 -2 1 18 70 45 151 47 151
55 163 102 165 9 1 20 -6 23 -15z m10416 -363 c0 -361 0 -370 -20 -376 -11 -4
-32 -17 -48 -29 l-27 -23 -183 170 -183 171 228 228 c125 125 229 228 230 228
2 0 3 -166 3 -369z m-10581 182 c-32 -97 -63 -181 -67 -185 -5 -5 -26 -1 -47
8 -21 9 -51 13 -66 10 -26 -5 -29 -2 -55 67 -15 40 -37 99 -50 131 -13 33 -23
61 -21 62 3 3 336 81 354 83 7 0 -13 -71 -48 -176z m-285 -44 l49 -130 -31
-32 c-36 -37 -52 -75 -52 -120 0 -32 -3 -34 -357 -232 -196 -110 -359 -201
-363 -203 -8 -3 -39 671 -31 680 6 6 691 165 721 167 10 0 30 -40 64 -130z
m10034 83 l43 -37 -76 -250 c-98 -324 -96 -317 -102 -311 -7 7 79 636 87 636
3 0 24 -17 48 -38z m-9578 -60 c0 -36 -4 -40 -100 -109 -55 -40 -100 -70 -100
-67 0 6 191 214 197 214 1 0 3 -17 3 -38z m4546 -19 c-4 -4 -167 27 -175 33
-1 2 0 7 3 12 3 6 41 -1 91 -16 47 -14 83 -27 81 -29z m-365 -35 c9 -3 10 -27
3 -108 l-9 -103 -212 -52 c-162 -39 -210 -48 -201 -36 7 9 86 94 177 188 l163
173 33 -29 c18 -16 39 -31 46 -33z m5634 -105 l89 -83 -175 -176 -175 -175
-37 23 c-20 13 -36 28 -37 33 0 10 45 162 126 423 l35 113 42 -37 c23 -21 82
-75 132 -121z m-5241 102 c114 -25 209 -45 213 -45 4 0 3 -4 -2 -9 -14 -12
-314 -84 -329 -78 -15 6 -116 151 -116 166 0 16 11 15 234 -34z m-209 -59 c27
-40 49 -77 48 -82 -2 -9 -163 -53 -195 -54 -13 0 -15 8 -12 38 2 20 6 62 9 93
l6 55 42 11 c23 5 44 11 47 11 3 1 27 -32 55 -72z m-5626 -226 c6 -146 14
-299 17 -340 l6 -75 -49 -27 -49 -27 -595 191 c-327 104 -595 191 -597 193 -1
1 6 22 16 46 l19 44 604 136 c332 75 607 134 610 130 4 -3 12 -125 18 -271z
m1270 83 l1 -142 -97 33 c-87 29 -98 35 -99 57 -1 14 -4 41 -8 61 l-6 36 97
70 c117 85 111 91 112 -115z m-2475 61 c-25 -60 -48 -112 -52 -115 -4 -4 -20
-9 -37 -12 -26 -4 -33 0 -53 30 -12 20 -21 39 -20 43 4 10 202 169 206 166 1
-2 -18 -52 -44 -112z m7271 35 c6 -18 -11 -40 -96 -125 -57 -57 -107 -104
-111 -104 -7 0 -117 151 -121 167 -2 6 278 81 310 82 6 1 15 -9 18 -20z m959
-216 c419 -124 764 -229 768 -232 4 -4 -285 -63 -642 -131 -357 -68 -651 -122
-654 -119 -2 2 -74 145 -161 318 l-157 314 31 24 c17 14 31 31 31 39 0 8 5 14
12 14 7 0 354 -102 772 -227z m-715 -170 l160 -322 -52 -11 c-29 -5 -85 -16
-125 -24 l-73 -14 -68 97 c-37 53 -116 165 -175 250 l-108 154 114 107 c108
102 114 106 140 96 22 -10 54 -67 187 -333z m-540 227 c34 -50 61 -94 59 -98
-9 -20 -408 -403 -408 -391 0 21 41 524 43 526 5 4 205 51 222 52 16 1 38 -23
84 -89z m5631 -139 c91 -84 166 -158 167 -164 2 -7 0 -17 -5 -23 -4 -6 -149
-23 -339 -40 l-333 -30 -26 54 -27 54 174 174 173 174 26 -24 c14 -13 99 -92
190 -175z m-5970 136 c0 -18 -9 -143 -20 -277 l-20 -245 -143 -143 -142 -142
-130 -25 c-72 -14 -140 -27 -152 -30 -17 -4 -45 22 -157 150 -75 84 -136 157
-136 160 0 4 99 111 220 239 l220 233 223 55 c122 31 225 56 230 57 4 1 7 -14
7 -32z m-6710 -57 c-16 -39 -40 -40 -40 -1 0 23 5 30 23 33 30 5 31 3 17 -32z
m2091 -15 c18 -20 47 -39 68 -45 l38 -10 9 -337 c6 -186 9 -340 8 -342 -2 -2
-96 27 -211 64 -114 36 -313 100 -441 141 l-233 75 3 41 3 41 360 203 c198
111 361 203 363 203 1 1 16 -15 33 -34z m364 2 l100 -34 6 -204 c4 -112 6
-205 5 -206 0 0 -61 93 -134 208 l-133 208 22 31 c13 16 25 30 29 30 3 0 51
-15 105 -33z m3667 -104 c-39 -43 -131 -140 -204 -217 l-133 -139 -119 137
c-65 76 -117 139 -115 140 5 5 610 154 628 155 7 1 -19 -34 -57 -76z m-3702
-161 l145 -227 8 -140 c8 -129 7 -141 -9 -150 -10 -5 -27 -19 -39 -30 l-21
-20 -130 41 -129 41 -7 174 c-20 557 -21 519 4 529 13 5 25 9 28 9 3 0 70
-102 150 -227z m-2450 213 c0 -18 -34 -84 -41 -79 -22 13 2 84 28 84 7 0 13
-2 13 -5z m3322 -231 c387 -131 706 -240 710 -243 6 -5 -1142 -290 -1186 -295
-14 -2 -215 316 -220 349 -7 41 -16 425 -10 425 2 0 320 -106 706 -236z m4003
4 c88 -126 161 -235 163 -242 3 -11 -764 -164 -774 -154 -2 3 -2 50 2 104 l6
99 217 212 c119 117 218 212 221 212 3 0 77 -104 165 -231z m-6699 32 c313
-101 570 -184 572 -185 1 -1 -164 -96 -369 -210 -311 -174 -373 -205 -384
-194 -7 8 -113 160 -235 337 -172 251 -220 329 -216 346 13 52 38 98 50 93 7
-3 269 -87 582 -187z m-699 84 l2 -39 -14 35 c-17 45 -18 53 -2 48 6 -3 13
-22 14 -44z m15656 -39 l19 -44 -364 -414 c-200 -228 -367 -415 -373 -416 -8
-2 -239 848 -232 855 2 2 829 59 907 63 21 1 28 -7 43 -44z m-10050 -17 c-2
-13 -19 -128 -38 -257 -19 -129 -36 -236 -38 -238 -2 -2 -27 2 -56 8 -64 13
-140 -1 -195 -37 -38 -25 -38 -26 -60 -6 -11 11 -84 76 -161 146 -137 124
-140 128 -151 181 -11 53 -10 56 10 61 11 2 165 40 341 84 176 43 327 79 336
79 11 1 15 -6 12 -21z m-5347 -290 c114 -167 215 -315 226 -330 l18 -26 -117
-66 c-65 -35 -118 -64 -119 -63 -13 13 -223 667 -228 709 -7 50 -3 78 9 78 2
0 97 -136 211 -302z m5498 161 l116 -131 -132 -139 c-189 -199 -195 -194 -149
122 36 245 42 279 47 279 2 0 55 -59 118 -131z m9021 -264 c53 -203 105 -400
115 -437 l18 -67 -235 -269 -236 -269 -43 16 c-39 14 -44 20 -44 46 0 16 -14
324 -30 684 -16 360 -28 657 -26 659 11 10 371 27 377 17 4 -5 50 -176 104
-380z m-5565 336 c0 -15 11 -45 25 -65 14 -20 25 -39 25 -42 0 -5 -643 -949
-781 -1146 l-47 -68 -271 547 c-149 300 -269 548 -267 551 6 5 1269 250 1299
251 12 1 17 -7 17 -28z m5051 27 c1 -2 16 -311 33 -688 31 -662 31 -706 3
-697 -16 5 -1085 1312 -1075 1316 17 6 1037 73 1039 69z m1493 -50 c-1 -7
-124 -368 -274 -801 l-273 -788 -31 7 c-17 3 -34 9 -38 13 -8 8 -199 732 -196
743 2 5 172 201 378 436 l375 428 30 -12 c17 -7 30 -19 29 -26z m-5799 1 c149
-6 275 -12 282 -14 7 -2 24 -27 38 -55 l26 -51 -21 -26 c-11 -14 -20 -37 -21
-52 0 -19 -20 -44 -79 -96 -43 -38 -84 -70 -92 -70 -19 0 -578 365 -578 378 0
6 31 7 88 3 48 -3 209 -11 357 -17z m5995 -806 c60 -447 110 -820 109 -830 0
-10 -13 -28 -29 -41 -30 -24 -37 -24 -197 3 l-33 6 0 839 c0 791 1 839 18 842
9 2 18 1 19 -2 1 -3 52 -370 113 -817z m-3000 808 c0 -10 -86 -19 -255 -25
l-130 -5 170 18 c212 23 215 23 215 12z m-12909 -411 c17 -216 26 -396 22
-400 -16 -16 -496 -280 -500 -276 -2 2 86 224 196 492 240 587 240 588 247
581 3 -3 19 -182 35 -397z m10294 363 c-10 -44 -20 -46 -38 -8 l-17 35 31 0
c29 0 31 -2 24 -27z m213 12 c2 -2 -18 -35 -45 -74 l-49 -69 -28 34 c-17 22
-35 34 -51 34 -28 0 -30 11 -14 60 l12 33 85 -7 c47 -3 88 -8 90 -11z m3176
-652 c295 -359 536 -656 536 -661 0 -5 -9 -17 -19 -26 -18 -17 -43 -3 -618
344 -329 199 -601 364 -605 368 -3 4 7 129 23 277 15 149 28 277 29 285 0 9
15 21 34 28 18 7 41 21 51 32 10 11 22 17 25 13 4 -5 249 -301 544 -660z
m-3933 475 l280 -183 -83 -77 c-46 -42 -85 -77 -88 -77 -3 0 -99 108 -213 240
-163 187 -207 244 -202 259 4 11 11 20 17 20 5 0 136 -82 289 -182z m1364 157
c209 -9 398 -19 420 -23 28 -5 -133 -23 -522 -57 -310 -28 -563 -48 -563 -44
0 3 23 39 51 79 l51 73 92 -6 c50 -4 262 -14 471 -22z m1383 18 c-16 -2 -40
-2 -55 0 -16 2 -3 4 27 4 30 0 43 -2 28 -4z m456 -18 c17 -13 10 -26 -120
-216 -77 -111 -144 -203 -149 -205 -6 -3 -114 58 -240 134 -179 108 -230 143
-228 158 8 85 16 104 42 105 14 0 136 9 271 18 316 23 400 24 424 6z m2774
-1207 l-3 -404 -257 36 c-141 19 -259 38 -263 42 -4 3 112 348 257 766 l263
759 3 -398 c1 -218 1 -579 0 -801z m-10898 1175 c0 -5 3 -19 7 -32 l6 -25 -31
23 c-18 12 -30 27 -27 32 7 11 45 12 45 2z m4814 -664 c-107 -100 -196 -180
-198 -178 -4 5 -87 775 -86 801 0 10 12 24 27 31 l27 14 213 -243 213 -244
-196 -181z m3333 394 c-16 -153 -30 -280 -32 -282 -3 -2 -214 119 -234 135 -4
4 282 423 289 424 3 0 -7 -125 -23 -277z m-11617 233 c0 -19 -4 -22 -25 -18
-30 5 -31 10 -7 28 25 19 32 17 32 -10z m3438 -24 l53 -47 24 -139 c14 -77 23
-141 22 -142 -5 -5 -682 227 -691 237 -6 5 -8 9 -5 9 2 1 119 30 259 65 140
35 262 64 270 64 8 0 39 -21 68 -47z m4529 34 c2 -2 93 -826 93 -840 0 -3
-174 -165 -386 -360 l-385 -356 -25 30 c-14 16 -40 34 -58 41 -29 11 -41 27
-97 140 l-63 128 114 169 c63 92 252 369 420 614 l305 447 40 -6 c22 -3 41 -6
42 -7z m2427 -25 c3 -22 22 -60 42 -86 19 -26 34 -51 32 -55 -2 -5 -138 -198
-303 -430 -201 -281 -305 -419 -315 -417 -8 2 -162 100 -341 217 l-326 213
-87 202 -87 202 26 39 26 39 612 56 c337 31 635 57 663 58 l51 1 7 -39z
m-10440 -23 c22 -6 43 -13 46 -15 5 -5 90 -1766 85 -1771 -1 -1 -215 307 -475
685 -260 378 -468 689 -464 690 5 2 176 97 379 212 204 115 374 209 379 210 5
1 27 -4 50 -11z m-1116 -553 c-2 -1 -33 -19 -70 -39 -50 -28 -69 -34 -72 -24
-4 11 -17 187 -42 553 -4 67 0 59 91 -209 52 -154 94 -280 93 -281z m1639 385
c240 -76 437 -140 438 -142 5 -6 58 -1759 53 -1764 -3 -2 -117 -63 -254 -134
-196 -103 -251 -127 -260 -117 -7 6 -84 117 -172 246 -145 211 -161 238 -166
285 -3 28 -21 402 -41 831 -19 429 -38 815 -41 858 -3 42 -3 77 1 77 4 0 203
-63 442 -140z m4882 37 c-4 -48 -9 -90 -11 -92 -5 -5 -194 -45 -212 -45 -6 0
43 51 109 114 66 62 120 113 121 112 0 0 -3 -41 -7 -89z m-734 -67 c69 -79
123 -146 118 -147 -4 -1 -109 -21 -232 -44 -152 -28 -226 -38 -229 -31 -2 6
-16 30 -32 54 l-29 43 57 60 c152 160 207 215 214 213 3 -2 63 -68 133 -148z
m2114 -404 c211 -427 271 -559 266 -576 -6 -19 -9 -20 -20 -9 -25 26 -766
1092 -762 1096 6 6 188 41 217 42 23 1 44 -38 299 -553z m4365 379 c109 -66
198 -124 198 -128 -1 -9 -512 -752 -513 -746 0 2 -11 218 -24 479 l-23 475 46
42 47 41 35 -21 c19 -12 125 -76 234 -142z m-7422 17 l137 -124 -22 -32 c-12
-17 -22 -32 -23 -33 -1 -5 -189 60 -198 68 -14 12 -55 260 -42 252 6 -4 73
-63 148 -131z m-852 90 c21 -25 445 -745 443 -750 -3 -9 -432 -232 -447 -232
-7 0 -285 130 -617 289 l-603 288 -39 62 c-22 34 -37 65 -34 68 4 3 275 72
604 154 621 153 661 160 693 121z m6050 18 c0 -13 54 -40 82 -40 21 0 32 -20
101 -182 42 -99 76 -182 75 -183 -2 -1 -91 56 -198 127 -107 70 -202 133 -210
138 -12 8 -1 23 60 80 74 69 90 79 90 60z m-7422 -241 l22 -36 -46 -10 c-43
-10 -45 -9 -59 17 -8 15 -28 33 -45 40 l-30 12 0 112 0 111 68 -105 c37 -58
78 -121 90 -141z m5122 -320 c216 -308 390 -565 387 -572 -9 -23 -497 -732
-506 -735 -5 -2 -124 67 -265 153 -170 105 -271 173 -300 204 -24 25 -164 183
-311 351 l-266 305 5 45 c3 25 15 179 27 343 13 163 26 302 29 307 5 8 744
157 792 159 11 1 147 -186 408 -560z m-3354 418 l321 -108 27 -152 c14 -84 27
-162 29 -175 2 -19 -18 -33 -150 -101 l-151 -79 -110 186 c-61 103 -158 267
-216 365 -74 125 -101 177 -88 175 9 -2 161 -52 338 -111z m7300 100 c21 -12
19 -20 -140 -539 -88 -291 -163 -528 -166 -528 -11 0 -315 201 -324 214 -7 9
77 134 295 439 167 234 306 426 309 426 3 0 14 -5 26 -12z m194 -54 c0 -27 9
-228 20 -448 11 -220 20 -423 20 -451 0 -48 -6 -58 -97 -192 -54 -78 -103
-141 -109 -140 -21 6 -304 193 -304 203 0 5 68 232 151 505 83 272 156 510
161 528 9 31 12 34 41 28 18 -3 48 -1 67 3 19 5 38 9 43 10 4 1 7 -20 7 -46z
m-1776 -216 l220 -143 184 -427 c131 -304 182 -434 178 -450 -3 -12 -16 -34
-29 -49 l-23 -28 -474 545 c-261 300 -475 548 -475 552 0 5 37 43 83 86 67 62
86 75 100 67 9 -5 116 -74 236 -153z m-3598 101 c-3 -29 -15 -177 -27 -328
-12 -151 -23 -277 -24 -278 -4 -4 -23 16 -229 252 l-157 180 90 90 89 89 114
23 c162 32 151 34 144 -28z m-4263 -52 c104 -33 117 -39 117 -59 0 -12 7 -32
15 -44 8 -12 11 -23 7 -25 -5 -2 -37 -343 -71 -758 -35 -415 -65 -758 -68
-763 -2 -4 -22 -16 -43 -27 l-38 -19 -6 112 c-3 62 -15 418 -26 792 -11 374
-22 715 -24 758 -3 57 -1 77 7 74 7 -2 65 -21 130 -41z m3882 -26 c-38 -38
-72 -70 -75 -70 -9 0 -82 91 -77 96 5 5 181 42 207 43 8 1 -17 -30 -55 -69z
m-1211 -133 l0 -100 -58 -29 c-32 -16 -60 -28 -61 -26 -5 5 -55 281 -55 302 0
13 15 10 88 -16 l87 -31 -1 -100z m1070 97 l48 -55 -28 -31 c-16 -16 -90 -88
-166 -159 l-136 -130 -136 83 c-102 62 -134 87 -129 98 3 8 8 47 11 87 l4 72
52 11 c164 34 394 78 411 79 12 0 38 -20 69 -55z m6638 -15 c103 -63 118 -75
118 -98 -1 -42 -148 -1452 -152 -1457 -4 -3 -595 378 -609 394 -4 4 -12 107
-18 229 l-12 223 268 389 c147 215 272 390 277 391 5 0 63 -32 128 -71z
m-9939 -1 c14 -24 24 -44 23 -46 -4 -4 -136 56 -136 62 0 5 55 23 76 25 7 1
23 -18 37 -41z m-1914 -705 l482 -703 12 -261 12 -261 -24 -9 c-13 -5 -36 -19
-52 -30 l-28 -20 -328 213 -328 213 -237 705 c-130 388 -237 713 -237 722 -1
18 229 152 240 140 3 -4 223 -323 488 -709z m9371 162 c244 -280 451 -519 461
-530 16 -19 11 -29 -197 -320 -118 -164 -217 -301 -219 -303 -6 -7 -800 229
-811 241 -14 15 -129 1086 -117 1098 4 4 96 89 203 188 l195 180 21 -22 c12
-12 221 -251 464 -532z m-7486 488 l93 -46 284 -445 c156 -245 285 -450 287
-456 2 -9 -1038 -561 -1043 -553 -1 1 27 333 61 737 35 404 63 740 63 745 1 6
22 9 50 7 43 -3 50 -1 72 27 13 16 27 30 31 30 4 1 50 -20 102 -46z m3601
-239 l198 -227 -10 -134 c-6 -73 -13 -136 -16 -139 -3 -3 -162 90 -353 207
l-347 213 156 153 c85 84 160 153 164 153 5 0 99 -102 208 -226z m7486 -381
l226 -136 -8 -38 c-7 -27 -5 -51 6 -81 8 -24 11 -46 7 -49 -156 -143 -599
-520 -615 -524 -82 -20 -625 -125 -644 -125 -40 0 -93 41 -93 72 0 30 137
1371 146 1430 l5 36 372 -224 c205 -124 474 -286 598 -361z m-10371 277 c310
-148 567 -273 572 -278 7 -7 -575 -319 -590 -316 -5 1 -552 854 -552 861 0 6
15 -1 570 -267z m-3122 -448 c127 -381 225 -689 219 -685 -15 9 -531 345 -534
347 -2 2 -73 927 -73 951 0 15 142 97 151 87 4 -4 110 -319 237 -700z m10457
483 c160 -104 292 -190 293 -191 7 -5 -273 -393 -281 -391 -8 2 -347 779 -347
793 0 4 10 0 23 -8 12 -8 153 -99 312 -203z m-5755 144 c0 -5 -29 -48 -64 -95
-71 -94 -64 -95 -82 8 l-6 37 69 34 c65 34 83 37 83 16z m589 -70 c64 -40 122
-77 129 -83 9 -9 2 -22 -36 -59 l-48 -48 -85 93 c-116 128 -112 123 -99 147 6
12 13 21 16 21 4 0 59 -32 123 -71z m-5669 -422 c18 -241 30 -440 27 -443 -2
-3 -128 75 -278 173 l-274 179 3 66 c4 64 3 67 -34 108 -61 67 -59 69 246 240
220 123 266 145 272 131 3 -9 21 -213 38 -454z m5148 421 c27 -18 56 -37 65
-43 14 -9 7 -47 -65 -347 -45 -186 -83 -336 -84 -335 -2 1 -26 132 -55 290
l-51 287 67 90 c37 49 68 90 70 90 2 0 25 -15 53 -32z m9757 -336 c48 -183 85
-335 82 -339 -5 -4 -485 57 -569 73 -18 4 -28 12 -28 23 0 9 -9 34 -20 56 -16
31 -17 41 -7 54 6 9 108 126 226 260 177 201 216 241 222 225 3 -11 46 -169
94 -352z m-9296 221 c46 -51 80 -96 77 -101 -3 -6 -37 -37 -74 -70 l-69 -61
-38 164 c-33 139 -36 166 -25 180 12 15 15 15 30 -2 9 -10 54 -59 99 -110z
m-691 47 l12 -71 -90 -119 c-50 -66 -93 -120 -95 -120 -11 0 -135 224 -128
231 9 9 275 149 283 149 3 0 11 -32 18 -70z m567 -144 l36 -159 -123 -124
c-68 -68 -125 -118 -127 -112 -2 7 4 133 14 280 l18 269 26 1 c14 0 44 6 66
13 28 8 42 9 46 2 4 -6 23 -83 44 -170z m-209 112 c-3 -24 -13 -155 -22 -293
l-16 -250 -66 -67 c-37 -38 -70 -68 -74 -68 -15 0 -8 36 74 378 57 236 87 342
96 342 10 0 12 -11 8 -42z m921 -224 c186 -113 343 -211 350 -218 9 -8 7 -66
-8 -251 -10 -132 -20 -250 -21 -262 -2 -17 -89 73 -397 414 l-394 436 54 48
c30 27 60 46 66 44 7 -2 165 -97 350 -211z m3215 -306 c31 -288 54 -525 53
-526 -3 -3 -863 246 -875 253 -3 2 -3 27 0 55 l5 51 374 345 c206 189 377 344
380 344 4 0 32 -235 63 -522z m-4754 342 l70 -120 -60 -77 c-33 -43 -66 -86
-73 -96 -11 -16 -28 -10 -229 87 l-217 104 128 68 c70 37 164 86 208 110 44
24 85 44 91 44 6 0 43 -54 82 -120z m327 -154 c25 -142 45 -259 43 -260 -2 -2
-25 -1 -51 2 l-48 4 -85 144 -85 144 87 115 c48 63 89 114 90 112 1 -1 23
-118 49 -261z m1107 -209 c204 -227 382 -424 396 -439 l25 -27 -17 -228 c-9
-125 -19 -240 -22 -255 l-6 -28 -346 177 c-191 97 -351 180 -356 184 -5 5 -55
205 -112 446 l-103 438 76 77 c42 42 80 75 85 72 5 -3 176 -191 380 -417z
m784 85 c139 -158 250 -288 249 -290 -2 -2 -123 70 -270 160 l-267 163 7 115
c7 120 12 156 23 145 4 -4 120 -136 258 -293z m4462 164 c89 -58 162 -109 162
-113 1 -21 -245 -813 -252 -811 -4 2 -57 59 -117 128 l-110 125 -81 185 c-44
101 -79 189 -76 196 4 11 209 299 264 372 14 18 30 31 36 29 7 -3 85 -52 174
-111z m-6996 -108 c119 -57 217 -107 218 -111 0 -8 -597 -804 -609 -811 -7 -5
-446 680 -446 696 0 10 588 326 610 328 6 0 108 -46 227 -102z m1288 -321 c49
-213 90 -395 90 -403 0 -11 -70 20 -237 106 -131 67 -240 124 -241 125 -2 2 1
79 7 172 l11 168 133 127 c108 104 133 124 139 110 4 -9 48 -192 98 -405z
m-805 261 c72 -123 76 -132 59 -145 -10 -7 -21 -13 -25 -13 -4 0 -57 24 -118
54 -60 30 -115 56 -122 58 -8 3 12 37 52 91 35 47 67 86 70 87 3 0 41 -59 84
-132z m7244 -190 l1 -87 -95 61 c-52 34 -95 65 -95 70 0 5 39 66 88 136 l87
127 6 -110 c4 -60 7 -149 8 -197z m-3720 245 c33 -67 52 -113 47 -113 -12 0
-96 134 -92 146 9 24 21 15 45 -33z m37 -187 c-88 -53 -120 -135 -81 -210 l16
-30 -158 -151 c-87 -83 -181 -172 -209 -198 l-52 -48 -61 38 c-33 21 -61 41
-61 45 0 4 40 64 88 135 48 70 161 235 251 366 l163 238 61 -87 c55 -80 59
-89 43 -98z m3295 77 c87 -57 147 -103 144 -110 -2 -7 -111 -168 -242 -358
l-238 -345 -36 38 -37 39 127 416 c69 229 127 417 129 417 2 0 70 -44 153 -97z
m-11925 -102 l279 -181 11 -132 c6 -73 10 -134 9 -136 -1 -1 -100 103 -221
230 -120 128 -257 273 -304 322 -47 49 -78 87 -69 84 9 -4 141 -87 295 -187z
m-85 -88 c134 -142 276 -292 316 -334 l73 -75 50 -662 c27 -364 50 -664 50
-666 0 -3 -13 -7 -29 -11 -53 -11 -101 -79 -101 -142 0 -117 139 -192 231
-124 l27 20 349 -276 c191 -151 351 -279 356 -282 5 -6 -393 -1562 -469 -1828
-14 -51 -34 -71 -34 -35 0 14 -1089 4580 -1106 4633 -2 10 4 20 18 27 13 6 24
11 24 11 1 1 111 -115 245 -256z m7212 71 c150 -92 285 -176 300 -187 35 -24
437 -481 437 -496 0 -8 -244 -374 -270 -403 -3 -5 -24 1 -45 13 -28 14 -54 19
-87 17 l-46 -3 -304 336 c-167 184 -309 342 -315 351 -10 12 -9 63 7 259 11
134 20 254 20 267 0 18 4 23 15 18 9 -3 138 -81 288 -172z m7822 75 c159 -22
293 -43 296 -47 4 -4 14 -37 24 -73 l17 -66 -123 -356 c-68 -196 -126 -357
-129 -357 -6 1 -278 500 -282 519 -4 18 65 36 71 18 21 -59 118 -78 162 -31
35 37 33 98 -4 130 -33 28 -91 32 -126 8 -12 -9 -26 -12 -30 -8 -16 19 -187
230 -200 246 -16 21 -5 58 17 58 9 0 147 -18 307 -41z m-9981 -24 c64 -31 116
-57 116 -59 0 -2 -7 -21 -16 -42 -11 -25 -14 -51 -9 -80 l6 -42 -401 -241
c-220 -132 -397 -234 -393 -227 26 46 560 745 569 746 6 0 63 -25 128 -55z
m502 -122 c-4 -65 -9 -130 -12 -145 l-5 -28 -60 30 c-52 27 -58 33 -49 50 5
10 10 36 10 57 0 32 8 45 57 95 32 32 59 58 61 58 3 0 1 -53 -2 -117z m9238
-14 c60 -73 109 -139 110 -148 1 -18 -79 -40 -94 -25 -4 5 -42 71 -83 146 -53
97 -72 139 -64 147 6 6 14 11 17 11 3 0 55 -59 114 -131z m-296 104 c15 -9 28
-18 30 -19 3 -2 -39 -327 -42 -331 -4 -5 -580 -122 -583 -119 -5 4 549 486
559 486 5 0 21 -8 36 -17z m908 -25 c-10 -49 -21 -52 -33 -8 -10 39 -9 40 15
40 22 0 24 -3 18 -32z m-4178 -104 c29 -69 52 -127 50 -129 -3 -3 -138 150
-151 172 -8 13 27 83 41 83 4 0 31 -57 60 -126z m3477 -18 c42 -76 74 -141 71
-144 -9 -9 -248 -54 -254 -48 -3 4 2 66 12 139 25 194 22 185 59 189 18 2 33
3 34 3 1 -1 36 -63 78 -139z m1018 108 l267 -37 0 -1135 c0 -625 -2 -1133 -5
-1130 -3 3 -136 501 -295 1107 l-290 1102 22 65 c13 35 25 64 28 64 3 0 125
-16 273 -36z m-11694 -336 c211 -332 223 -352 205 -365 -11 -8 -262 -160 -559
-338 l-540 -324 -225 56 c-124 31 -228 59 -232 62 -5 5 48 701 55 707 8 8
1054 553 1062 553 6 1 111 -157 234 -351z m8275 283 l103 -69 6 -134 c4 -73
10 -209 13 -303 l7 -170 -294 -58 c-162 -32 -301 -57 -309 -57 -17 1 -136 138
-132 152 6 21 485 708 493 708 5 0 56 -31 113 -69z m3856 -8 c54 -5 58 -8 64
-35 3 -16 17 -39 32 -53 l26 -24 -126 -1003 c-70 -552 -128 -1007 -131 -1013
-2 -5 -4 475 -4 1069 l-1 1079 41 -7 c22 -4 67 -9 99 -13z m-4955 -120 c55
-63 108 -128 118 -144 19 -29 197 -437 197 -451 0 -4 -15 -14 -33 -22 -19 -7
-45 -27 -58 -43 l-24 -30 -315 93 c-173 51 -338 100 -367 109 l-52 16 211 294
c116 162 214 295 217 294 3 0 51 -52 106 -116z m1530 -153 c154 -100 288 -189
297 -199 18 -17 15 -67 -6 -74 -30 -10 -556 -111 -560 -107 -2 3 -9 109 -15
235 -6 127 -13 254 -15 283 -4 40 -2 52 8 49 6 -3 138 -87 291 -187z m2941
-913 c151 -576 274 -1052 272 -1057 -2 -5 -184 322 -406 726 l-403 734 121
346 c66 191 120 349 121 353 1 11 18 -49 295 -1102z m-15006 905 c140 -90 262
-172 271 -181 16 -16 266 -738 258 -745 -2 -3 -180 182 -395 410 l-391 414 -7
122 c-4 68 -10 131 -13 142 -4 14 -2 16 8 10 8 -4 129 -82 269 -172z m4537
140 l31 -27 -48 -240 c-26 -132 -91 -464 -145 -737 -54 -274 -101 -498 -105
-498 -11 0 -635 981 -635 999 0 12 847 532 865 531 3 -1 19 -13 37 -28z m4177
-101 c224 -66 411 -122 413 -125 7 -7 44 -346 41 -368 -2 -14 -107 55 -438
288 -239 168 -442 312 -450 321 -13 13 -13 15 5 9 11 -3 204 -59 429 -125z
m-3845 11 c-2 -92 -9 -92 -77 1 -34 47 -62 90 -62 96 0 6 32 -5 70 -24 68 -34
70 -36 69 -73z m3378 90 c18 -15 773 -1087 773 -1098 0 -3 -19 -29 -41 -59
l-41 -55 -39 22 c-21 12 -82 49 -134 82 l-97 61 -233 524 c-129 288 -232 528
-229 532 8 13 16 11 41 -9z m-166 -34 c7 -3 141 -729 136 -735 -3 -2 -613 370
-623 380 -2 2 87 92 200 200 l204 196 37 -19 c21 -11 41 -21 46 -22z m-3321
-55 c30 -42 65 -90 77 -107 l22 -31 -43 -613 c-24 -337 -45 -614 -47 -616 -2
-2 -73 -22 -158 -44 l-155 -41 -27 20 c-15 10 -41 22 -58 25 -17 4 -31 8 -31
11 0 2 79 331 175 731 96 400 175 730 175 734 0 21 20 1 70 -69z m3631 -398
c269 -601 243 -538 216 -524 -44 24 -332 202 -345 214 -7 6 -42 175 -81 388
l-67 377 25 9 c14 5 30 9 34 8 4 -1 103 -214 218 -472z m-3733 441 c-46 -199
-334 -1383 -336 -1381 -2 1 58 313 132 692 75 379 136 692 136 696 0 4 16 7
36 7 25 0 35 -4 32 -14z m2519 -122 c117 -71 213 -132 213 -136 0 -11 -80
-123 -89 -123 -4 0 -74 77 -156 170 -81 94 -160 183 -174 199 -33 37 -45 43
206 -110z m-2022 -27 l240 -123 37 -159 c21 -88 66 -284 102 -435 52 -224 61
-271 45 -251 -11 13 -170 230 -354 482 l-335 458 0 69 c0 64 4 82 19 82 3 0
114 -56 246 -123z m3611 -168 c228 -160 414 -295 414 -301 0 -17 30 -293 35
-325 5 -29 3 -32 -27 -38 -18 -4 -57 -19 -86 -32 -30 -14 -57 -21 -62 -17 -4
5 -155 221 -335 479 -180 259 -336 482 -347 498 -11 15 -17 27 -13 27 3 0 193
-131 421 -291z m5521 -3 l153 -279 -141 -406 c-77 -223 -142 -407 -144 -409
-2 -2 -441 281 -452 292 -3 3 136 1029 140 1033 9 8 235 51 262 50 28 -2 37
-16 182 -281z m-477 215 c0 -5 -29 -226 -65 -490 -36 -265 -65 -486 -65 -491
0 -6 -4 -10 -10 -10 -10 0 -816 523 -838 544 -13 13 -11 15 317 301 32 28 58
35 335 92 335 68 326 67 326 54z m-7314 -356 c153 -171 285 -318 292 -327 12
-15 10 -22 -11 -50 -13 -18 -27 -41 -30 -50 -4 -10 -14 -18 -23 -18 -13 0
-546 261 -563 276 -4 3 27 411 35 463 3 18 9 30 13 25 4 -5 133 -149 287 -319z
m-5268 84 c78 -114 144 -214 148 -222 4 -12 -14 -26 -76 -57 l-82 -41 -23 21
c-13 12 -40 28 -62 35 l-38 13 -6 99 c-16 244 -20 377 -11 368 5 -5 73 -103
150 -216z m9587 121 l88 -101 -18 -60 c-10 -33 -22 -56 -26 -52 -4 4 -31 62
-59 128 -76 177 -79 185 -76 185 2 0 43 -45 91 -100z m-1241 -51 c203 -60 371
-111 374 -114 2 -2 -67 -104 -154 -226 -88 -122 -162 -226 -165 -231 -6 -9
-394 256 -416 284 -6 7 -18 81 -27 163 -9 83 -19 172 -22 199 -6 47 -5 48 17
41 12 -4 189 -56 393 -116z m-4321 -412 c188 -257 341 -471 339 -475 -3 -7
-785 -213 -790 -207 -1 1 15 260 38 574 22 314 40 582 40 594 1 27 -48 90 373
-486z m7862 475 c-6 -5 -81 -71 -168 -146 l-157 -138 -130 83 c-71 46 -129 86
-129 89 -1 6 538 117 574 119 11 1 15 -3 10 -7z m-12896 -497 l340 -360 71
-209 c38 -115 68 -211 66 -213 -2 -3 -170 -18 -372 -34 l-369 -30 -36 21 c-20
11 -44 20 -53 20 -8 0 -18 10 -20 23 -3 12 -23 274 -46 582 -22 308 -43 589
-46 625 l-6 65 65 -65 c36 -36 219 -227 406 -425z m7263 433 c29 -17 55 -33
57 -35 6 -5 -65 -78 -113 -116 l-39 -31 -32 39 -33 38 46 69 c25 37 49 68 53
68 5 0 32 -14 61 -32z m-1703 -158 c187 -93 342 -174 345 -179 8 -12 -24 -413
-33 -423 -12 -12 -444 -119 -452 -111 -4 4 -50 195 -104 423 -53 228 -99 425
-102 438 -3 12 -2 22 1 22 3 0 159 -76 345 -170z m-5109 -63 c151 -99 276
-180 277 -181 1 -1 -2 -17 -6 -37 -14 -61 -2 -98 46 -147 l45 -45 -62 -236
c-34 -130 -64 -238 -66 -241 -3 -2 -58 52 -122 120 -222 236 -185 168 -328
591 -70 206 -129 380 -132 388 -7 18 -1 15 348 -212z m1335 -119 c-14 -172
-27 -320 -28 -328 -4 -17 -14 183 -23 447 l-6 181 38 20 c31 16 40 17 42 7 2
-8 -8 -155 -23 -327z m10445 306 c0 -2 -11 -4 -25 -4 -18 0 -25 5 -25 20 0 20
1 20 25 4 14 -9 25 -18 25 -20z m-10516 -356 l8 -286 -160 40 -160 40 -97 140
c-53 77 -94 142 -92 144 2 3 112 60 243 129 228 119 239 123 245 102 3 -13 9
-152 13 -309z m5962 136 c175 -107 322 -198 326 -202 7 -7 121 -633 116 -638
-2 -1 -35 -4 -73 -5 l-70 -3 -394 449 -394 449 76 73 c42 40 80 73 85 73 5 0
152 -88 328 -196z m4730 110 c74 -48 134 -90 134 -94 0 -10 -412 -372 -417
-366 -2 2 8 113 22 246 14 133 25 251 25 261 0 11 10 24 23 29 51 21 78 11
213 -76z m-1659 -26 c-10 -18 -26 -43 -35 -56 -15 -20 -20 -21 -36 -9 -17 13
-17 16 4 87 l22 73 31 -32 32 -31 -18 -32z m1397 60 c-2 -18 -16 -145 -30
-283 -14 -137 -28 -253 -32 -256 -4 -3 -95 -83 -203 -177 -186 -162 -199 -172
-229 -166 -17 4 -34 12 -36 18 -8 21 -42 771 -35 778 6 6 521 115 553 117 13
1 16 -6 12 -31z m-1943 -138 l317 -93 6 -35 c3 -20 4 -37 3 -37 -1 -1 -195
-81 -430 -178 l-428 -176 -114 80 c-63 45 -117 85 -120 90 -4 5 69 114 162
243 l168 233 60 -17 c33 -10 202 -59 376 -110z m-3055 41 c-10 -16 -329 -316
-320 -300 5 8 65 97 134 198 l125 182 33 -36 c18 -19 31 -39 28 -44z m-3442
-461 l315 -493 -26 -38 c-14 -22 -26 -39 -27 -39 -320 79 -1149 290 -1153 294
-6 5 569 777 575 772 1 -2 144 -225 316 -496z m7190 369 c-2 -4 -23 -9 -46
-13 -24 -4 -52 -9 -64 -12 -16 -4 -26 3 -43 31 l-21 36 32 45 32 45 57 -63
c31 -35 55 -66 53 -69z m-7840 -266 c-152 -202 -278 -369 -279 -371 -3 -3
-443 105 -468 116 -14 6 106 82 500 319 285 171 519 310 521 308 2 -2 -121
-169 -274 -372z m8496 315 c0 -29 7 -183 15 -343 8 -159 15 -314 15 -342 0
-99 -16 -85 -329 276 -157 180 -284 332 -283 337 1 7 518 119 570 123 8 1 12
-16 12 -51z m-3995 -412 c206 -236 375 -432 375 -436 0 -4 -93 -10 -207 -14
l-208 -7 -360 182 c-198 100 -364 185 -368 189 -4 4 2 23 13 43 17 28 21 49
18 91 l-3 54 175 166 c96 91 178 165 182 164 4 -2 176 -196 383 -432z m5457
122 c238 -155 435 -282 437 -284 4 -3 -84 -663 -90 -668 -5 -5 -1288 270
-1296 278 -3 3 6 128 21 278 22 213 32 277 45 290 32 35 436 387 443 387 4 1
202 -126 440 -281z m-11746 95 c44 -65 83 -123 87 -129 4 -6 -69 7 -161 30
l-167 42 -6 40 c-4 21 -5 42 -2 47 4 7 152 85 163 87 3 0 42 -53 86 -117z
m7927 -18 c102 -71 187 -134 187 -139 0 -6 -64 -103 -96 -145 -2 -2 -15 6 -31
17 -45 32 -104 53 -168 60 l-60 7 -17 140 c-19 164 -21 198 -10 193 5 -1 92
-61 195 -133z m2025 -200 c161 -184 292 -339 292 -344 0 -5 -7 -15 -17 -22 -9
-8 -22 -29 -30 -48 l-14 -33 -142 7 c-78 4 -145 10 -149 14 -4 4 -98 159 -208
346 -229 387 -227 381 -129 401 107 23 76 47 397 -321z m3422 -393 c316 -576
389 -716 379 -728 -6 -8 -16 -14 -21 -14 -10 0 -1000 642 -1025 664 -10 9 17
98 125 408 75 218 140 394 144 390 4 -4 183 -328 398 -720z m-8439 572 c138
-69 250 -127 248 -129 -6 -5 -516 -135 -531 -135 -11 0 -11 34 1 195 8 107 18
195 23 195 4 0 121 -57 259 -126z m4733 -284 c184 -312 186 -315 159 -318 -33
-3 -663 35 -669 41 -2 2 39 132 91 288 l95 285 37 1 c19 1 47 10 62 21 18 13
28 16 33 8 3 -6 90 -153 192 -326z m-363 317 c15 -11 7 -41 -80 -299 -53 -158
-99 -290 -102 -293 -4 -3 -82 -1 -175 6 -193 12 -159 -2 -383 157 -128 91
-134 96 -111 106 116 52 808 335 820 335 8 0 22 -5 31 -12z m-2341 -142 c96
-59 182 -114 191 -121 16 -15 175 -362 168 -368 -2 -2 -102 -6 -221 -10 -203
-7 -217 -6 -222 11 -6 20 -106 582 -106 596 0 4 3 6 8 4 4 -3 86 -53 182 -112z
m-7027 19 l182 -45 148 -216 149 -215 -21 -22 c-12 -12 -21 -30 -21 -39 0 -9
-3 -17 -8 -17 -4 0 -90 -7 -191 -15 -122 -11 -187 -13 -194 -6 -5 5 -74 130
-153 277 l-142 267 31 38 c18 21 33 39 35 39 1 0 84 -21 185 -46z m-133 -310
c78 -146 139 -268 135 -272 -3 -4 -104 -14 -223 -24 l-217 -17 -29 29 -29 29
62 238 c34 131 64 246 67 255 3 10 18 18 37 21 18 2 37 5 43 5 6 1 76 -118
154 -264z m8451 190 c60 -43 109 -80 109 -83 0 -8 -239 -105 -245 -99 -2 2
-22 28 -43 58 l-39 54 51 72 c28 40 53 73 54 74 2 0 53 -34 113 -76z m-7797
-29 c3 -11 6 -87 6 -168 0 -124 -2 -148 -14 -145 -12 2 -286 389 -286 402 0 2
65 -13 144 -32 121 -30 146 -40 150 -57z m4801 55 c4 -17 17 -43 30 -58 l23
-27 -210 -200 -210 -200 -141 -8 c-77 -4 -142 -6 -143 -4 -6 6 27 372 34 379
11 11 544 146 579 147 27 1 32 -3 38 -29z m5531 -294 c-14 -131 -27 -240 -30
-243 -2 -2 -63 8 -134 23 l-130 27 -7 36 c-4 20 -15 51 -26 70 -24 41 -45 16
181 215 123 107 166 140 168 127 2 -10 -8 -125 -22 -255z m-10053 188 c108
-27 197 -52 197 -56 0 -4 -88 -60 -195 -124 l-195 -117 -26 18 -27 17 7 122
c8 152 16 198 30 193 6 -2 100 -26 209 -53z m6610 -54 c82 -50 88 -56 82 -80
-4 -14 -9 -57 -12 -97 -4 -61 -8 -73 -25 -79 -11 -3 -24 -2 -30 4 -12 12 -148
311 -148 325 0 5 10 3 23 -5 12 -8 62 -39 110 -68z m-1748 -118 c63 -95 115
-176 115 -180 0 -5 -134 -12 -297 -16 -164 -3 -341 -9 -393 -12 l-95 -5 198
193 199 193 79 -1 80 0 114 -172z m513 -173 c-40 -4 -137 -7 -215 -8 l-143 -1
-110 165 c-60 90 -110 167 -110 170 0 3 146 -68 325 -158 l326 -162 -73 -6z
m-1508 299 c0 -57 -23 -334 -29 -340 -3 -4 -53 -8 -111 -9 l-105 -2 -97 129
c-53 71 -94 131 -91 134 6 7 393 108 416 109 11 1 17 -6 17 -21z m3951 -85
c128 -90 149 -109 129 -112 -24 -3 -337 13 -472 25 l-66 6 -7 36 c-4 21 -8 38
-8 40 -2 4 253 111 265 112 3 0 75 -48 159 -107z m-7318 6 c133 -33 243 -62
245 -64 2 -2 -31 -49 -73 -105 l-76 -101 -42 6 c-23 3 -190 19 -372 35 -181
17 -337 31 -345 33 -13 2 394 256 413 257 4 0 117 -27 250 -61z m-1835 -274
c-3 -30 -4 -30 -78 -37 -41 -5 -77 -5 -81 0 -7 7 -119 341 -119 354 0 4 63
-59 140 -140 123 -129 140 -151 138 -177z m13042 177 c113 -73 206 -139 208
-145 1 -7 -31 -109 -72 -227 -49 -144 -79 -214 -88 -213 -26 3 -363 75 -366
78 -4 4 77 621 84 643 2 8 9 10 16 6 7 -5 105 -68 218 -142z m-8282 -49 c17
-71 29 -129 28 -130 -7 -8 -872 -29 -880 -22 -5 5 -5 21 0 41 l9 32 390 102
c215 56 397 102 407 103 13 1 22 -25 46 -126z m-2045 -74 c450 -112 577 -147
577 -159 0 -12 -9 -15 -37 -12 -569 51 -1274 120 -1279 125 -9 8 138 198 151
194 5 -2 270 -69 588 -148z m2142 36 l65 -90 -46 -3 c-26 -2 -50 0 -54 5 -4 4
-15 42 -25 83 -9 41 -19 84 -22 95 -8 29 6 14 82 -90z m4196 50 c140 -8 268
-17 285 -19 17 -2 89 -45 170 -102 76 -54 140 -98 141 -99 7 -4 -141 -425
-149 -425 -6 0 -183 111 -395 247 -339 217 -384 249 -378 267 3 12 9 49 12 84
6 60 7 62 33 62 15 0 142 -7 281 -15z m651 -41 c3 -3 -5 -38 -19 -79 -16 -50
-29 -73 -36 -68 -15 9 -220 154 -227 160 -6 6 272 -8 282 -13z m430 -25 c183
-11 337 -24 342 -29 4 -4 43 -67 86 -140 l77 -132 -150 -146 c-82 -81 -155
-147 -161 -146 -9 1 -614 421 -638 443 -4 4 4 44 19 89 27 80 28 82 59 82 18
0 182 -9 366 -21z m-2179 -47 c11 -19 16 -37 11 -42 -18 -18 -427 -181 -434
-173 -6 6 -50 230 -46 234 2 2 388 16 421 15 22 -1 34 -9 48 -34z m68 6 c4
-16 6 -28 4 -28 -2 0 -10 -3 -18 -6 -10 -3 -18 5 -26 27 -14 42 -15 41 11 37
14 -2 24 -13 29 -30z m-6466 -18 c182 -17 336 -31 343 -33 7 -1 -60 -97 -149
-215 l-161 -213 -56 53 c-32 29 -132 125 -224 213 l-167 160 12 37 c10 33 14
36 42 32 16 -2 179 -18 360 -34z m9150 24 l71 -5 17 -47 16 -47 -72 -72 c-39
-40 -74 -73 -77 -73 -6 0 -150 243 -150 253 0 5 30 4 195 -9z m-3395 -16 c79
-83 190 -218 190 -229 0 -8 -11 -22 -24 -31 -22 -16 -30 -13 -302 125 l-279
142 150 5 c83 3 171 7 197 8 38 2 52 -3 68 -20z m160 -50 c6 -40 14 -82 16
-93 5 -20 -31 15 -117 118 l-41 47 65 0 65 0 12 -72z m-3590 32 c0 -17 -6 -33
-12 -35 -15 -5 -278 -11 -273 -7 6 6 249 71 268 71 12 1 17 -7 17 -29z m3260
-130 c295 -148 300 -151 300 -181 0 -17 5 -39 10 -49 11 -20 31 -13 -520 -188
l-155 -49 -201 301 -201 301 76 6 c42 3 147 6 234 7 l157 2 300 -150z m-6161
116 c13 -24 50 -46 75 -46 15 0 21 -90 31 -460 6 -209 5 -214 -60 -224 l-40
-6 -192 359 c-106 198 -193 364 -193 369 0 9 186 27 311 30 49 2 57 -1 68 -22z
m5561 -281 c112 -168 201 -307 198 -310 -2 -3 -139 -48 -303 -100 l-298 -94
-431 221 c-237 121 -434 223 -438 227 -4 3 -8 29 -10 56 l-3 50 119 115 118
115 352 11 c193 6 383 11 422 12 l71 2 203 -305z m7263 -30 c279 -181 507
-333 507 -337 0 -5 -8 -8 -17 -8 -17 0 -1154 241 -1161 246 -3 2 105 322 138
408 5 15 14 26 19 24 4 -2 236 -151 514 -333z m-13758 305 c3 -5 -1 -10 -10
-10 -9 0 -13 5 -10 10 3 6 8 10 10 10 2 0 7 -4 10 -10z m11194 -25 c63 -14
115 -26 116 -28 1 -1 -4 -56 -11 -122 -7 -66 -13 -129 -14 -140 -1 -15 -38 19
-140 125 l-138 145 14 27 c11 22 20 27 37 23 12 -3 73 -16 136 -30z m-10475
-347 c121 -227 194 -374 187 -376 -7 -2 -31 -19 -55 -37 l-42 -32 -368 389
c-203 214 -367 391 -365 393 5 4 337 32 399 33 l45 1 199 -371z m4671 354
c-11 -10 -61 -58 -112 -106 -78 -75 -96 -88 -116 -82 -27 6 -26 2 -11 154 l5
52 127 0 c122 0 126 -1 107 -18z m2641 -68 c-10 -27 -34 -14 -50 28 -14 32
-14 43 -5 49 16 10 63 -56 55 -77z m-5441 15 c358 -33 653 -64 657 -68 7 -6
-1368 -592 -1388 -591 -5 1 -74 63 -153 139 l-144 137 167 222 c130 173 171
222 189 222 12 0 315 -27 672 -61z m2381 -45 c72 -99 76 -107 63 -130 -13 -25
-14 -25 -104 -18 -49 3 -92 8 -93 9 -2 2 -16 55 -31 119 -19 78 -24 117 -17
120 6 2 32 5 58 5 l47 1 77 -106z m149 14 c-4 -51 -8 -94 -9 -94 0 -1 -10 -4
-21 -7 -16 -5 -32 11 -87 88 -38 51 -68 96 -68 99 0 3 43 6 96 6 l96 0 -7 -92z
m-343 -30 c15 -62 25 -114 23 -116 -4 -5 -945 84 -951 90 -2 3 -2 31 2 62 l7
56 111 1 c61 1 197 5 301 8 105 4 256 8 336 9 l146 2 25 -112z m4303 -156
c193 -123 354 -228 359 -232 4 -5 -11 -65 -34 -134 -38 -116 -43 -126 -63
-121 -12 3 -78 19 -146 35 -69 16 -130 35 -137 42 -6 7 -116 140 -243 295
l-231 282 37 50 37 50 36 -22 c19 -12 193 -122 385 -245z m-8012 166 c-3 -51
-7 -95 -9 -97 -2 -2 -4 39 -4 92 0 54 4 97 9 97 6 0 7 -38 4 -92z m6893 47
c10 -27 13 -49 8 -54 -5 -5 -84 -59 -176 -120 -124 -82 -176 -111 -199 -111
-26 0 -30 3 -23 18 4 9 8 34 8 56 0 30 -6 44 -30 64 -16 14 -24 27 -19 29 6 2
96 39 200 83 105 43 195 79 202 79 6 1 19 -19 29 -44z m-8051 -85 c-16 -61
-32 -107 -36 -103 -7 8 -69 192 -69 205 0 6 119 16 129 11 2 -2 -9 -52 -24
-113z m448 -220 c175 -184 343 -363 373 -397 l56 -62 -23 -38 c-12 -21 -23
-39 -24 -41 -3 -4 -728 289 -742 300 -6 5 -33 72 -58 149 l-47 140 38 145 37
145 36 -3 c32 -3 64 -33 354 -338z m3467 285 c0 -36 -5 -57 -12 -60 -7 -2 -69
1 -137 8 l-123 12 -3 42 -3 42 121 4 c67 1 130 4 140 5 14 2 17 -6 17 -53z
m-2507 -158 l209 -202 -116 -154 c-64 -85 -118 -156 -121 -159 -2 -3 -31 7
-62 21 -32 14 -80 29 -107 33 l-49 7 6 211 c9 276 19 446 26 446 3 -1 100 -92
214 -203z m-1496 58 l44 -130 -28 -107 c-15 -60 -32 -108 -38 -108 -5 0 -176
67 -378 149 l-369 148 -2 49 c-2 27 -6 56 -10 64 -6 14 34 19 311 42 175 14
342 25 372 24 l54 -1 44 -130z m11022 99 c5 -4 -63 -364 -69 -364 -7 0 -140
225 -140 236 0 5 34 43 77 86 82 83 74 80 132 42z m1150 -100 c350 -75 639
-140 642 -143 7 -7 -153 -1206 -162 -1216 -5 -4 -847 859 -1111 1140 l-56 60
14 130 c7 72 14 138 14 148 0 9 5 17 11 17 7 0 298 -61 648 -136z m-720 -209
c0 -22 -4 -59 -7 -82 l-7 -43 -135 222 c-74 122 -137 227 -138 233 -2 5 62
-57 142 -140 138 -143 145 -152 145 -190z m-1324 95 l314 -220 -146 -143 c-80
-78 -152 -141 -159 -141 -18 2 -474 295 -474 305 0 6 114 350 135 407 2 6 7
12 11 12 3 0 147 -99 319 -220z m1160 -22 l148 -243 -22 -220 c-28 -285 -27
-280 -58 -294 -15 -7 -29 -8 -33 -4 -4 4 -83 136 -176 293 -109 186 -167 294
-166 309 2 27 60 346 68 373 5 16 25 24 70 27 17 1 49 -45 169 -241z m-2906
137 c25 -8 53 -15 63 -15 16 0 18 -8 17 -62 -1 -88 -13 -235 -19 -242 -3 -3
-24 0 -46 5 l-41 11 -82 181 c-82 182 -82 182 -61 199 20 16 23 15 73 -22 29
-22 72 -47 96 -55z m586 -217 c121 -148 221 -274 223 -278 2 -7 -317 65 -322
72 -1 2 -47 99 -101 217 l-99 213 29 24 c17 13 35 24 40 23 6 0 109 -122 230
-271z m-720 92 c41 -90 73 -166 71 -167 -1 -2 -111 23 -244 54 -133 31 -240
58 -238 60 17 17 323 221 329 220 5 -2 42 -77 82 -167z m-4347 144 l92 -7 0
-31 c0 -17 -16 -253 -35 -525 -19 -272 -35 -498 -35 -502 0 -11 -403 -293
-420 -293 -8 -1 -68 10 -132 23 -98 20 -118 27 -118 41 0 33 169 863 213 1045
l43 180 51 -3 c59 -4 100 13 135 58 21 27 27 30 68 25 25 -2 87 -7 138 -11z
m-433 -58 c-3 -11 -25 -120 -50 -241 -25 -121 -81 -371 -126 -555 -44 -184
-85 -359 -92 -387 -6 -29 -14 -53 -18 -53 -4 0 -114 23 -245 50 -212 45 -241
53 -269 78 -112 105 -601 576 -603 582 -1 4 307 138 685 298 682 288 688 290
705 270 10 -11 16 -29 13 -42z m1008 4 c238 -22 451 -42 473 -45 l42 -6 21
-91 c12 -50 20 -92 19 -93 -46 -38 -1072 -755 -1075 -751 -5 4 48 811 63 964
4 34 11 62 16 62 5 0 204 -18 441 -40z m4262 -171 c52 -111 93 -205 91 -206
-4 -4 -349 76 -354 82 -2 2 1 63 7 136 6 73 11 141 11 151 0 13 8 18 28 19 15
0 47 6 72 13 25 6 46 11 48 10 1 0 45 -93 97 -205z m2205 -123 c0 -24 -48
-277 -54 -283 -4 -4 -390 265 -394 276 -1 4 63 72 144 151 l146 143 79 -133
c43 -74 79 -143 79 -154z m-11339 103 l377 -150 -34 -126 c-18 -69 -35 -128
-38 -130 -3 -3 -33 17 -68 44 -395 313 -624 496 -626 504 -2 5 0 9 5 9 4 0
177 -68 384 -151z m5552 126 c40 -5 47 -9 47 -28 0 -16 -20 -35 -71 -70 -39
-27 -72 -47 -74 -45 -6 5 -35 125 -35 143 0 17 -5 17 133 0z m8065 -129 c2 -2
-240 -704 -425 -1234 l-15 -44 -49 48 c-32 32 -49 57 -49 73 0 27 158 1210
164 1227 3 8 64 -2 188 -28 100 -22 184 -41 186 -42z m-7085 -314 c48 -25 87
-48 87 -51 0 -10 -1000 -324 -1008 -317 -12 12 -152 630 -145 637 5 3 41 29
82 57 68 48 75 50 94 37 29 -20 66 -19 102 4 l30 19 335 -170 c184 -94 374
-191 423 -216z m-6038 248 c19 -57 33 -106 30 -108 -2 -3 -30 6 -60 18 -48 20
-56 26 -51 44 3 12 13 51 23 88 9 37 19 66 20 64 2 -2 19 -49 38 -106z m7622
89 c2 -8 -46 -46 -118 -94 -67 -44 -126 -82 -131 -83 -4 -2 25 40 66 95 l75
98 53 -1 c38 0 54 -5 55 -15z m-176 -31 c-119 -165 -165 -212 -296 -301 -72
-49 -138 -93 -147 -98 -15 -8 -30 10 -98 112 -69 103 -79 121 -63 126 10 2
155 49 323 103 168 54 306 98 308 99 2 1 -11 -18 -27 -41z m537 -29 c141 -33
257 -61 258 -62 1 -1 22 -49 47 -107 l45 -105 -19 -260 c-10 -143 -20 -270
-21 -282 -2 -18 -14 -7 -57 55 -30 42 -168 240 -308 439 -140 199 -252 367
-248 373 10 17 37 12 303 -51z m4028 -585 l541 -560 -42 -313 c-24 -171 -44
-313 -46 -315 -2 -2 -20 -6 -39 -9 l-35 -5 -510 836 -510 836 2 56 c2 30 5 71
9 90 l6 35 41 -46 c23 -25 285 -297 583 -605z m-4041 157 l319 -454 -18 -246
c-9 -135 -19 -247 -20 -249 -7 -6 -892 451 -912 472 -32 32 -266 394 -262 405
1 5 54 75 116 155 l113 146 171 115 c95 63 173 113 174 112 0 -1 144 -206 319
-456z m5788 330 c306 -66 561 -122 566 -125 4 -3 11 -25 13 -48 3 -24 7 -48 9
-54 4 -12 -1420 -1156 -1432 -1151 -4 1 -52 50 -108 108 l-101 107 216 623
c119 343 221 635 225 648 7 18 15 22 32 18 12 -4 273 -60 580 -126z m-11989
-48 c72 -71 133 -129 136 -131 8 -6 -24 -21 -220 -103 l-194 -82 -16 24 c-8
13 -32 42 -52 65 l-38 41 118 156 c64 86 121 157 126 157 5 0 68 -57 140 -127z
m3205 -25 c17 -73 50 -213 73 -310 23 -98 40 -179 37 -181 -3 -3 -1050 -337
-1228 -392 l-23 -7 7 123 c5 95 11 128 23 141 21 21 1064 758 1073 758 4 0 21
-60 38 -132z m3364 85 c10 -6 9 -85 -2 -101 -7 -12 -16 3 -58 106 -4 10 2 11
23 6 16 -4 32 -9 37 -11z m1460 -151 c221 -141 227 -146 210 -165 -38 -41 -44
-41 -291 18 -130 31 -239 58 -241 61 -10 9 73 243 83 237 6 -3 113 -71 239
-151z m-1046 54 c0 0 97 -208 213 -460 l213 -460 -22 -70 c-21 -68 -27 -76
-139 -184 -115 -113 -116 -113 -129 -89 -7 13 -127 282 -268 597 -246 551
-255 574 -255 635 0 34 3 76 6 92 l6 30 186 -45 c103 -24 188 -45 189 -46z
m1836 -58 c108 -77 197 -145 197 -151 0 -7 -9 -59 -20 -117 -11 -58 -20 -106
-20 -107 0 -9 -60 3 -246 47 -152 36 -221 57 -254 78 -147 92 -170 108 -170
113 0 4 65 70 145 148 91 89 150 139 158 135 7 -4 101 -70 210 -146z m446
-121 c84 -142 151 -260 149 -262 -6 -5 -363 253 -362 262 11 81 50 271 55 266
3 -5 75 -124 158 -266z m-11009 193 c22 -9 37 -46 113 -267 48 -141 85 -258
83 -260 -3 -3 -338 258 -373 291 -10 9 -5 41 24 148 l36 137 46 -19 c25 -10
57 -23 71 -30z m6857 -104 l82 -124 -139 -92 -139 -92 -228 117 c-125 64 -232
121 -236 125 -5 4 15 15 45 24 29 9 157 49 283 90 127 41 235 75 240 75 6 0
47 -55 92 -123z m4994 -725 c442 -723 489 -805 476 -819 -14 -13 -18 -13 -39
0 -13 8 -323 207 -690 442 -368 236 -668 431 -668 436 0 9 270 134 287 132 71
-7 88 -3 115 27 15 17 28 43 28 57 0 35 -26 81 -50 89 -11 3 -20 12 -20 18 0
7 10 112 22 235 19 192 24 221 36 205 7 -10 234 -380 503 -822z m-2901 764
c106 -25 160 -42 170 -55 8 -10 60 -73 115 -140 55 -67 100 -125 100 -128 0
-4 -38 -119 -84 -256 l-84 -249 -17 34 c-10 19 -100 212 -200 429 -100 217
-184 399 -187 404 -3 4 3 6 13 2 11 -3 89 -22 174 -41z m-8522 -106 c332 -133
353 -143 346 -163 -4 -11 -8 -70 -9 -130 l-1 -109 -104 -118 c-58 -65 -107
-118 -110 -118 -3 0 -73 53 -156 119 l-151 119 -88 258 c-48 142 -90 264 -92
271 -3 6 -1 12 3 12 5 0 168 -64 362 -141z m6690 -28 c-46 -61 -85 -110 -88
-110 -13 -1 -51 72 -42 81 16 16 196 137 205 137 4 1 -29 -48 -75 -108z m2174
53 c62 -15 114 -27 115 -28 4 -4 -49 -160 -56 -169 -4 -4 -32 23 -62 60 -30
37 -71 89 -92 115 -21 27 -34 48 -28 48 6 0 61 -12 123 -26z m-7074 -288 c166
-159 301 -291 299 -292 -1 -1 -231 46 -511 105 l-510 106 -2 70 c-1 39 -7 83
-13 98 -9 23 -8 29 7 34 9 4 105 44 212 90 107 45 200 82 206 80 6 -1 147
-132 312 -291z m6372 -296 c139 -311 255 -571 257 -578 5 -13 -53 -82 -68 -82
-4 0 -108 143 -230 318 -123 174 -231 328 -241 342 -17 24 -17 35 2 290 11
146 20 269 20 274 0 5 2 7 4 5 2 -2 117 -258 256 -569z m-2198 428 c131 -67
238 -125 238 -128 -1 -3 -253 -174 -561 -380 -522 -349 -561 -374 -571 -355
-37 65 -134 118 -219 119 -33 0 -59 1 -59 2 0 1 -27 118 -60 259 -33 142 -59
263 -57 268 3 9 1005 334 1036 336 8 1 121 -54 253 -121z m3278 66 c129 -30
236 -57 237 -58 6 -6 -328 -327 -336 -324 -5 2 -52 56 -106 121 l-96 117 32
100 c19 55 34 100 34 100 1 0 106 -25 235 -56z m4694 37 c5 -7 -910 -1650
-928 -1668 -2 -3 -75 69 -163 159 -87 90 -204 211 -261 269 l-102 105 715 572
c394 315 720 572 725 572 5 0 11 -4 14 -9z m-4246 -89 c28 -19 52 -36 52 -37
0 -3 -159 33 -179 40 -11 4 -9 11 9 30 26 27 27 27 118 -33z m871 -84 c176
-124 187 -133 183 -160 -2 -15 -7 -28 -11 -28 -3 0 -97 21 -208 47 -156 36
-203 51 -203 63 -1 36 35 210 43 210 5 0 93 -59 196 -132z m-4006 78 l28 -45
-66 -85 c-36 -47 -69 -87 -73 -90 -4 -2 -46 17 -94 43 l-87 47 127 87 c70 47
129 86 132 86 3 1 18 -19 33 -43z m-6965 -131 l202 -160 71 -212 c39 -117 69
-217 67 -222 -2 -5 -227 -260 -502 -565 -436 -487 -501 -554 -517 -545 -11 5
-19 13 -19 17 0 4 108 421 240 926 132 505 240 921 240 923 0 10 26 -9 218
-162z m10092 85 l135 -31 214 -137 c117 -74 215 -140 217 -146 6 -15 -31 -205
-42 -216 -11 -10 -613 -290 -622 -289 -4 0 -100 115 -214 254 l-207 254 177
175 c109 108 183 174 192 171 8 -2 76 -18 150 -35z m3892 -835 l-338 -840 -38
-8 c-37 -9 -39 -8 -102 54 -36 35 -63 71 -62 80 4 19 869 1561 874 1556 2 -2
-148 -381 -334 -842z m-6853 633 c61 -92 111 -169 111 -172 0 -3 -348 171
-359 180 -2 2 25 42 60 88 35 47 67 82 70 78 4 -4 57 -82 118 -174z m3404 97
c176 -41 166 -33 144 -128 l-12 -48 -164 105 c-90 58 -167 109 -170 112 -7 8
-8 8 202 -41z m-1094 -87 l92 -113 -172 -168 c-171 -168 -173 -169 -186 -144
-11 22 -4 50 73 281 48 141 90 256 94 256 4 0 49 -51 99 -112z m-2614 -15 c-2
-7 -149 -202 -326 -433 -278 -363 -325 -420 -348 -420 -40 0 -583 41 -607 45
-18 4 -22 14 -26 62 -3 32 -7 65 -9 73 -3 10 170 131 566 396 l570 381 93 -46
c59 -29 91 -50 87 -58z m4144 -1 c107 -26 196 -52 198 -57 3 -9 -89 -55 -269
-136 -24 -11 -34 -7 -117 46 -65 41 -90 63 -87 74 2 9 7 34 11 56 11 71 14 75
43 69 15 -3 115 -27 221 -52z m-5915 11 c13 -44 116 -495 116 -507 0 -8 -10
-16 -23 -20 -38 -9 -116 -84 -142 -136 l-24 -47 -158 33 c-87 18 -357 75 -600
125 l-443 93 0 32 c0 18 6 36 13 41 11 7 1232 400 1249 402 4 1 9 -7 12 -16z
m-3030 -119 l518 -108 156 -152 c152 -146 156 -152 145 -177 l-12 -26 -503
203 c-277 111 -585 235 -685 275 -124 49 -183 78 -183 88 0 11 7 14 23 10 12
-3 255 -54 541 -113z m5234 -100 c20 -14 527 -762 520 -769 -3 -3 -1561 116
-1566 120 -2 2 143 194 322 428 l325 424 188 -94 c103 -53 198 -102 211 -109z
m-5090 -123 c343 -138 631 -255 640 -260 10 -5 19 -23 20 -42 1 -18 12 -48 24
-67 12 -20 17 -37 11 -41 -5 -3 -69 -53 -142 -109 -73 -58 -137 -102 -145 -99
-10 4 -1115 802 -1155 834 -3 2 3 19 12 38 l17 35 47 -19 c27 -11 328 -132
671 -270z m-1380 240 c32 -56 112 -125 177 -152 l55 -23 -1 -45 c-1 -89 -16
-311 -21 -317 -8 -7 -438 335 -438 347 0 11 191 227 201 228 3 1 15 -17 27
-38z m-400 -96 l122 -97 -60 -68 c-33 -37 -66 -73 -74 -79 -12 -10 -23 16 -72
161 -31 95 -59 180 -62 188 -7 18 -18 26 146 -105z m3384 8 c-2 -38 -7 -93
-10 -123 l-7 -54 -80 -25 c-75 -22 -85 -23 -154 -11 -130 21 -134 12 65 153
98 69 181 127 184 127 3 0 4 -30 2 -67z m5983 -190 c110 -135 200 -250 200
-254 0 -8 -556 -273 -560 -267 0 2 -45 99 -99 215 l-98 212 173 170 c96 94
176 170 179 170 3 0 95 -111 205 -246z m1013 198 l73 -48 -87 -42 c-92 -44
-109 -49 -101 -28 3 8 11 48 18 90 7 43 15 77 18 77 4 0 39 -22 79 -49z
m-8784 -385 c317 -231 573 -423 569 -426 -4 -4 -133 -105 -286 -224 -189 -147
-282 -214 -290 -208 -7 5 -98 77 -204 161 l-191 151 -46 118 c-25 64 -99 256
-164 426 l-119 310 59 39 c33 22 65 48 71 58 7 11 15 18 18 17 3 -2 265 -192
583 -422z m6527 11 l227 -322 -23 -24 -23 -23 -226 116 c-124 65 -227 120
-229 124 -3 5 28 437 32 461 2 8 19 -15 242 -332z m-5700 273 c107 -22 201
-43 210 -46 15 -4 15 -10 0 -71 -17 -65 -18 -68 -54 -75 -21 -4 -50 -14 -65
-22 -27 -14 -28 -13 -167 120 -77 73 -135 133 -129 134 6 0 98 -18 205 -40z
m276 8 c-3 -7 -5 -2 -5 12 0 14 2 19 5 13 2 -7 2 -19 0 -25z m8450 -399 c835
-536 744 -471 730 -514 -7 -25 -7 -45 1 -72 6 -20 10 -38 9 -39 -17 -14 -1093
-747 -1102 -750 -8 -4 -142 152 -347 401 -183 224 -336 412 -339 418 -3 7 30
207 75 446 l81 434 100 48 c55 26 108 48 117 48 10 1 313 -189 675 -420z
m-10159 14 c84 -218 150 -398 148 -401 -3 -2 -112 81 -243 186 -198 158 -238
194 -236 213 1 13 5 104 8 202 l7 177 52 1 c28 1 62 5 76 9 14 4 27 8 31 9 3
1 73 -178 157 -396z m6371 190 c223 -113 417 -214 431 -224 l25 -17 -11 -151
c-6 -83 -12 -153 -15 -155 -5 -5 -360 21 -364 26 -26 33 -483 728 -479 728 4
0 189 -93 413 -207z m-6965 -43 l219 -174 -6 -75 c-3 -42 -20 -361 -38 -708
-19 -348 -36 -633 -39 -633 -6 0 -541 1590 -540 1608 0 8 34 52 77 98 66 73
78 82 92 71 9 -8 114 -92 235 -187z m2275 96 c-7 -36 -16 -66 -21 -66 -11 0
-11 1 8 76 21 83 29 77 13 -10z m174 45 c49 -11 90 -21 93 -23 2 -2 -46 -39
-106 -82 l-110 -78 -20 24 c-25 30 -25 32 5 166 4 17 11 21 28 17 12 -3 62
-14 110 -24z m7377 -11 c0 -20 -141 -775 -148 -792 -5 -14 -55 41 -217 239
-115 141 -215 264 -222 273 -11 16 16 31 280 154 161 75 295 136 300 136 4 0
7 -5 7 -10z m-6850 -27 c0 -37 -12 -42 -65 -31 l-50 11 50 18 c64 22 65 22 65
2z m-299 -10 l74 -16 -105 -34 c-228 -72 -263 -82 -254 -73 23 22 190 139 200
140 6 0 45 -8 85 -17z m5699 -37 c0 -7 -8 -20 -17 -27 -15 -12 -16 -12 -10 4
4 10 7 23 7 28 0 5 5 9 10 9 6 0 10 -6 10 -14z m-5470 -10 l55 -13 -3 -94 c-2
-52 -5 -96 -8 -98 -4 -4 -344 19 -537 36 -61 5 -68 8 -65 26 3 17 37 31 213
88 221 71 256 76 345 55z m8873 -285 c-93 -266 -111 -317 -112 -310 -1 7 66
512 75 558 l5 34 49 -48 48 -47 -65 -187z m-8125 128 c475 -99 542 -115 542
-131 0 -10 -5 -18 -11 -18 -18 0 -1173 90 -1188 93 -11 1 -14 17 -12 67 1 36
4 79 7 96 l6 32 56 -13 c32 -7 301 -64 600 -126z m4836 -80 c52 -112 93 -206
91 -210 -10 -16 -257 -122 -263 -113 -17 25 -60 44 -98 44 l-43 0 70 207 c60
180 74 212 106 245 20 21 38 36 40 35 1 -2 45 -95 97 -208z m-8389 -1491 c-33
-39 -33 -87 0 -126 21 -25 25 -40 25 -96 0 -42 -4 -66 -11 -66 -6 0 -348 158
-759 351 l-747 351 1 52 c0 35 -6 62 -17 80 -18 27 -18 27 15 64 18 21 242
270 497 555 l465 517 278 -826 278 -827 -25 -29z m11955 1401 c0 -9 -352 -291
-357 -286 -4 4 152 461 164 480 6 10 193 -177 193 -194z m-3838 11 c-31 -93
-59 -170 -62 -170 -3 0 -20 36 -39 81 l-35 80 95 89 c52 49 95 89 96 90 1 0
-24 -76 -55 -170z m-5289 81 c15 -1 17 -11 16 -73 0 -40 -3 -80 -7 -89 -6 -14
-46 -5 -304 70 -163 47 -299 89 -303 93 -4 3 -2 15 3 25 10 18 17 18 294 -4
156 -12 291 -22 301 -22z m6503 -241 c126 -155 230 -287 232 -294 4 -17 -217
-1199 -226 -1207 -4 -4 -29 -9 -57 -11 l-49 -3 -352 760 c-194 418 -352 763
-351 768 2 8 545 265 563 266 5 1 113 -125 240 -279z m-5841 190 c297 -23 554
-43 570 -45 27 -4 32 -11 46 -61 l17 -55 -77 -63 c-165 -137 -226 -186 -232
-186 -3 0 -216 61 -472 135 -257 74 -469 135 -473 135 -7 0 5 170 12 182 3 4
19 5 37 2 17 -2 275 -22 572 -44z m-3078 -167 c137 -108 252 -203 258 -212 19
-31 186 -475 183 -487 -3 -11 -703 -564 -714 -564 -1 0 -15 5 -29 12 -26 12
-26 12 -20 102 7 104 65 1289 65 1323 0 13 2 23 5 23 3 0 116 -88 252 -197z
m2421 12 c6 -5 -54 -824 -61 -831 -7 -8 -245 163 -256 185 -15 28 -311 806
-311 818 0 8 613 -160 628 -172z m4675 109 c83 -42 180 -92 215 -111 l63 -36
-33 -34 c-71 -75 -63 -73 -252 -58 -92 8 -170 16 -173 18 -2 3 0 65 6 138 6
73 11 139 11 146 0 7 2 13 5 13 3 0 74 -34 158 -76z m-5180 -341 c81 -212 146
-387 145 -388 -2 -2 -113 78 -248 176 -181 132 -244 183 -242 196 4 23 70 298
82 343 8 31 14 36 41 38 18 1 39 7 48 12 9 5 18 10 21 10 3 0 71 -174 153
-387z m-289 368 c5 -8 -78 -368 -86 -376 -5 -5 -222 153 -225 162 -3 12 270
221 289 222 9 1 19 -3 22 -8z m5965 -136 c29 -66 37 -94 30 -107 -8 -14 -14
-15 -33 -7 -21 10 -106 118 -106 136 0 8 62 74 66 70 2 -2 21 -43 43 -92z
m4450 -395 l58 -65 -216 -385 c-119 -212 -360 -641 -536 -953 -336 -599 -353
-623 -348 -507 5 107 113 1756 119 1797 4 37 9 42 35 48 45 10 97 61 109 106
13 46 1 103 -29 141 l-19 24 176 142 177 142 208 -213 c114 -116 233 -241 266
-277z m-7426 431 c126 -11 231 -21 233 -24 3 -3 -8 -20 -24 -38 l-30 -33 -223
53 c-123 29 -226 55 -228 57 -7 7 34 4 272 -15z m-111 -53 c148 -35 268 -66
268 -71 0 -14 -292 -388 -301 -385 -5 2 -76 97 -158 212 l-150 208 27 49 c15
27 32 49 37 49 6 0 130 -28 277 -62z m1223 -33 c407 -31 750 -59 763 -63 14
-4 58 -60 122 -156 l99 -149 -18 -26 c-10 -14 -21 -34 -24 -44 -4 -12 -13 -16
-24 -13 -10 3 -416 100 -903 216 -487 116 -891 213 -898 215 -10 4 -6 16 15
45 28 40 29 41 78 36 28 -3 383 -30 790 -61z m1779 -13 c5 -8 -11 -3 -37 9
-44 21 -46 24 -31 41 16 17 18 16 37 -10 11 -15 25 -33 31 -40z m-4596 -78
c240 -70 443 -130 450 -134 9 -4 -92 -94 -309 -271 -178 -145 -332 -270 -343
-278 -11 -8 -81 -25 -155 -38 -115 -19 -138 -20 -150 -9 -11 12 -9 73 13 402
29 425 32 454 47 454 6 0 207 -57 447 -126z m839 87 c7 -11 32 -32 57 -46 l44
-26 -44 -107 c-25 -59 -49 -111 -53 -115 -9 -9 -312 74 -308 84 4 12 272 228
282 229 6 0 16 -9 22 -19z m4692 -747 l354 -767 -24 -18 c-13 -10 -27 -18 -31
-16 -17 5 -1357 773 -1358 777 0 3 62 120 138 260 l138 255 46 1 c79 2 139 68
123 135 -5 22 4 28 117 81 68 31 128 57 133 57 6 1 170 -344 364 -765z m-959
711 c38 -19 74 -44 81 -56 11 -21 11 -21 -93 -15 -56 4 -116 10 -132 13 l-28
5 43 44 c24 24 47 44 51 44 5 0 40 -16 78 -35z m-3202 -171 c73 -102 136 -192
139 -200 3 -9 -2 -14 -13 -14 -10 0 -30 -12 -45 -26 l-27 -25 -81 22 c-45 12
-88 27 -95 33 -13 10 -116 307 -116 334 0 6 6 12 13 13 6 0 28 11 47 24 19 13
37 24 40 24 3 0 65 -83 138 -185z m-2840 54 c50 -38 92 -70 92 -73 0 -10 -182
-760 -185 -763 -4 -4 -622 484 -629 497 -2 3 124 106 281 228 l286 222 31 -21
c17 -12 73 -53 124 -90z m4297 -104 c501 -120 910 -217 911 -218 1 -1 4 -24 7
-52 l6 -51 -763 -301 c-419 -166 -769 -302 -777 -302 -9 0 -94 80 -190 178
-135 137 -200 212 -285 332 -138 192 -151 216 -134 244 36 58 294 386 304 386
6 0 421 -97 921 -216z m1039 180 l109 -7 -7 -66 c-3 -36 -6 -85 -6 -107 0 -42
0 -42 -44 -48 -24 -4 -52 -13 -62 -21 -11 -8 -24 -15 -30 -15 -9 0 -72 89
-179 254 l-19 29 64 -6 c36 -4 114 -10 174 -13z m-2714 -165 c28 -86 50 -159
50 -161 0 -7 -312 82 -322 91 -4 4 13 56 38 117 l46 110 69 -1 70 0 49 -156z
m3113 132 l57 -6 -114 -114 -114 -114 -55 23 -56 23 5 71 c3 39 7 86 10 104
l5 34 102 -7 c56 -4 128 -10 160 -14z m368 -27 c42 -6 48 -9 53 -37 3 -16 5
-31 4 -32 -2 -1 -120 -48 -263 -105 -143 -56 -265 -104 -270 -106 -6 -2 -18 8
-27 23 l-17 28 122 123 122 124 115 -6 c63 -4 136 -9 161 -12z m-7018 -239
c75 -60 137 -111 137 -114 -1 -9 -174 -140 -185 -140 -8 0 -68 145 -156 378
l-20 54 43 -34 c24 -19 105 -84 181 -144z m3102 80 c78 -22 109 -36 107 -46
-1 -8 -28 -76 -59 -152 -44 -105 -62 -139 -78 -142 -65 -15 -828 -135 -831
-132 -3 2 142 124 321 270 l325 266 53 -16 c28 -8 102 -30 162 -48z m4005 55
c0 -21 -272 -510 -283 -509 -26 1 -282 158 -278 171 2 7 3 41 3 75 l0 62 261
105 c259 103 297 116 297 96z m-5828 -176 c134 -97 253 -185 264 -196 21 -19
112 -244 102 -253 -5 -5 -791 -136 -793 -132 -2 3 179 757 182 757 1 0 112
-79 245 -176z m7723 -307 c174 -214 316 -390 314 -391 -14 -13 -686 -469 -696
-473 -7 -3 -13 0 -13 6 0 16 -100 78 -137 86 -18 4 -33 12 -33 18 0 7 48 274
107 594 100 543 109 582 124 565 9 -9 159 -192 334 -405z m-5639 354 c54 -16
131 -39 170 -50 l71 -21 14 -48 c7 -26 11 -49 8 -52 -2 -3 -116 -23 -252 -46
-210 -34 -247 -38 -242 -25 33 94 112 271 121 271 6 0 55 -13 110 -29z m7149
-15 c20 -14 40 -26 46 -28 6 -2 -13 -341 -53 -944 l-63 -941 -46 -15 -46 -14
-489 597 c-269 328 -489 602 -489 608 0 11 1080 759 1097 760 4 1 23 -10 43
-23z m1151 -107 c59 -59 61 -62 51 -94 -7 -25 -6 -40 5 -62 l15 -29 -537 -713
c-296 -391 -541 -715 -546 -719 -4 -4 -1 4 7 18 9 14 222 393 474 843 252 449
461 817 464 817 3 0 33 -27 67 -61z m-7919 11 c31 -10 59 -22 60 -27 2 -6 -20
-13 -49 -17 -29 -4 -62 -9 -74 -12 -17 -4 -23 2 -32 34 -7 22 -12 42 -12 46 0
7 24 2 107 -24z m-3258 -280 c170 -135 308 -246 307 -247 -2 -2 -142 -25 -312
-53 -170 -27 -319 -52 -330 -55 -20 -4 -29 14 -108 222 l-87 227 23 17 c13 9
57 44 98 78 41 33 81 59 87 58 7 -1 152 -112 322 -247z m3329 200 c1 -9 -22
-37 -53 -63 l-55 -48 -11 28 c-6 15 -13 40 -16 55 -5 25 -2 27 48 36 67 12 83
11 87 -8z m224 -42 c65 -93 66 -99 4 -36 -32 32 -56 65 -56 77 0 12 2 21 4 21
2 0 24 -28 48 -62z m-375 -30 c9 -35 16 -64 16 -66 -1 -2 -196 -183 -434 -403
-558 -515 -535 -519 -302 42 l168 404 245 41 c135 23 255 42 267 43 19 1 25
-8 40 -61z m238 29 c17 -1 37 2 45 6 29 14 259 -235 403 -436 70 -98 129 -183
130 -188 3 -11 -516 -220 -524 -211 -4 4 -59 169 -123 367 l-116 359 57 59
c45 45 62 56 78 51 11 -4 34 -7 50 -7z m2295 -64 c8 -7 23 -18 33 -25 15 -12
-39 -68 -519 -538 -296 -289 -540 -526 -543 -528 -8 -3 -556 546 -551 551 3 3
347 140 765 305 l760 301 20 -27 c11 -14 27 -32 35 -39z m479 -34 l142 -81
-47 -87 c-198 -368 -327 -602 -330 -599 -3 4 -64 689 -64 724 0 13 14 25 45
37 24 11 57 34 72 52 16 19 31 34 34 34 4 1 71 -35 148 -80z m-4946 -43 c59
-43 107 -81 107 -86 0 -7 -107 -30 -143 -30 -14 0 -24 21 -88 189 -8 19 -7 22
3 14 7 -5 61 -45 121 -87z m1347 80 c0 -5 -321 -780 -325 -784 -5 -5 -715 513
-712 520 1 5 132 115 140 119 4 1 873 147 885 148 6 0 12 -1 12 -3z m-3135
-43 c74 -186 154 -408 148 -413 -6 -5 -746 -129 -853 -143 -8 -1 -15 4 -15 11
0 11 690 560 706 561 4 1 10 -7 14 -16z m6405 -15 c0 -2 16 -183 35 -402 l35
-399 -192 -355 c-128 -235 -199 -357 -213 -362 -11 -4 -84 -20 -163 -36 l-142
-29 -261 261 -261 261 544 531 c521 510 545 532 581 532 20 0 37 -1 37 -2z
m-2606 -145 c146 -447 186 -577 179 -583 -22 -20 -754 -301 -765 -294 -33 20
-304 220 -308 227 -5 8 828 785 842 786 3 1 27 -61 52 -136z m3722 -283 c330
-189 629 -360 666 -381 l67 -39 -30 -49 c-22 -35 -32 -66 -36 -110 l-6 -61
-66 -20 c-77 -23 -1553 -332 -1558 -326 -2 2 -16 140 -30 307 l-26 304 157
290 c87 160 176 323 198 363 24 45 45 71 53 68 7 -2 282 -158 611 -346z
m-5362 312 c-12 -9 -38 -30 -57 -46 l-37 -28 -41 30 -41 31 33 6 c19 3 54 10
79 14 25 5 54 9 65 10 20 1 19 0 -1 -17z m-3794 -357 c415 -195 759 -356 764
-358 9 -3 -11 -493 -23 -538 -6 -25 -43 5 -753 605 -646 546 -761 646 -745
646 1 0 342 -160 757 -355z m3626 303 c24 -17 44 -35 44 -39 0 -8 -122 -110
-126 -106 -1 1 0 41 3 90 7 101 11 104 79 55z m-103 -45 c-6 -105 -12 -129
-33 -148 -11 -10 -22 -16 -24 -14 -2 2 -22 50 -44 107 -44 113 -47 101 23 115
11 3 34 5 51 6 l32 1 -5 -67z m-3513 -603 l725 -614 -1 -70 c0 -39 -4 -142 -8
-228 -7 -144 -10 -158 -28 -164 -11 -3 -21 -4 -22 -2 -67 81 -1406 1691 -1420
1708 l-21 25 25 -21 c14 -12 351 -297 750 -634z m3395 522 c32 -88 36 -105 24
-117 -66 -64 -363 -294 -372 -288 -7 4 -122 95 -257 202 -185 148 -240 196
-225 200 11 2 189 32 395 66 270 44 378 59 386 51 6 -6 28 -57 49 -114z m661
-193 c192 -139 353 -256 358 -260 4 -4 -4 -40 -20 -79 -27 -70 -30 -73 -258
-283 -165 -152 -235 -211 -250 -209 -12 1 -33 3 -48 5 -16 1 -28 3 -28 3 0 1
-65 172 -145 380 -140 364 -145 381 -144 449 2 111 6 121 89 191 41 35 80 62
86 59 7 -2 169 -117 360 -256z m2172 5 c-13 -7 -26 -10 -29 -8 -8 4 -149 199
-163 223 -5 9 42 -33 103 -94 106 -105 110 -110 89 -121z m-3858 -355 c-67
-277 -125 -508 -129 -512 -5 -5 -21 -7 -36 -5 -25 3 -34 23 -205 468 -147 385
-175 466 -161 469 9 2 158 27 331 56 228 37 316 48 318 39 2 -6 -52 -238 -118
-515z m410 315 c135 -107 245 -199 245 -203 0 -10 -737 -613 -742 -607 -3 3
213 919 233 989 3 9 8 17 12 17 4 0 117 -88 252 -196z m720 101 c0 -38 -15
-47 -25 -15 -6 18 8 50 21 50 2 0 4 -16 4 -35z m8020 -598 c269 -329 490 -601
490 -605 0 -4 -7 -15 -14 -25 -13 -16 -68 2 -827 277 l-814 294 -6 69 c-4 39
-12 80 -19 93 -6 12 -8 26 -3 31 26 26 680 468 690 466 7 -1 233 -271 503
-600z m-9547 130 c97 -254 177 -466 177 -469 0 -4 -14 -20 -31 -37 l-30 -31
-646 303 c-355 166 -647 308 -650 315 -3 7 -2 42 2 77 6 59 9 65 29 65 33 0
73 35 81 70 4 17 12 30 18 30 7 1 197 32 422 70 226 37 419 69 430 69 17 1 44
-60 198 -462z m1500 109 c-11 -156 -20 -235 -27 -233 -14 5 -365 281 -365 287
0 3 82 71 182 152 l182 148 22 -59 22 -59 -16 -236z m3081 5 l279 -279 -66
-62 c-36 -33 -69 -61 -72 -61 -8 0 -475 650 -475 661 0 8 19 16 45 19 6 0 136
-125 289 -278z m-124 -88 c186 -258 240 -340 233 -352 -5 -8 -134 -136 -286
-284 -233 -227 -279 -268 -292 -257 -8 7 -38 15 -66 19 l-52 6 -158 489 c-88
270 -159 493 -159 497 0 5 508 214 531 218 4 1 116 -151 249 -336z m-2790 -73
c66 -173 119 -317 118 -321 -3 -6 -226 167 -266 205 -10 10 -9 50 3 212 8 109
15 205 15 213 0 8 2 12 5 9 2 -2 59 -146 125 -318z m-381 35 l192 -150 -5 -95
c-3 -52 -11 -171 -18 -264 l-11 -168 -56 5 c-31 3 -266 29 -523 58 -414 47
-469 55 -474 71 -3 10 -19 32 -36 48 -17 18 -27 35 -22 40 48 45 749 610 755
608 4 -2 93 -70 198 -153z m2524 -349 l159 -489 -28 -22 -28 -22 -95 69 c-53
39 -279 203 -503 366 -225 162 -408 298 -408 301 1 9 713 290 730 288 10 -2
64 -154 173 -491z m-1318 463 c7 -10 -34 -63 -42 -56 -2 2 2 18 8 35 11 33 23
40 34 21z m190 -135 c80 -58 147 -109 150 -113 4 -7 -555 -235 -560 -229 -1 2
30 81 70 177 65 157 77 179 123 222 28 27 55 49 61 49 6 0 76 -48 156 -106z
m-3169 -251 l591 -278 -5 -37 c-7 -53 28 -118 77 -146 21 -12 46 -22 55 -22 9
0 16 -5 16 -11 0 -7 32 -68 71 -136 40 -68 70 -125 68 -127 -2 -3 -223 -8
-490 -12 l-487 -7 -311 263 c-287 243 -311 266 -311 295 0 43 19 383 26 472
l6 71 51 -24 c29 -13 318 -149 643 -301z m6643 32 c13 -152 22 -278 20 -280
-6 -5 -392 -85 -396 -81 -5 5 338 636 346 636 4 0 18 -124 30 -275z m-3862 10
l-63 -150 -133 -54 c-127 -52 -134 -54 -147 -36 -12 17 -6 25 69 94 45 42 138
128 207 192 69 65 126 114 128 110 1 -3 -26 -74 -61 -156z m1099 -306 c424
-307 502 -367 497 -384 -3 -11 -8 -23 -12 -27 -5 -5 -1761 188 -1768 195 -1 2
30 82 70 177 l73 174 305 122 c183 72 310 118 318 113 8 -4 241 -170 517 -370z
m1986 -150 c-13 -11 -316 -69 -323 -61 -23 24 -303 420 -306 433 -3 10 20 39
63 78 l68 62 253 -253 c139 -139 249 -255 245 -259z m-3717 385 l145 -116 -20
-25 c-24 -31 -26 -90 -5 -120 8 -12 31 -27 50 -33 43 -14 81 2 110 47 15 23
39 39 95 61 41 17 99 39 128 51 l52 21 -16 -38 c-8 -20 -39 -94 -67 -164 -48
-119 -54 -128 -79 -128 -50 0 -573 61 -579 68 -5 5 24 462 30 490 2 8 26 -9
156 -114z m6199 56 c18 -40 62 -93 102 -120 21 -15 3 -41 -742 -1060 -420
-575 -767 -1045 -771 -1044 -11 1 -73 16 -74 18 -5 9 -145 1663 -140 1668 7 7
1363 507 1491 549 47 16 92 28 101 29 8 0 23 -18 33 -40z m1334 -255 l800
-289 4 -48 3 -47 -911 -429 -912 -429 -6 121 c-3 67 -13 339 -21 606 -8 267
-16 513 -18 547 l-3 62 36 6 c77 14 165 88 191 160 7 19 19 34 25 33 7 -2 372
-133 812 -293z m-1673 224 c-29 -13 -1290 -477 -1292 -475 -5 4 -21 201 -17
205 4 5 1299 278 1319 279 6 0 1 -4 -10 -9z m-2645 -270 c83 -116 150 -212
148 -214 -2 -2 -191 -42 -422 -90 l-419 -88 -18 24 -19 24 282 277 c156 152
286 277 290 278 3 0 74 -95 158 -211z m3227 137 c7 -6 44 -1339 37 -1346 -10
-9 -1622 -770 -1633 -770 -3 0 -12 9 -18 19 -10 17 78 143 750 1065 l762 1046
50 -6 c28 -4 51 -7 52 -8z m-1912 -247 c4 -55 3 -104 -1 -108 -5 -4 -115 -46
-244 -94 -129 -47 -243 -89 -254 -93 -16 -6 -17 -4 -7 14 16 30 14 84 -5 110
-14 21 -13 27 28 103 24 45 49 84 56 87 25 9 367 80 393 81 l27 1 7 -101z
m-7101 -159 l277 -235 -268 -3 c-194 -2 -269 1 -272 9 -4 14 -33 43 -53 55
-13 8 -13 37 -3 214 7 113 13 206 14 208 3 7 42 -25 305 -248z m2343 106 c11
-11 -9 -256 -21 -256 -28 -1 -1009 326 -1013 338 -16 40 -10 40 517 -19 282
-32 515 -60 517 -63z m4283 59 c0 -3 -17 -37 -37 -74 l-38 -69 -50 -5 c-49 -5
-51 -4 -97 41 -26 25 -45 48 -42 51 3 3 60 18 127 33 141 30 137 30 137 23z
m-4802 -185 c276 -90 502 -167 502 -171 0 -6 -344 -16 -779 -21 l-214 -3 -78
135 -79 135 39 17 c22 9 50 30 62 47 13 18 28 30 34 28 5 -2 236 -77 513 -167z
m1142 58 c5 -2 -12 -53 -37 -114 l-46 -111 -205 -7 c-174 -5 -214 -4 -264 10
l-59 17 5 51 c3 28 8 87 12 131 3 44 8 82 9 85 3 5 565 -55 585 -62z m3417 10
c51 -50 52 -52 46 -98 -7 -57 8 -87 50 -105 23 -10 28 -15 17 -19 -8 -3 -75
-28 -148 -55 l-133 -49 -68 91 c-37 51 -88 122 -114 158 l-46 66 142 30 c196
42 191 43 254 -19z m-2527 -108 c443 -50 810 -92 815 -94 12 -5 105 -3 -899
-21 -467 -9 -851 -14 -853 -11 -2 2 12 44 32 92 21 49 41 99 45 110 6 15 15
20 32 18 13 -3 385 -45 828 -94z m2216 -68 c70 -98 107 -159 100 -163 -24 -14
-618 -229 -632 -229 -8 0 -116 64 -240 141 -163 102 -224 145 -220 156 3 8 6
22 6 31 0 9 4 23 9 30 5 9 171 48 427 102 231 49 424 88 429 89 6 0 60 -71
121 -157z m1044 121 c1 -16 32 -379 69 -808 38 -429 67 -781 66 -783 -1 -2
-37 19 -79 45 l-77 48 -431 598 c-236 329 -427 601 -423 605 8 8 845 319 863
321 7 1 12 -11 12 -26z m3766 -116 c-135 -101 -1723 -1237 -1731 -1237 -5 0
-20 8 -31 18 -21 16 -22 27 -25 201 l-4 185 905 427 c498 235 907 427 910 428
3 0 -8 -10 -24 -22z m-6092 -73 c3 -9 6 -22 6 -29 0 -16 -767 -480 -790 -477
-19 1 -1139 368 -1146 374 -4 5 32 97 42 107 3 3 420 13 927 22 507 9 929 17
938 17 9 1 20 -5 23 -14z m-2149 -91 c94 -31 171 -57 173 -58 1 -1 -106 -262
-239 -581 -132 -318 -243 -585 -246 -592 -5 -12 -49 -9 -62 3 -4 4 77 1201 85
1252 9 58 52 54 289 -24z m225 63 c0 -2 -9 -25 -19 -49 l-20 -45 -136 43 c-75
24 -139 46 -142 49 -4 3 66 6 155 6 89 0 162 -2 162 -4z m-540 -16 c0 -21 -80
-1160 -86 -1217 -5 -62 -6 -63 -35 -63 -16 0 -45 -6 -64 -14 -34 -14 -34 -14
-53 17 -63 104 -722 1246 -728 1260 -5 15 15 17 228 20 607 7 738 7 738 -3z
m-627 -660 c388 -670 396 -686 339 -684 -11 0 -91 41 -177 90 -158 89 -159 90
-832 659 -443 375 -668 571 -656 573 21 3 837 20 902 18 l44 -1 380 -655z
m-778 120 c338 -286 615 -523 615 -526 0 -3 -26 10 -58 28 -32 18 -437 247
-900 508 -463 261 -842 481 -842 487 0 12 21 13 443 21 l128 2 614 -520z
m3905 512 c0 -15 66 -47 110 -52 l45 -5 17 -155 c9 -85 17 -174 17 -196 l1
-42 -207 -77 c-115 -42 -221 -79 -238 -81 -31 -5 -505 143 -508 159 -2 7 740
456 756 457 4 0 7 -4 7 -8z m473 -142 c108 -68 194 -127 190 -131 -10 -9 -419
-159 -433 -159 -5 0 -10 3 -10 8 0 4 -9 91 -21 194 l-20 188 28 24 c24 21 31
23 48 12 11 -7 109 -68 218 -136z m1299 -450 c471 -657 434 -605 417 -594
-174 104 -1448 909 -1442 911 4 2 148 55 318 117 171 63 313 111 316 108 4 -4
179 -248 391 -542z m-3179 318 c306 -100 554 -185 550 -189 -5 -4 -345 -210
-758 -457 l-750 -450 -26 27 c-14 16 -37 36 -52 46 -15 9 -27 22 -27 28 0 23
485 1177 495 1177 5 0 261 -82 568 -182z m2841 -470 c396 -248 743 -466 769
-484 45 -30 147 -154 147 -179 0 -5 -8 -20 -18 -33 l-17 -22 -1024 334 c-563
184 -1025 337 -1027 339 -6 5 -34 250 -34 293 l0 31 233 86 c127 47 236 86
241 87 5 0 333 -203 730 -452z m-2000 196 c127 -42 234 -79 238 -83 5 -4 -429
-168 -963 -364 -535 -197 -974 -356 -976 -354 -4 5 1449 877 1461 877 5 0 113
-34 240 -76z m766 59 c0 -5 7 -66 15 -138 8 -71 15 -135 15 -141 0 -7 -92 18
-220 59 -121 39 -220 73 -220 77 0 6 378 148 398 149 6 1 12 -2 12 -6z m-206
-243 l242 -80 33 -317 c18 -175 36 -333 38 -350 l6 -33 -1316 0 -1315 0 -12
47 c-9 39 -9 50 2 56 25 16 2043 756 2062 756 10 1 127 -35 260 -79z m4248
-165 l4 -170 -30 -20 c-17 -11 -33 -31 -36 -44 -3 -13 -12 -28 -20 -32 -8 -5
-355 -76 -770 -159 -415 -83 -764 -153 -775 -156 -18 -4 -18 -3 -3 8 46 33
1614 763 1619 754 4 -6 9 -88 11 -181z m-2937 -264 c550 -180 999 -331 998
-336 -2 -6 -369 -10 -985 -10 l-982 0 -32 305 c-18 168 -35 322 -37 342 -5 35
-3 37 16 32 12 -3 472 -152 1022 -333z m-4183 -141 c67 -37 75 -47 57 -66 -15
-14 -10 -17 -165 116 l-39 33 45 -25 c25 -14 71 -40 102 -58z m5292 -56 c19
-13 19 -14 -5 -23 -28 -10 -44 1 -73 50 l-19 33 39 -24 c21 -13 48 -29 58 -36z
m-2101 -196 c3 -13 16 -124 28 -247 18 -177 21 -225 11 -229 -7 -2 -23 -14
-35 -27 l-22 -22 -1285 253 c-707 139 -1295 256 -1307 259 -13 3 -23 12 -23
20 0 13 160 15 1314 15 l1314 0 5 -22z m1992 13 c3 -5 -3 -12 -12 -15 -10 -3
-423 -120 -917 -260 l-899 -255 -29 24 c-16 14 -36 25 -44 25 -8 0 -14 4 -14
8 0 4 -11 110 -25 236 -14 126 -25 232 -25 237 0 12 1957 12 1965 0z"/>
</g>
</svg>
