<?xml version="1.0" standalone="no"?>
<!DOCTYPE svg PUBLIC "-//W3C//DTD SVG 20010904//EN"
 "http://www.w3.org/TR/2001/REC-SVG-20010904/DTD/svg10.dtd">
<svg version="1.0" xmlns="http://www.w3.org/2000/svg"
 width="3840.000000pt" height="2160.000000pt" viewBox="0 0 3840.000000 2160.000000"
 preserveAspectRatio="xMidYMid meet">

<g transform="translate(0.000000,2160.000000) scale(0.100000,-0.100000)"
fill="#6e1f1b" stroke="none">
<path d="M22450 20424 c-1258 -41 -2350 -254 -4580 -894 -1884 -541 -3531
-1680 -4488 -3103 -531 -788 -827 -1558 -956 -2482 -54 -384 -79 -716 -111
-1445 -50 -1134 -114 -1662 -265 -2197 -194 -686 -475 -1167 -1159 -1988 -69
-82 -211 -251 -316 -375 -518 -613 -764 -959 -965 -1360 -303 -605 -382 -1194
-243 -1820 132 -595 459 -1178 937 -1668 616 -630 1453 -1123 2891 -1700 753
-302 1355 -473 1920 -546 769 -100 1566 8 2410 326 539 203 973 417 1976 974
825 458 1129 619 1469 779 553 262 1000 427 1490 550 472 119 797 179 1910
355 1191 188 1862 365 2465 650 267 126 583 322 800 496 739 595 1231 1506
1415 2619 121 739 116 1530 -15 2351 -85 529 -271 930 -636 1369 -46 55 -201
219 -344 365 -370 376 -484 498 -598 640 -302 375 -481 769 -561 1230 -59 341
-16 790 185 1922 188 1064 239 1437 255 1848 11 293 -15 497 -91 725 -325 971
-936 1698 -1670 1988 -170 67 -830 207 -1307 277 -312 45 -661 81 -968 100
-184 11 -689 19 -850 14z m865 -44 c643 -42 1277 -135 1935 -286 227 -52 320
-84 485 -166 653 -324 1195 -1024 1483 -1918 71 -221 77 -265 77 -610 0 -470
-29 -691 -259 -2006 -187 -1070 -229 -1526 -171 -1871 21 -128 77 -343 120
-459 47 -128 168 -375 240 -489 149 -235 282 -391 699 -819 345 -354 397 -410
513 -556 279 -349 460 -731 542 -1140 47 -236 91 -602 112 -928 17 -273 7
-904 -19 -1142 -99 -896 -339 -1617 -738 -2211 -555 -827 -1368 -1350 -2584
-1663 -429 -111 -802 -181 -1785 -336 -1439 -228 -2022 -386 -2902 -791 -361
-165 -697 -342 -1483 -779 -1100 -612 -1570 -843 -2138 -1050 -1280 -466
-2334 -445 -3787 77 -816 293 -1726 709 -2275 1041 -968 585 -1605 1311 -1900
2167 -273 793 -191 1543 255 2321 189 328 417 632 960 1274 560 664 760 929
974 1295 332 567 513 1194 600 2075 25 255 45 577 71 1150 43 959 80 1319 185
1830 357 1728 1620 3303 3480 4337 541 301 1172 567 1760 743 156 47 939 264
1258 350 1352 362 2287 526 3252 569 234 11 811 6 1040 -9z"/>
<path d="M22160 19984 c-850 -41 -1724 -188 -2820 -474 -598 -156 -1460 -403
-1765 -505 -1702 -569 -3155 -1630 -4055 -2960 -295 -437 -552 -956 -710
-1435 -92 -278 -183 -663 -244 -1026 -73 -438 -107 -778 -151 -1549 -55 -962
-105 -1372 -221 -1840 -118 -472 -278 -837 -548 -1250 -183 -278 -362 -512
-796 -1035 -302 -365 -413 -503 -537 -670 -449 -605 -670 -1071 -760 -1607
-28 -169 -26 -611 5 -788 72 -414 211 -783 431 -1140 491 -800 1295 -1416
2591 -1987 987 -435 1742 -676 2400 -767 344 -48 767 -63 1040 -37 695 67
1379 285 2265 721 312 154 514 262 1137 606 616 340 818 448 1133 604 914 450
1468 625 2960 935 812 168 1189 255 1543 355 723 205 1231 427 1717 750 593
395 1017 883 1340 1540 467 953 632 2150 469 3420 -54 423 -178 768 -401 1110
-124 189 -253 346 -538 650 -328 351 -448 493 -580 689 -209 310 -340 638
-406 1016 -17 99 -25 339 -17 495 15 285 87 757 223 1480 231 1225 281 1772
199 2174 -32 154 -152 466 -275 712 -186 373 -384 655 -633 905 -206 205 -380
331 -621 449 -201 99 -309 135 -576 195 -556 123 -1086 202 -1689 250 -132 11
-960 21 -1110 14z m800 -24 c594 -24 1118 -87 1710 -206 461 -92 609 -135 837
-244 600 -288 1092 -878 1416 -1701 137 -348 168 -548 147 -941 -21 -386 -66
-698 -226 -1553 -100 -529 -166 -931 -200 -1200 -36 -283 -41 -647 -11 -810
77 -414 211 -738 445 -1074 112 -159 234 -304 502 -591 125 -135 263 -286 305
-335 394 -459 588 -868 664 -1400 150 -1045 61 -2103 -250 -2975 -469 -1312
-1345 -2131 -2819 -2631 -458 -156 -839 -252 -1775 -449 -990 -208 -1373 -299
-1788 -425 -734 -222 -1217 -443 -2462 -1130 -1321 -728 -1869 -982 -2540
-1176 -436 -127 -766 -178 -1195 -186 -438 -8 -786 28 -1215 128 -923 215
-2324 803 -3119 1308 -475 302 -905 688 -1194 1073 -263 350 -462 761 -563
1161 -200 792 -43 1531 494 2337 174 260 333 465 777 1000 325 392 396 481
537 670 512 689 743 1246 877 2111 48 310 80 653 116 1254 58 949 91 1275 176
1737 118 643 266 1101 524 1623 474 959 1220 1807 2217 2521 334 239 695 454
1113 662 556 278 993 442 1713 647 1282 363 2013 540 2710 655 725 119 1428
167 2077 140z"/>
<path d="M22075 19553 c-1060 -48 -2001 -236 -3850 -769 -694 -200 -1190 -386
-1668 -626 -1794 -898 -3101 -2319 -3627 -3943 -139 -431 -267 -1005 -335
-1505 -37 -272 -46 -385 -110 -1315 -72 -1039 -197 -1629 -461 -2174 -180
-373 -396 -693 -820 -1217 -98 -122 -260 -322 -360 -445 -581 -719 -842 -1156
-998 -1673 -230 -758 -72 -1616 438 -2371 416 -616 1067 -1134 1981 -1576 504
-243 1229 -532 1680 -669 456 -138 863 -220 1249 -251 192 -15 657 -7 826 15
660 86 1268 283 2080 673 240 116 525 266 1115 588 759 414 1025 552 1389 719
625 288 1058 430 2337 766 1241 327 1694 468 2244 702 558 237 1137 591 1505
920 776 693 1268 1730 1419 2988 34 284 44 465 44 785 -1 722 -73 1110 -285
1528 -115 227 -272 442 -582 797 -374 428 -489 586 -629 866 -110 220 -183
444 -228 701 -19 108 -23 164 -23 353 0 348 41 633 228 1575 200 1012 244
1340 233 1754 -8 307 -34 418 -173 743 -338 793 -802 1339 -1374 1622 -150 74
-346 144 -362 128 -7 -7 8 -15 48 -27 79 -23 240 -87 327 -131 405 -204 774
-566 1054 -1034 142 -238 351 -695 406 -890 48 -166 66 -440 48 -700 -25 -352
-74 -668 -226 -1442 -198 -1016 -244 -1354 -232 -1693 19 -497 198 -978 525
-1410 88 -117 172 -218 376 -450 591 -676 769 -1051 831 -1757 104 -1195 -140
-2427 -660 -3328 -427 -741 -1025 -1271 -1943 -1724 -609 -299 -1185 -491
-2507 -836 -1201 -313 -1674 -462 -2215 -697 -398 -174 -725 -340 -1545 -788
-764 -417 -1011 -545 -1369 -709 -710 -327 -1262 -495 -1881 -573 -199 -25
-720 -25 -925 0 -661 81 -1270 257 -2139 619 -880 366 -1458 697 -1951 1118
-142 121 -399 383 -501 511 -401 499 -643 1065 -700 1633 -17 170 -7 478 21
631 72 404 210 746 470 1165 162 260 353 514 790 1050 735 901 981 1298 1173
1895 147 457 220 925 282 1805 75 1065 101 1297 200 1798 142 711 320 1245
590 1769 304 589 683 1103 1184 1603 803 801 1781 1422 2898 1841 289 108 695
231 1488 452 1255 350 2055 505 2965 574 276 20 989 23 1245 5 575 -42 1107
-118 1650 -237 112 -25 204 -40 209 -35 11 11 -23 20 -282 75 -552 118 -1136
196 -1677 225 -167 9 -745 11 -910 3z"/>
<path d="M22045 19120 c-936 -37 -1810 -197 -3151 -575 -1154 -326 -1585 -476
-2139 -744 -1703 -826 -2997 -2154 -3590 -3686 -133 -345 -304 -938 -389
-1350 -79 -386 -111 -663 -171 -1485 -49 -670 -84 -978 -151 -1315 -135 -686
-346 -1143 -824 -1785 -68 -91 -261 -338 -430 -550 -464 -582 -657 -850 -822
-1140 -227 -399 -354 -769 -399 -1159 -17 -154 -7 -503 20 -660 163 -955 745
-1745 1741 -2363 678 -421 1828 -890 2625 -1072 255 -58 464 -92 720 -117 158
-15 579 -16 730 0 656 66 1266 252 2085 636 257 120 576 285 1205 625 798 430
1255 657 1650 817 296 121 472 180 1700 572 1117 356 1645 557 2250 856 401
198 640 337 963 558 461 315 738 572 1022 952 470 627 780 1387 925 2268 45
270 66 513 72 832 9 442 -14 711 -82 980 -93 371 -251 653 -626 1120 -305 379
-411 528 -522 735 -226 419 -323 919 -273 1400 33 310 84 600 225 1267 188
895 239 1259 228 1645 -8 277 -30 386 -132 626 -212 505 -466 913 -756 1217
-251 262 -565 466 -884 574 -285 96 -1008 227 -1545 280 -415 41 -893 57
-1275 41z m875 -31 c627 -35 1523 -180 1915 -310 486 -161 903 -502 1240
-1014 148 -226 276 -467 395 -746 111 -259 140 -404 140 -705 0 -385 -46 -698
-236 -1599 -192 -912 -244 -1272 -231 -1605 16 -410 137 -814 350 -1167 95
-157 194 -293 400 -550 328 -409 407 -524 522 -758 196 -398 254 -734 242
-1405 -10 -565 -79 -1026 -232 -1545 -242 -821 -674 -1547 -1220 -2048 -382
-352 -939 -713 -1568 -1017 -615 -298 -1181 -507 -2467 -915 -1030 -326 -1339
-436 -1761 -626 -278 -125 -783 -383 -1384 -708 -563 -304 -1041 -550 -1305
-669 -1597 -723 -2678 -758 -4335 -142 -863 321 -1530 661 -2010 1024 -589
446 -982 951 -1203 1546 -277 742 -231 1452 139 2180 179 354 380 641 919
1315 363 454 473 600 635 845 261 394 400 684 513 1070 127 435 185 834 247
1700 80 1125 135 1473 341 2185 231 795 459 1297 852 1875 372 549 887 1096
1452 1546 744 592 1662 1078 2581 1368 447 140 1326 392 1749 499 1267 324
2259 436 3320 376z"/>
<path d="M21975 18689 c-851 -28 -1718 -179 -2840 -494 -375 -105 -1101 -324
-1335 -402 -676 -226 -1299 -530 -1895 -926 -827 -549 -1504 -1219 -2020
-1997 -307 -463 -492 -841 -703 -1440 -172 -491 -258 -782 -322 -1100 -73
-361 -99 -595 -160 -1410 -66 -882 -136 -1311 -285 -1750 -171 -504 -400 -872
-1078 -1732 -462 -587 -693 -929 -861 -1280 -125 -259 -190 -449 -241 -703
-187 -929 206 -1967 1011 -2674 500 -439 1114 -782 2014 -1124 825 -313 1446
-447 2075 -447 565 -1 1063 95 1693 327 498 182 950 398 1941 927 859 459
1362 697 1813 860 84 31 295 105 468 165 1874 651 3051 1231 4137 2038 820
609 1443 1633 1704 2803 41 183 84 442 106 640 26 238 26 865 0 1027 -71 441
-209 731 -598 1258 -249 336 -373 535 -462 739 -133 302 -207 644 -207 951 0
347 49 656 245 1535 192 863 248 1238 231 1560 -16 303 -52 426 -235 805 -298
614 -610 1009 -1016 1287 -306 210 -535 291 -1140 402 -488 90 -908 136 -1410
156 -270 11 -299 11 -630 -1z m935 -39 c703 -56 1462 -195 1820 -334 393 -153
752 -449 1048 -862 115 -162 227 -355 348 -599 219 -446 249 -558 248 -935 -1
-350 -41 -604 -229 -1450 -197 -887 -245 -1192 -245 -1545 0 -277 66 -603 177
-880 94 -234 228 -457 491 -812 316 -427 411 -592 507 -878 88 -260 117 -474
117 -855 -1 -605 -89 -1144 -282 -1720 -319 -957 -851 -1727 -1560 -2256
-1053 -786 -2283 -1389 -4140 -2030 -426 -147 -501 -174 -685 -249 -412 -166
-831 -370 -1640 -800 -1052 -559 -1524 -778 -2070 -960 -1242 -414 -2248 -340
-3770 277 -896 364 -1483 723 -1951 1194 -504 507 -805 1123 -875 1794 -25
242 0 577 61 823 139 551 412 1020 1106 1897 511 646 710 942 898 1331 249
517 357 1044 436 2139 68 944 117 1286 256 1790 81 292 289 895 400 1160 71
170 261 545 360 710 734 1228 1915 2252 3332 2887 453 202 828 329 1827 616
1147 330 1987 495 2790 547 94 6 195 12 225 14 111 7 869 -3 1000 -14z"/>
<path d="M21745 18259 c-945 -50 -1832 -234 -3290 -679 -839 -256 -1143 -374
-1667 -643 -747 -382 -1377 -844 -1958 -1434 -515 -521 -900 -1054 -1204
-1663 -112 -225 -151 -314 -296 -680 -373 -938 -436 -1234 -525 -2475 -32
-442 -50 -633 -81 -863 -69 -513 -181 -907 -360 -1264 -179 -357 -354 -615
-898 -1323 -472 -615 -701 -982 -862 -1382 -256 -638 -252 -1312 12 -1963 389
-956 1220 -1628 2694 -2178 1033 -386 1800 -486 2635 -346 524 89 1107 292
1850 646 241 115 307 149 1025 523 958 500 1283 648 1905 870 1360 486 2448
1075 3918 2123 331 235 427 313 616 497 737 720 1268 1768 1445 2850 122 752
77 1290 -147 1750 -76 155 -118 225 -295 495 -186 281 -234 362 -318 533 -171
349 -266 781 -250 1142 15 341 71 658 246 1390 194 813 234 1050 234 1400 0
338 -33 468 -204 814 -131 263 -191 370 -325 571 -290 437 -595 718 -980 906
-168 81 -324 132 -563 183 -789 169 -1619 239 -2357 200z m908 -29 c419 -25
815 -75 1247 -156 395 -74 560 -121 752 -212 499 -236 926 -722 1303 -1487
160 -326 195 -463 195 -775 0 -362 -40 -596 -265 -1543 -226 -956 -260 -1340
-160 -1834 49 -240 159 -525 292 -757 25 -45 121 -196 213 -336 185 -282 224
-348 298 -495 208 -417 264 -872 186 -1515 -120 -1004 -544 -1994 -1176 -2752
-120 -144 -365 -392 -493 -499 -250 -210 -1069 -778 -1580 -1095 -938 -584
-1791 -998 -2780 -1349 -603 -214 -988 -394 -2120 -990 -1306 -687 -2055 -970
-2830 -1070 -798 -103 -1667 58 -2765 513 -1253 519 -2001 1174 -2348 2057
-285 727 -247 1443 114 2168 174 348 356 618 846 1257 461 601 619 836 786
1170 149 297 235 551 306 902 68 335 102 625 156 1333 93 1225 160 1515 592
2569 231 565 465 983 800 1431 729 975 1729 1773 2893 2307 415 191 726 300
1625 568 1282 382 2072 538 3015 593 134 8 746 6 898 -3z"/>
<path d="M21745 17834 c-27 -2 -126 -8 -220 -14 -833 -54 -1669 -230 -2917
-616 -636 -196 -911 -291 -1192 -410 -1158 -494 -2194 -1272 -2947 -2214 -361
-451 -629 -892 -869 -1425 -197 -438 -245 -550 -309 -709 -229 -573 -295 -920
-371 -1956 -17 -228 -39 -507 -51 -620 -91 -918 -262 -1421 -707 -2076 -96
-142 -192 -273 -577 -791 -597 -802 -843 -1310 -920 -1898 -18 -141 -21 -434
-5 -580 34 -308 133 -640 275 -920 394 -778 1109 -1333 2313 -1794 545 -210
1042 -338 1517 -393 147 -17 598 -17 750 0 557 63 1074 208 1710 480 346 148
655 299 1375 669 918 472 1246 624 1795 826 378 140 553 215 873 377 595 300
1026 582 2097 1370 259 190 585 429 725 530 405 292 588 445 802 668 733 767
1251 1830 1397 2867 55 389 53 662 -5 955 -47 233 -126 432 -280 706 -283 501
-327 589 -399 794 -108 312 -156 657 -135 977 21 333 68 578 245 1278 202 801
230 957 230 1310 0 337 -24 444 -167 730 -248 494 -489 847 -759 1110 -230
225 -450 367 -724 470 -317 119 -978 235 -1615 285 -134 11 -838 21 -935 14z
m940 -40 c365 -26 712 -72 1059 -140 464 -91 701 -180 966 -362 383 -263 694
-659 1025 -1308 155 -301 190 -440 189 -754 0 -308 -39 -539 -190 -1125 -228
-886 -282 -1169 -291 -1530 -11 -449 68 -819 261 -1217 30 -62 116 -221 191
-353 202 -354 273 -506 330 -700 60 -206 70 -296 70 -600 -1 -297 -10 -394
-60 -672 -125 -681 -419 -1397 -821 -1998 -201 -301 -390 -530 -646 -780 -206
-202 -307 -285 -643 -525 -148 -107 -470 -342 -715 -524 -1078 -799 -1547
-1107 -2150 -1411 -321 -161 -510 -242 -925 -395 -548 -203 -861 -349 -2064
-970 -1396 -719 -2189 -979 -3041 -997 -284 -6 -483 8 -746 53 -806 135 -1840
540 -2474 968 -280 189 -567 447 -747 673 -311 389 -503 831 -580 1330 -21
135 -24 528 -5 648 55 343 133 588 291 905 156 311 322 564 735 1119 319 429
413 560 529 736 386 590 551 1072 642 1877 13 123 41 436 60 697 96 1281 154
1524 597 2511 215 477 320 684 486 955 435 709 1077 1401 1807 1946 610 455
1254 802 1983 1070 246 90 1090 352 1530 475 1258 350 2302 475 3347 398z"/>
<path d="M21625 17394 c-27 -2 -120 -8 -205 -14 -780 -54 -1636 -238 -2815
-605 -912 -284 -1315 -448 -1875 -763 -1136 -639 -2105 -1576 -2724 -2635 -97
-166 -537 -1038 -616 -1222 -155 -358 -236 -649 -294 -1056 -35 -243 -51 -411
-86 -894 -17 -231 -37 -490 -45 -575 -62 -642 -167 -1068 -360 -1467 -161
-333 -258 -482 -786 -1208 -211 -291 -431 -618 -523 -780 -244 -424 -372 -777
-428 -1175 -17 -123 -17 -495 1 -620 81 -593 334 -1102 761 -1531 276 -277
598 -503 1023 -715 600 -301 1334 -531 1952 -611 176 -22 714 -26 865 -5 544
75 1027 215 1629 472 341 145 533 237 1306 625 962 483 1176 582 1664 767 483
183 762 325 1146 581 348 233 601 433 1275 1012 556 477 856 714 1240 980 222
154 410 313 625 529 886 887 1489 2156 1522 3202 13 429 -56 712 -292 1184
-187 375 -274 619 -324 910 -88 508 -42 915 205 1820 212 773 248 958 248
1280 0 206 -16 317 -66 464 -41 123 -223 462 -382 711 -315 496 -617 788
-1011 981 -197 97 -330 138 -640 198 -404 78 -660 114 -1035 147 -121 10 -854
20 -955 13z m725 -24 c458 -23 897 -80 1358 -175 212 -44 352 -90 520 -170
453 -218 783 -566 1158 -1216 255 -443 306 -600 306 -929 0 -288 -47 -533
-227 -1180 -253 -911 -307 -1295 -249 -1786 39 -338 110 -555 329 -1019 142
-300 188 -411 229 -545 118 -392 109 -825 -29 -1386 -226 -920 -798 -1887
-1516 -2567 -131 -123 -350 -308 -433 -364 -428 -292 -726 -526 -1384 -1091
-626 -537 -895 -750 -1212 -962 -370 -247 -663 -397 -1106 -565 -520 -198
-731 -294 -1574 -718 -371 -186 -774 -386 -895 -444 -862 -413 -1467 -616
-2100 -705 -138 -19 -203 -22 -470 -22 -334 -1 -465 11 -766 69 -589 114
-1365 398 -1864 684 -878 503 -1379 1173 -1522 2036 -23 138 -26 595 -5 715
110 624 324 1057 952 1920 479 659 617 870 771 1183 161 328 260 665 323 1108
36 244 51 403 86 879 81 1111 150 1483 371 1992 89 206 505 1040 609 1223 620
1082 1641 2063 2806 2698 438 238 797 392 1324 567 985 328 1814 549 2475 659
376 62 663 93 1075 114 140 8 483 6 660 -3z"/>
<path d="M21580 16974 c-30 -2 -127 -8 -215 -14 -709 -48 -1463 -203 -2430
-500 -342 -105 -840 -269 -1019 -335 -1227 -452 -2345 -1237 -3176 -2230 -218
-261 -460 -602 -627 -885 -113 -191 -452 -806 -543 -985 -295 -579 -377 -962
-455 -2125 -52 -764 -105 -1135 -215 -1499 -133 -439 -292 -725 -815 -1466
-476 -673 -673 -1004 -818 -1370 -89 -225 -142 -426 -173 -656 -21 -149 -23
-469 -5 -609 80 -631 366 -1174 840 -1597 392 -350 902 -623 1586 -849 860
-283 1573 -332 2324 -158 603 140 1208 383 2239 898 864 432 1249 608 1772
811 353 137 641 300 955 542 239 184 387 322 990 928 786 789 882 874 1340
1190 225 155 278 195 451 342 736 621 1378 1548 1678 2423 115 334 173 630
183 935 11 354 -28 540 -222 1044 -186 485 -238 738 -239 1166 0 412 52 688
278 1455 177 604 214 777 223 1040 8 222 -15 373 -87 557 -35 91 -198 381
-341 606 -197 310 -434 592 -628 749 -164 132 -370 251 -552 319 -286 105
-920 216 -1474 259 -141 11 -723 21 -825 14z m620 -29 c377 -11 928 -79 1340
-166 702 -148 1136 -512 1649 -1387 242 -412 289 -566 278 -906 -8 -271 -44
-438 -224 -1041 -223 -750 -278 -1043 -277 -1475 0 -443 51 -679 254 -1200
107 -274 142 -382 177 -547 25 -119 27 -145 28 -373 0 -275 -16 -406 -80 -668
-260 -1059 -1067 -2236 -2016 -2943 -70 -52 -202 -147 -295 -211 -368 -256
-519 -391 -1264 -1138 -739 -741 -896 -882 -1235 -1102 -253 -165 -421 -250
-726 -366 -476 -183 -693 -281 -1609 -732 -804 -396 -1047 -507 -1435 -662
-1243 -493 -2118 -527 -3301 -124 -989 336 -1647 801 -2017 1426 -164 275
-268 564 -324 897 -26 154 -26 580 0 740 76 473 281 935 676 1523 65 96 203
294 306 440 496 695 667 997 800 1409 123 384 179 767 235 1606 43 644 74 908
147 1240 80 368 197 647 488 1170 68 121 170 306 227 410 361 656 752 1163
1318 1710 678 655 1532 1205 2425 1560 438 175 1530 515 2104 656 740 181
1517 279 2091 262 47 -2 164 -5 260 -8z"/>
<path d="M21520 16544 c-957 -45 -1797 -228 -3160 -689 -157 -53 -348 -121
-425 -150 -1236 -468 -2386 -1306 -3220 -2345 -225 -281 -360 -476 -597 -865
-74 -121 -182 -296 -240 -390 -474 -765 -581 -1149 -658 -2345 -49 -773 -83
-1060 -164 -1395 -112 -460 -264 -772 -661 -1360 -89 -132 -223 -330 -297
-440 -231 -341 -416 -652 -515 -864 -217 -465 -304 -853 -290 -1291 11 -370
85 -673 242 -995 172 -355 436 -658 799 -918 573 -411 1482 -733 2251 -797
555 -46 1183 65 1921 340 407 152 727 296 1574 708 746 362 978 467 1420 643
256 102 381 166 560 284 293 194 568 453 891 840 42 50 202 248 356 440 328
409 458 560 643 746 222 223 395 364 612 501 557 350 1110 870 1556 1463 710
946 1025 1885 882 2628 -11 58 -52 216 -89 350 -135 478 -171 700 -171 1062 0
278 31 526 105 833 46 189 77 295 201 682 198 617 243 882 199 1173 -30 198
-95 345 -292 659 -351 559 -594 837 -918 1051 -167 110 -371 200 -566 251
-146 37 -633 119 -869 146 -301 34 -831 56 -1080 44z m890 -48 c336 -34 862
-113 1031 -156 554 -141 960 -469 1381 -1115 280 -428 365 -596 402 -794 58
-311 17 -565 -199 -1231 -241 -745 -303 -1081 -292 -1593 7 -344 35 -514 152
-925 118 -412 140 -548 132 -815 -6 -208 -26 -347 -82 -572 -187 -743 -707
-1585 -1421 -2299 -326 -326 -577 -528 -999 -805 -214 -141 -344 -248 -561
-465 -226 -227 -298 -310 -667 -771 -431 -538 -575 -704 -780 -901 -313 -299
-592 -480 -972 -629 -484 -189 -694 -284 -1515 -685 -1113 -543 -1636 -756
-2205 -898 -362 -90 -629 -125 -950 -124 -480 1 -978 98 -1515 294 -585 214
-981 445 -1314 768 -378 367 -610 813 -691 1330 -22 142 -31 455 -16 605 54
557 263 1045 773 1802 541 804 575 856 689 1068 155 286 253 555 318 869 70
336 98 586 141 1261 41 655 77 948 155 1270 96 400 221 665 590 1255 43 69
119 193 168 275 338 566 698 1021 1183 1495 711 697 1570 1260 2469 1620 169
68 500 185 850 299 1069 352 1864 526 2640 580 208 15 912 6 1105 -13z"/>
<path d="M21246 16109 c-560 -36 -1181 -149 -1826 -334 -376 -108 -990 -311
-1375 -455 -503 -188 -1003 -445 -1485 -764 -500 -331 -883 -648 -1315 -1087
-338 -345 -623 -696 -889 -1098 -68 -102 -199 -296 -291 -431 -387 -568 -518
-848 -619 -1329 -58 -273 -85 -529 -126 -1176 -48 -763 -81 -1020 -175 -1380
-106 -406 -251 -694 -668 -1330 -367 -559 -492 -765 -622 -1025 -168 -336
-257 -598 -317 -935 -20 -114 -23 -162 -23 -400 0 -238 3 -285 23 -398 114
-634 417 -1105 953 -1484 476 -336 1189 -594 1877 -680 214 -27 622 -24 812 6
762 118 1311 319 2790 1021 629 298 885 413 1228 551 358 144 563 273 794 502
233 229 421 482 798 1072 203 318 310 476 433 639 237 314 472 543 727 708 47
30 146 95 220 143 814 529 1646 1420 2092 2240 229 420 360 865 375 1275 7
183 -3 289 -57 606 -61 361 -72 458 -77 736 -12 550 58 915 313 1635 108 306
144 419 178 563 89 376 47 668 -139 974 -185 305 -420 638 -592 836 -326 377
-714 597 -1193 674 -379 62 -486 78 -645 95 -99 11 -254 25 -345 31 -188 11
-642 11 -834 -1z m1004 -38 c185 -20 351 -42 500 -67 80 -14 201 -34 269 -45
383 -60 660 -177 939 -397 104 -82 284 -268 395 -407 166 -210 436 -613 528
-789 95 -182 136 -374 126 -584 -10 -207 -59 -393 -239 -902 -148 -420 -235
-764 -275 -1090 -22 -181 -25 -649 -5 -815 7 -60 33 -227 57 -370 61 -363 69
-441 62 -645 -18 -572 -241 -1145 -695 -1782 -463 -652 -1137 -1310 -1747
-1706 -71 -47 -175 -114 -230 -150 -277 -180 -494 -392 -745 -727 -116 -155
-195 -273 -480 -715 -329 -512 -497 -736 -710 -951 -258 -259 -425 -367 -824
-529 -358 -146 -646 -276 -1196 -540 -929 -447 -1338 -624 -1805 -783 -469
-159 -856 -245 -1227 -269 -656 -44 -1532 169 -2174 528 -472 264 -810 601
-1010 1009 -145 297 -216 584 -231 935 -19 455 96 921 352 1424 132 262 265
481 597 986 404 615 551 896 661 1260 113 373 157 707 207 1560 31 523 57 772
111 1045 93 472 215 758 525 1220 681 1018 842 1228 1294 1689 813 828 1767
1454 2805 1841 248 92 883 305 1149 385 755 226 1360 344 2001 390 158 11 881
5 1015 -9z"/>
<path d="M21370 15693 c-747 -23 -1522 -178 -2471 -494 -324 -107 -778 -272
-969 -352 -1199 -500 -2339 -1363 -3168 -2398 -59 -74 -143 -184 -186 -244
-44 -61 -173 -234 -286 -385 -237 -317 -314 -426 -397 -565 -257 -427 -375
-853 -433 -1560 -5 -71 -22 -323 -35 -560 -39 -658 -72 -935 -151 -1250 -103
-409 -220 -647 -672 -1372 -109 -175 -234 -379 -279 -453 -347 -584 -522
-1039 -585 -1520 -16 -124 -16 -469 0 -590 75 -563 324 -1017 744 -1354 511
-410 1333 -696 2083 -723 215 -7 394 8 635 53 707 133 1226 327 2675 999 477
222 788 360 1024 456 320 130 442 205 630 384 126 121 234 253 357 440 124
189 192 311 427 775 309 611 436 825 625 1056 176 215 297 316 592 494 908
547 1887 1501 2338 2276 200 345 354 796 393 1154 13 115 8 394 -11 760 -28
502 33 1029 171 1489 27 90 106 311 175 493 185 487 221 635 211 866 -9 231
-60 364 -248 648 -388 587 -636 870 -944 1076 -224 150 -497 250 -801 292 -65
10 -191 28 -279 41 -388 58 -771 81 -1165 68z m660 -44 c183 -13 524 -56 835
-106 303 -48 584 -164 821 -338 96 -71 299 -268 402 -390 194 -231 516 -698
598 -870 82 -169 97 -238 98 -430 1 -234 -27 -344 -212 -825 -158 -412 -216
-599 -271 -884 -78 -394 -99 -873 -61 -1351 34 -430 -10 -743 -165 -1165 -94
-255 -181 -424 -350 -680 -208 -315 -417 -563 -779 -926 -479 -478 -950 -854
-1446 -1154 -188 -113 -282 -183 -398 -294 -138 -133 -246 -265 -368 -451
-133 -203 -201 -327 -460 -837 -345 -681 -486 -902 -733 -1148 -200 -199 -315
-271 -643 -404 -250 -101 -537 -228 -983 -436 -695 -324 -1047 -481 -1370
-610 -688 -275 -1231 -420 -1691 -450 -691 -46 -1585 192 -2164 576 -520 345
-822 810 -916 1414 -23 144 -26 526 -6 670 51 363 160 696 352 1075 115 228
205 381 485 830 277 445 371 605 470 807 241 489 321 886 375 1858 34 608 50
792 96 1070 78 472 211 812 464 1190 76 114 453 622 690 931 835 1089 2056
2021 3300 2521 342 137 986 359 1370 473 980 289 1819 394 2660 334z"/>
<path d="M21270 15259 c-827 -26 -1695 -228 -2874 -668 -381 -143 -560 -220
-846 -362 -1015 -506 -1961 -1256 -2689 -2129 -569 -684 -701 -849 -832 -1049
-209 -316 -324 -618 -398 -1041 -45 -255 -70 -521 -96 -1010 -34 -651 -62
-919 -126 -1224 -91 -434 -197 -666 -644 -1417 -394 -659 -556 -983 -680
-1354 -164 -492 -194 -1022 -81 -1455 135 -520 479 -931 1016 -1213 506 -266
1199 -411 1758 -368 514 40 1176 240 2097 636 132 57 492 216 799 355 511 230
780 347 1083 474 328 138 566 390 793 841 100 198 145 305 326 777 160 420
236 601 325 775 128 249 253 426 402 570 100 96 172 148 347 248 491 283 1021
667 1494 1083 191 168 557 537 693 698 254 303 400 523 524 795 161 353 244
620 279 899 5 47 19 234 30 415 55 903 132 1267 402 1904 108 255 153 376 184
496 37 144 39 334 5 459 -44 164 -111 282 -352 621 -359 503 -577 732 -865
905 -221 134 -506 225 -809 259 -49 6 -178 21 -285 35 -336 43 -620 56 -980
45z m520 -29 c198 -12 349 -26 490 -45 58 -8 165 -21 238 -30 176 -20 312 -49
457 -97 440 -146 750 -417 1201 -1049 303 -425 360 -547 371 -794 8 -203 -27
-333 -210 -765 -270 -641 -352 -1039 -402 -1960 -21 -381 -38 -503 -96 -713
-83 -296 -262 -690 -424 -932 -468 -702 -1406 -1530 -2425 -2142 -274 -165
-336 -210 -446 -325 -245 -256 -415 -575 -684 -1288 -314 -833 -469 -1124
-741 -1385 -147 -142 -219 -185 -514 -308 -226 -94 -487 -209 -1065 -470 -503
-226 -726 -323 -995 -432 -712 -289 -1288 -455 -1719 -496 -173 -16 -519 -6
-696 20 -573 84 -1120 300 -1470 580 -174 139 -357 349 -454 521 -286 508
-321 1175 -99 1865 117 363 270 670 666 1335 398 670 506 885 598 1198 106
364 145 674 189 1517 36 686 77 993 175 1334 119 415 286 688 770 1266 82 99
195 236 250 304 654 813 1503 1540 2410 2061 307 176 728 376 1059 502 1509
574 2560 789 3566 728z"/>
<path d="M21165 14834 c-720 -43 -1294 -156 -2040 -401 -864 -284 -1472 -553
-2080 -921 -652 -395 -1372 -972 -1876 -1504 -112 -119 -400 -436 -688 -757
-489 -547 -678 -954 -775 -1676 -22 -162 -44 -466 -61 -850 -24 -532 -44 -765
-90 -1033 -81 -468 -181 -710 -597 -1447 -289 -512 -373 -672 -485 -924 -221
-499 -315 -899 -316 -1341 0 -262 23 -426 90 -635 176 -552 657 -962 1370
-1169 352 -102 779 -147 1105 -116 327 31 755 145 1318 350 407 148 772 300
1628 676 293 129 602 263 686 298 190 80 223 96 313 158 150 103 298 288 410
513 114 227 199 475 329 960 154 574 222 790 319 1010 110 248 208 398 354
538 91 88 154 129 371 247 382 207 917 555 1335 869 618 464 1076 911 1328
1293 133 202 329 573 410 778 91 227 121 363 221 985 128 791 177 965 431
1505 145 310 185 439 185 600 0 170 -54 332 -172 512 -77 118 -367 500 -491
648 -188 224 -378 396 -567 513 -201 124 -474 214 -750 246 -193 23 -192 23
-188 9 3 -7 22 -14 44 -16 170 -11 378 -51 536 -102 390 -128 675 -357 1054
-845 278 -358 403 -544 455 -679 95 -246 76 -423 -81 -766 -329 -717 -357
-816 -515 -1825 -60 -387 -103 -563 -187 -778 -83 -211 -301 -620 -426 -796
-460 -649 -1536 -1520 -2607 -2110 -110 -60 -232 -131 -272 -156 -182 -117
-360 -351 -484 -635 -97 -222 -161 -420 -290 -895 -158 -581 -217 -766 -319
-995 -127 -289 -294 -504 -486 -630 -39 -26 -143 -77 -230 -115 -88 -37 -334
-144 -549 -237 -1271 -554 -1668 -714 -2170 -878 -589 -192 -942 -252 -1349
-229 -458 26 -930 159 -1278 362 -457 267 -734 638 -827 1107 -97 491 -25
1029 216 1620 111 274 253 551 561 1095 552 975 612 1203 677 2565 23 471 38
649 81 905 83 504 239 870 529 1240 93 119 154 190 341 395 77 85 201 223 274
305 685 770 1433 1389 2290 1893 177 104 598 320 775 397 307 134 755 305
1115 425 708 236 1315 366 1920 410 309 23 770 11 1064 -26 113 -14 146 -13
117 5 -48 30 -770 69 -1006 55z"/>
<path d="M20885 14389 c-742 -59 -1485 -251 -2415 -624 -682 -274 -1147 -517
-1730 -906 -540 -360 -1012 -743 -1534 -1244 -773 -743 -1030 -1058 -1205
-1479 -152 -366 -217 -772 -251 -1576 -29 -694 -63 -1014 -139 -1334 -73 -303
-161 -508 -471 -1091 -378 -712 -555 -1110 -664 -1491 -86 -306 -115 -484
-123 -759 -7 -283 20 -474 97 -687 71 -193 228 -417 390 -556 298 -255 690
-419 1165 -488 170 -25 555 -25 720 -1 343 52 1034 276 1830 595 449 179 1536
642 1686 717 261 132 444 408 573 867 53 187 97 399 170 813 36 204 81 449
101 545 95 451 219 765 380 960 88 105 161 157 384 271 803 409 1705 989 2266
1455 202 167 474 445 592 604 203 273 368 520 471 707 153 275 213 468 401
1283 106 455 144 563 342 955 81 160 158 322 172 361 79 221 45 420 -117 672
-85 132 -430 567 -600 754 -357 395 -751 593 -1266 638 -69 6 -190 18 -270 27
-168 18 -781 26 -955 12z m835 -19 c63 -6 196 -17 295 -25 440 -36 711 -124
997 -325 112 -78 376 -337 510 -500 131 -160 366 -462 420 -540 90 -129 153
-276 168 -392 19 -156 -14 -263 -184 -598 -243 -478 -244 -481 -463 -1440
-119 -521 -222 -760 -517 -1195 -347 -512 -526 -706 -995 -1080 -510 -405
-1426 -982 -2086 -1313 -104 -52 -217 -114 -250 -137 -218 -155 -383 -459
-499 -920 -43 -175 -82 -370 -146 -740 -109 -626 -170 -872 -279 -1130 -105
-247 -242 -421 -411 -522 -85 -51 -1241 -544 -1770 -755 -712 -283 -1403 -512
-1725 -569 -116 -21 -160 -24 -415 -24 -251 1 -301 3 -415 23 -287 50 -494
115 -720 227 -186 93 -310 180 -445 315 -213 211 -335 449 -392 760 -30 163
-30 496 0 690 81 533 249 967 707 1835 378 716 467 921 539 1245 69 312 99
605 126 1260 39 937 115 1350 322 1765 155 309 278 457 882 1060 594 593 845
817 1321 1175 693 521 1349 892 2154 1217 1023 414 1765 596 2636 647 102 6
514 -3 635 -14z"/>
<path d="M20945 13983 c-484 -29 -981 -121 -1470 -270 -82 -25 -166 -50 -185
-55 -19 -6 -129 -44 -244 -85 -1112 -397 -2058 -921 -3080 -1708 -178 -136
-491 -395 -636 -524 -644 -576 -821 -758 -1012 -1041 -260 -386 -389 -829
-437 -1500 -6 -80 -18 -320 -26 -535 -29 -736 -69 -1064 -170 -1405 -63 -215
-120 -344 -437 -995 -339 -694 -486 -1058 -592 -1465 -129 -493 -139 -935 -30
-1242 176 -492 641 -819 1316 -924 81 -13 174 -18 328 -18 346 -1 493 27 960
183 561 188 1147 404 1726 636 305 123 877 366 990 421 309 151 478 528 563
1254 11 96 34 333 51 525 56 641 102 940 184 1190 73 219 145 344 265 457 68
65 91 78 514 287 996 494 1730 923 2243 1309 299 225 436 359 818 800 439 508
570 766 761 1502 124 477 176 605 387 958 89 149 150 274 167 344 37 154 -14
329 -156 532 -69 99 -295 380 -459 570 -474 551 -831 737 -1491 776 -92 6
-224 15 -293 20 -115 9 -436 11 -555 3z m785 -42 c304 -22 461 -48 640 -107
389 -128 657 -358 1186 -1020 183 -229 250 -332 293 -452 72 -198 47 -304
-148 -632 -176 -296 -263 -501 -337 -795 -188 -751 -320 -1055 -618 -1426
-120 -150 -431 -503 -561 -638 -348 -360 -976 -784 -1906 -1286 -226 -122
-831 -427 -1089 -550 -113 -54 -133 -67 -211 -145 -99 -98 -159 -192 -220
-348 -105 -269 -157 -576 -219 -1287 -63 -724 -106 -991 -201 -1261 -79 -225
-207 -403 -350 -486 -61 -36 -685 -302 -1057 -452 -545 -219 -943 -367 -1552
-578 -425 -147 -575 -189 -775 -219 -162 -24 -451 -29 -600 -10 -678 88 -1158
402 -1346 881 -67 170 -83 272 -84 530 0 135 5 259 13 310 37 246 93 471 176
715 123 363 219 585 504 1170 294 605 356 744 422 950 111 349 154 690 185
1490 17 441 29 611 56 825 72 573 226 962 526 1335 152 189 381 413 848 830
842 753 1845 1429 2744 1850 982 460 1900 734 2716 810 173 16 714 14 965 -4z"/>
<path d="M20930 13573 c-495 -26 -952 -110 -1485 -273 -1280 -393 -2767 -1236
-4200 -2384 -706 -565 -1005 -970 -1155 -1564 -79 -316 -111 -608 -130 -1217
-27 -832 -63 -1148 -177 -1525 -38 -127 -105 -290 -315 -765 -105 -236 -228
-522 -275 -635 -423 -1026 -546 -1676 -399 -2106 130 -382 477 -661 956 -768
168 -37 316 -49 519 -43 275 8 374 31 778 178 153 55 490 176 748 269 1134
405 1818 679 1958 784 221 166 330 496 367 1116 6 96 15 443 20 770 12 714 24
883 85 1150 57 254 158 439 291 530 24 17 196 98 382 179 1386 609 2280 1079
2757 1448 114 88 617 543 793 717 373 367 527 653 722 1336 80 278 158 442
338 712 60 90 121 186 134 214 88 174 50 335 -140 590 -72 96 -340 411 -505
592 -400 439 -746 625 -1247 671 -238 22 -637 34 -820 24z m690 -44 c309 -19
522 -69 735 -173 280 -137 469 -308 911 -826 313 -367 396 -507 396 -665 0
-109 -25 -160 -214 -439 -142 -209 -227 -393 -308 -671 -159 -541 -287 -817
-503 -1084 -85 -105 -297 -315 -522 -516 -104 -93 -241 -216 -303 -272 -471
-427 -1395 -928 -3022 -1638 -259 -113 -305 -140 -377 -219 -163 -178 -248
-476 -283 -996 -6 -85 -15 -429 -20 -765 -5 -335 -14 -668 -20 -740 -31 -370
-93 -630 -192 -804 -17 -30 -61 -85 -97 -124 -57 -61 -80 -76 -186 -127 -351
-169 -837 -358 -1875 -730 -289 -104 -608 -219 -710 -255 -102 -37 -228 -80
-280 -95 -187 -55 -454 -86 -640 -75 -643 37 -1105 315 -1280 769 -156 403
-50 1024 338 1991 78 193 181 432 380 882 186 419 247 575 296 763 89 339 121
651 146 1435 24 751 80 1121 226 1489 121 303 282 536 578 831 188 187 342
319 693 592 1104 860 2262 1549 3308 1968 768 308 1434 467 2130 509 90 5 519
-4 695 -15z"/>
</g>
</svg>
